<svg id="Layer_1" data-name="Layer 1" xmlns="http://www.w3.org/2000/svg" viewBox="0 0 1280 283">
  <defs>
    <style>
      .cls-1 {
        fill: #4bddad;
      }
    </style>
  </defs>
  <title>leaves</title>
  <g>
    <polygon class="cls-1" points="853.54 191.87 853.54 191.87 853.54 191.87 853.54 191.87"/>
    <path class="cls-1" d="M840.83,175.55c0-.91,0-1.85-.06-2.81A6.14,6.14,0,0,0,840.83,175.55Z"/>
  </g>
  <path d="M1280,0H1V135.85a37.07,37.07,0,0,0,8.44,8.68q1.25.93,2.35,1.78c5.47,4.93,9.76,8.87,15,13a10,10,0,0,1,1.83,2.07A62.33,62.33,0,0,1,34,171.73a.75.75,0,0,0,1.43-.16c.14-.77.32-1.63.54-2.52a23.14,23.14,0,0,1,.82-2.62c7.73-8.59,20.49-11.08,28.82-20.84.81-.77,1.58-1.54,2.32-2.35A30.53,30.53,0,0,0,70,140.72c.79-.87,1.58-1.76,2.36-2.66,1.56-1.79,3.11-3.61,4.7-5.36a17.51,17.51,0,0,0,1.53-1.57c1.58-2,8.91-14.19,15.36-27.4.92,2.52,2.11,5.3,3.44,8.12a172.91,172.91,0,0,1-12.51,18.36C72.61,146,63.46,162.91,51.89,177.83c-1.48,1.9-4.63,3.55-4.23,6.63,1.38.2,2.83-1.23,3.77-2,3.76-3.26,7.53-6.95,10.93-10.32,2.3-2.29,4-5.17,6.32-7.44s5.28-4.22,7.56-6.6c2.45-2.55,4.3-6.09,6.75-9.11s5.26-5.73,7.58-8.68a86.47,86.47,0,0,0,11.37-19.61c.84,1.47,1.69,2.89,2.54,4.21.29.46.58.89.87,1.33-.17.7-.33,1.41-.51,2.11C101.47,141.48,98.19,154.77,92,164c-3.21,4.82-6.89,8.88-10.54,13.66s-6.34,9.85-9.72,14.5C68.25,197,65.23,202,62,207.09c6.08-2.4,8.84-8.19,13-12,6.42-5.8,13-10.7,18.08-17.76,1.52-2.12,3.3-4.47,4.64-6.63,6.84-11,9.66-24.39,11.91-39.37,1,1,2.07,2.07,3.11,3.09,0,.89-.05,1.79-.13,2.67-.2,2.28-1.11,4.44-1.31,6.66-1.15,12.89-2.51,21.82-6.54,31.61C101.72,183,97.21,190,94.63,198.22c-2.72,8.67-4.59,17.21-6.9,25.77s-5.68,16.67-7.32,25.77c1.49.43,2.15-1.75,2.52-2.48.72-1.4,1.07-3.24,1.71-4.57,1.67-3.48,3.76-6.82,5.09-10,4.77-11.24,9-21.67,13.63-32.8,4.74-11.48,9.5-24.71,10.77-38.66.73-8,1.13-16,1.47-24a41,41,0,0,1,3.48,4.1c0,5.27,0,10.54-.33,15.81-.46,8.36-1.52,17-1.48,25.41,0,2.47.54,5,.35,7.5-.23,3-1.34,6.76-1.75,9.57-.17,1.11.17,2.35,0,3.33-.47,2.32-1.8,4.08-2.14,6.23s.19,4.53-.06,7.08c-.5,4.94-1.82,10-1.8,15,0,.93.73,1.28.82,2.09.28,2.63-.65,5.36-.49,7.91.48,7.69,3.09,15.7,2.71,23.36-.26,5.28-2.11,10.4-1.81,15.4,2.75-6.69,6.27-13.26,6.44-21.19,0-2.1-.51-4.08-.36-6.26.34-5,2.3-10.18,3.06-15.39,1.58-10.93,3.53-20.94,4.46-32.46.47-5.82,1.21-12.2.58-17.91-.65-5.88-1.54-12.85-1.91-19.19-.29-5-.4-10-.47-15a1,1,0,0,0,.2-.12l1.44-1.13c.53-.46,1.06-.9,1.58-1.32,0,.58-.05,1.16-.1,1.72-.24,2.81-1.67,5.16-1.74,7.9a29.6,29.6,0,0,0,.38,4.17c.54,4.07,1.48,8.92,2,13.35,1.17,10.61,2,22.41.94,33.76-1.17,12.1-5.82,23.65-7.41,35.77-.48,3.7-.07,7.58-.52,11.25-1,8.54-5.05,16.29-5.64,24.54,6.71-12.79,10.29-28.77,13.33-45.3,4-7.15,5.62-17.47,4.83-27.46-.28-3.61-1.31-7.05-1.57-10.85-.88-13.2,0-27.23-.46-40.84-.12-3.72-.07-7.39-.07-11,.85-.6,1.68-1.17,2.51-1.73.78,16.42.36,32.74.57,48.58.11,8.08,2.23,18.51,1.42,27.1-.77,8.21-5.52,11.1-5.58,18.29,2.63.34,3.73-2.7,5-4.54s3.3-3.82,4.22-5.8c.78-1.67,1-4.1,1.72-6.24s1.87-3.94,2.14-5.81c1.36-9.78.06-18.48-1.42-27.1-.88-5.1-.89-9.83-1.12-15-.21-4.7-1.21-9.52-1.54-14.18-.37-5.27-.24-10.32-.69-15.42-.05-.61-.13-1.2-.19-1.81l.24-.07,1.56-.47c0,.23,0,.46.08.69.29,2,1.14,4.59,1.6,7.1s.59,5.29,1.18,7.51c.17.63,1,1.09,1.23,1.68a47.23,47.23,0,0,1,2,7.52c1.37,7.17-2.84,10.62-3.89,15.8,2.35.1,4.67-2.83,6.3-4.94,1.88-2.45,4.28-6.67,4.66-8.71,2.3-12.08-5.23-18.45-6.39-28.69l2.83-.9a19.93,19.93,0,0,0,0,3.72,10.48,10.48,0,0,0,5.66-5.68c4.17-1.54,7.6-3.13,8.62-4.49.47-.62,1.45-1.81,2.79-3.44l2.26-2.75c1.25-1.22,2.49-2.46,3.72-3.7,4.08,1.06,6,5.68,10.41,4.95.54-1.53-1.62-2.25-2.47-2.94a47.16,47.16,0,0,1-3.72-3,10.16,10.16,0,0,1-1.48-1.88c5.55-5.89,10.51-12.25,13.22-20.1.55-1.14,1.12-2.26,1.68-3.41q.53-1,1-1.91c.2-.38.37-.74.56-1.12A69.43,69.43,0,0,0,197.91,106a19.89,19.89,0,0,0,1.21,3.37c1.45,3.22,3.37,6.15,3.67,10.49,0,.77,0,1.56,0,2.34-.14,3.87-.35,7.23-.35,7.23.51.51,3.68-1.62,6.78-4.15l1-.85a66.84,66.84,0,0,0,7.63-5.51c4.35,3.86,8.88,7.43,12.85,11.31,4.94,1.2,7.87,4.39,14.13,4.3-3.81-3.7-7.22-7.78-11.57-10.94-1.51-3.91-4.2-7-6.68-10.28.44-.19.9-.37,1.36-.53.66-.26,1.32-.53,2-.8a35.69,35.69,0,0,0,3.86-1.89l1.25-.52a59.32,59.32,0,0,0,6.85-3.16c1.28-.85,3.9-3,7.12-5.84a27.12,27.12,0,0,0,4,3.62c4.43,2.86,8.57,4.36,14.11,6,2.14.61,4.37,1.85,6.23,2.14a36.38,36.38,0,0,0,5.4.34c4.1,4.12,7.4,7.48,11.44,11a8.27,8.27,0,0,1,1.42,1.79,51.72,51.72,0,0,1,3.93,8.81.62.62,0,0,0,1.19-.07c.15-.63.34-1.34.56-2.06a19.19,19.19,0,0,1,.8-2.14c5.45-5.43,13.4-7.47,20.13-12a6,6,0,0,0,1.57.49c-3.07,14.16-4,28.17-1.75,41.22,1,1.48,1.4,4.05,4.63,3.55a275,275,0,0,1,8.58-57.61c.57-.58,1.14-1.17,1.72-1.74a14.54,14.54,0,0,0,1.34-1.23c.14-.16.34-.41.58-.72C326,135.16,320.47,169.18,323,204c6.82-38.85,12.71-77.7,21.15-116.24,1.63-2.7,3.3-5.59,4.91-8.53-6.82,33.65-12.12,67.78-20,101-2.9,7.71-1.66,14.15-1.45,21,18.72-37.14,24.7-78,27.76-118.51a19.7,19.7,0,0,0,1.69,1.93c1.38,30,7.89,60,16.91,88.34.1.66-.09,2.57,1.62,2.54C377,167,379,158,376,150a321.45,321.45,0,0,1-12.4-59.5l3.42,3c6.82,22.42,19.56,42.38,40,55.47a245.71,245.71,0,0,1-27.33-44.48c1.07.87,1.93,1.55,2.52,1.93a59.32,59.32,0,0,0,6.85,3.16l1.25.52a35.68,35.68,0,0,0,3.86,1.89c.65.28,1.31.54,2,.8a26.74,26.74,0,0,1,6.56,3.48c6.77,7.86,13.75,15.4,20.32,22.69-1.92-3.84-3.43-7.68-5.32-11.52,2,1.44,3.62,2.35,4,2,0,0-.21-3.36-.35-7.23,0-.77-.05-1.57,0-2.34.3-4.34,2.22-7.28,3.67-10.49a19.89,19.89,0,0,0,1.21-3.37c.41-.75.8-1.51,1.18-2.27,6.13,4,12.4,7.74,18.68,11.23-5.38-5.57-10.87-11-16.37-16.37a79.88,79.88,0,0,0,5-36.65c0-.46-.08-.92-.12-1.38a94.12,94.12,0,0,0,3,10.68c3.29,8.84,4.6,22.38,17.89,32.25q1.25.93,2.35,1.78c5.47,4.93,9.76,8.87,15,13a10,10,0,0,1,1.83,2.07A62.33,62.33,0,0,1,480,130.73a.75.75,0,0,0,1.43-.16c.14-.77.32-1.63.54-2.52a23.14,23.14,0,0,1,.82-2.62c7.73-8.59,20.49-11.08,28.82-20.84.81-.77,1.58-1.54,2.32-2.35A30.53,30.53,0,0,0,516,99.72c.79-.87,1.58-1.76,2.36-2.66,1.56-1.79,3.11-3.61,4.7-5.36a17.51,17.51,0,0,0,1.53-1.57c1.7-2.16,10-16.08,16.8-30.4C550,67.32,561,77.36,564.18,79.45A59.32,59.32,0,0,0,571,82.61l1.25.52A35.68,35.68,0,0,0,576.15,85c.65.28,1.31.54,2,.8,6.89,2.4,11.28,7.88,17.72,11.65l1,.85c3.1,2.53,6.27,4.66,6.78,4.15,0,0-.21-3.36-.35-7.23,0-.77-.05-1.57,0-2.34.3-4.34,2.22-7.28,3.67-10.49A19.89,19.89,0,0,0,608.14,79a69.51,69.51,0,0,0,5.26-12.35,32.66,32.66,0,0,0,12.92,10.79q1.22.57,2.3,1.1c3.17,1.86,5.95,3.51,8.73,5.08-3.41,11.48-5.86,24-3.73,29.31,3.47,8.67,9.54,24.28,13.88,31.22s7.81,18.21,20.82,24.28q1.22.57,2.3,1.1c5.5,3.24,9.84,5.84,15,8.44a8.65,8.65,0,0,1,1.91,1.44,54.05,54.05,0,0,1,6.31,7.86.65.65,0,0,0,1.19-.38c0-.68,0-1.44,0-2.23a20,20,0,0,1,.24-2.37c5.07-8.65,15.48-13,20.86-22.72.56-.79,1.08-1.59,1.56-2.4a26.5,26.5,0,0,0,1.31-2.5c.52-.88,1-1.77,1.54-2.67,1-1.79,2-3.61,3.06-5.38a15.19,15.19,0,0,0,1-1.6c1.73-3.47,13-36.43,12.14-51.17a39,39,0,0,0-.89-6c2-1.77,4.13-3.53,6.1-5.45.42,1,.87,2,1.35,2.89.34.66.7,1.3,1.06,2,4,6.47,3.82,13.94,6.5,21.28.08.46.17.93.26,1.39.81,4.14,1.93,8,2.7,7.88,0,0,2.09-3,4.58-6.35.5-.67,1-1.36,1.54-2,3.17-3.49,6.7-4.74,10-6.53a22.21,22.21,0,0,0,3.25-2.08l.46-.21a126.83,126.83,0,0,0,4.47,18.18c.24,1.3.47,2.48.66,3.52.4,2.08.69,3.6.8,4.38.57,4,12.36,15.58,17.7,21a36.38,36.38,0,0,1,2.53,2.7A87,87,0,0,1,804.84,161l.72,1.69a1,1,0,0,0,1.69.3l.24-.26c6.73-9.06,17.07-9.12,26.39-12.85,1-.49,2.09-1,3.2-1.65l1.37-.76q-3.32,3.54-6.62,7.11c-3,4-3,9-6,13,20.84-18.17,44.25-37.2,61.38-59.83h.44c1.32,0,2.63-.1,3.93-.22l.15,0c-12.32,19.78-29.26,37.4-47.9,53.09-3.27,3.27-3.2,7.88-3.06,12.19.56-2.63,2.81-4.69,5.06-6.19,24.3-16.2,43.9-37.43,55.92-61.93q2.53-.82,5-1.78c-10.57,23.76-28.57,45.07-45.9,64.72-6,7-7,15-7.29,24.31,21.56-30.71,50.48-57.76,60.83-92.78a39.87,39.87,0,0,0,3.92-2.71c-4.6,25.75-18.79,50-24.45,76.17,21.49-16.61,29.62-38.94,31.5-62.91a120.75,120.75,0,0,0,8.16,15.22c.68,1.05,1.35,2,2,3,6.34,7.72,15.34,12.72,16.87,23.85l.09.34a1,1,0,0,0,1.62.55l1.44-1.13a86.57,86.57,0,0,1,9.33-6.89,36.19,36.19,0,0,1,3.5-1.14c7.26-2.18,23.1-6.66,25.5-9.86.47-.62,1.45-1.81,2.79-3.44l2.26-2.75c7.94-7.81,15.94-15.81,19.68-26.63.55-1.14,1.12-2.26,1.68-3.41q.53-1,1-1.91.75-1.42,1.43-2.82a101.43,101.43,0,0,0,5.65-9.81l.47.77c5,8,9,21,24,28q1.41.66,2.65,1.27c6.35,3.73,11.35,6.73,17.35,9.73a10,10,0,0,1,2.2,1.66,62.32,62.32,0,0,1,7.28,9.06.75.75,0,0,0,1.37-.44c0-.78,0-1.66,0-2.58a23.11,23.11,0,0,1,.28-2.73c5.85-10,17.85-15,24.05-26.2.64-.92,1.24-1.83,1.8-2.77a30.52,30.52,0,0,0,1.51-2.88c.6-1,1.19-2,1.78-3.08,1.17-2.07,2.32-4.16,3.53-6.2a17.52,17.52,0,0,0,1.18-1.84c.15-.3.37-.82.64-1.49l1.9-.34.42,1.41c.18,1,.36,1.89.51,2.68.3,1.59.52,2.75.61,3.34.22,1.51,2.56,4.48,5.37,7.58a18.51,18.51,0,0,1-2.6,2.72c-2,1.53-4.51,2.64-6.53,4.18s-3.94,3.76-6.05,5.25-5.1,2.24-7.31,3.88c-4.24,3.14-7.1,6.48-10.55,11.11-1.33,1.78-3.27,3.44-4.2,5.08-2.29,4-3.61,9.65-6,14.23-1.42,2.79-4.44,5.13-2.77,8.31,2.2-2.21,2.83-5.39,4.47-8.1,2.77-4.58,6-6.8,9.17-9.86a40.26,40.26,0,0,1,6.44-5.1c2.21-1.46,4.21-3.71,6.44-5.1,1.13-.71,2.62-.69,3.62-1.28,5.91-3.47,10.58-9.26,16-12.57,2.57-1.56,5.29-2.93,7.92-4.3a27.77,27.77,0,0,1,1.93,2.06,69.06,69.06,0,0,1,3.52,7.53c-.88,1.26-1.72,2.59-2.58,3.8-1.64,2.3-3.26,4.74-5,7-3.48,4.71-5.76,10.3-9.42,15.12-1.46,1.92-3.6,3.27-5.13,5.17a88.71,88.71,0,0,0-8.82,13.56c-1.34,2.46-3.31,5.25-4.32,7.71-.72,1.76-.75,4.36-1.24,6.67-.57,2.68-1.62,5.41-2.23,8.07-.54,2.36-.44,4.82-1,7.21-.32,1.34-1.18,2.25-1.35,3.5s.18,2.5,0,3.56c-.57,2.79-2.91,4.91-1.15,7.6,2.77-4.87,4.79-12.74,7.15-17.34,3-5.88,8.56-11,12.81-16.94,4.36-6.11,8.32-12.56,12.48-18.41s8.87-11.26,12.57-17.48c1.94-3.26,3.89-6.6,6-9.74s3.82-6.85,6-9.74c1.73-2.3,4-4.45,6-6.72.52-.18,1-.37,1.55-.57.78-.38,1.6-.8,2.44-1.26,1.5-.82,3.08-1.76,4.66-2.76-5.16,6.49-10.15,12.38-14.28,19.51-4.43,7.67-7.69,16.2-12,25.29-2.17,4.55-5.41,8.89-7.89,13.48-2.68,4.95-4.58,10.21-7.18,15.09-3,5.68-7.86,10.84-10.56,16.91a74,74,0,0,0-2.47,7.53c-2.16,7-2.61,12.15-3.36,17.91-.37,2.85-2,6.88.64,8.74,2.08-10.32,7-21.56,12.44-28.7,2.07-2.68,5-4.89,7-7.59,6.45-8.75,11.45-20.36,16.12-31.29,4.8-11.24,9.35-22.44,15.41-32.91,5.92-10.23,11.34-19.83,17.32-28.6,6.37-9.34,13.12-17.58,18.66-26.29-9.37,16.94-18.16,35.19-29.08,48.62-1.55,3.92-3,7.55-5,11.9-1.33,2.82-3.36,5.34-4.47,8.1-4.77,11.76-7.26,26.14-13.27,37.76-2.32,4.48-5.89,8.12-8,12.55-4.29,9.08-6.41,18.26-8.13,26.79-.78,3.88-2,7.81-2.65,11.48-.72,4.27-1,10.52-3.23,15.28-.53,1.14-1.71,2-2.13,3.2-1.07,3.17-.54,7.66-2,10.86,0,.34.15.58.63.69.2-.51.82-.09,1.07-.48,1.22-8,7.08-13.29,10.54-19.16a130.59,130.59,0,0,0,7.12-13.78c4.6-10.51,6.38-20.28,9.33-29.9,1.57-5.13,4.79-9.88,7.18-15.09,3.26-7.13,6.66-15.94,8.66-21.23,3.93-10.39,5-21.65,8.23-31.67a79.69,79.69,0,0,1,4.21-10.88c.79-1.54,2.17-2.65,3-4.21,4.6-9,7.69-18.25,13.78-26.39-2.38,10.11-7.92,18.68-11.3,26.9a68.09,68.09,0,0,0-3.95,13.66c-1.76,9.22-4.48,17.93-7,27.24s-4.4,18.65-6.72,27.78c-1.2,4.73-2.67,9.46-3.71,14.21s-2.52,9.54-3.17,14c-.29,2,.22,4.54.08,6.73-.48,7.16-2.13,14.46-.46,20.82,4.13-18.38,14.43-32.74,19.72-48.67,3.57-10.77,6.15-21.91,6.91-31.73.24-3.08-.19-6.46.2-9.75.33-2.82,1.43-5.72,2-8.61,3.81-19.53,7.47-40.5,14.86-60.38,1.75-4.71,3.19-9.92,6.73-13.93-3.58,14-9,27.39-10.31,39.35-.7,6.49-1.32,14.12-.93,19.74-4.12,24.7-1.42,46.38,3,67.29,1.58,1,1.72,5.41,3.76,4.14.53-7.46,3.4-15.61,4.68-23.66.34-2.12-.24-4.37-.08-6.73.18-2.56,1.06-5.07,1.15-7.6.18-4.71-.06-9.59.15-14.24.43-9.79.89-19-.4-27.85-.69-4.72-1.53-8.86-1.62-13.14-.1-5,.84-9.36,1.76-15,1.58-9.52,1.61-20.46,7.39-30.65-.38,1.35.62,2.09,1,3.08-4.93,14.3-8.09,28.14-6.75,39.39.6,5,1.54,9.63,3.71,13.5,2.62,4.66,6,8.3,9,12.43.48,7.09,4.63,13,8.49,18.48a45.93,45.93,0,0,0,7.37,8.66c1.08.9,2.64,1.31,4,2.43,3.85,3.24,5.77,8.49,10.18,10.64-.18-4.24-3.15-7.47-4.62-11.17-1.16-2.94-1.57-6-2.5-8.56-1.85-5.08-4-8.59-6.89-13.39-3.91-6.54-9.31-13.89-11.54-21-1.55-4.93-2-10.32-3.65-14.82-.58-1.6-1.65-3.16-2.14-4.85-1.66-5.69-1.34-12.75-1.46-19.33-.06-3.22-.23-6.67-.19-9.9,0-1.27-.1-2.58-.16-3.9l1.23,1.09c.32,2,.71,3.87.89,5.8.42,4.27,0,9.49,1.08,13.38,1.17,4.36,5,9.18,8.35,13.06a56.25,56.25,0,0,0,12.66,11.15c10.08,6,23.81,9.51,31.83,15.89.27-2.43-2.29-3.87-3.7-5.45s-2.65-3.66-4.24-5.21c-8.77-8.58-19.77-16.47-28.76-25-4.54-4.29-8.36-8.57-10.68-14-.67-1.56-1.41-3.21-2.06-4.91,5.56,4.92,10.72,9.45,12.63,10.72a54.09,54.09,0,0,0,6.24,2.88l1.14.48a32.53,32.53,0,0,0,3.52,1.72c.6.25,1.2.49,1.8.73,6.29,2.19,10.29,7.19,16.16,10.63l.94.78c2.83,2.31,5.72,4.25,6.19,3.78,0,0-.19-3.06-.32-6.59,0-.71,0-1.43,0-2.13A20.12,20.12,0,0,1,1280,80ZM268.86,101.87c-2.14-1.55-5-2.63-7-4.23-1.06-.81-1.57-2.21-2.47-2.94-.64-.51-1.3-1-2-1.46l6.81-6c1.08,4.54,2.21,9.85,5.16,15ZM430.64,43.68q-.52-1-1.1-1.91A102.84,102.84,0,0,0,424.63,30H429a12.19,12.19,0,0,0,.12,2.8c.62,3.42,1.37,7.72,2.22,12.27C431.11,44.6,430.89,44.14,430.64,43.68ZM1195.27,75c-.85,1.2-1.71,2.34-2.59,3.46l.17-.3c1.7-2.88,3.19-5.89,4.64-9a30.88,30.88,0,0,1,4.47-4.58C1200.57,68.56,1197.59,71.75,1195.27,75Zm5.42-12.56q.73-1.52,1.5-3c1.46-.84,2.95-1.54,4.41-1A32.21,32.21,0,0,0,1200.69,62.48Zm3-5.93c.48-.87,1-1.73,1.51-2.59,1.92-.7,4.13-1.46,6.11-.86C1209.14,55.15,1206.47,55.93,1203.72,56.55Zm2.43-4.78c.1-.27.21-.53.31-.81q.45-1.3.84-2.64a27,27,0,0,1,2.82-.16C1210,50.5,1208,51.24,1206.16,51.77Zm5.41-6.18a30.35,30.35,0,0,1-3.72.61c0-.2.1-.39.15-.59a24,24,0,0,0,.38-2.73,22.45,22.45,0,0,0-2.77-12.9h2.65a4.53,4.53,0,0,0,.58,1.55l4,6a28.22,28.22,0,0,0,.61,7.42A12.85,12.85,0,0,1,1211.56,45.59Z"/>
</svg>
