<?xml version="1.0" encoding="UTF-8"?><!DOCTYPE svg PUBLIC "-//W3C//DTD SVG 1.1//EN" "http://www.w3.org/Graphics/SVG/1.1/DTD/svg11.dtd"><svg xmlns="http://www.w3.org/2000/svg"><symbol id="aktiv" viewBox="0 0 24 24"><title>aktiv</title><path d="M11.25 9.07a2.5 2.5 0 0 0-2.42 1 2.5 2.5 0 0 0-2.42-1 2.6 2.6 0 0 0-2.08 2.63 2.48 2.48 0 0 0 .73 1.77l3.41 3.41a.5.5 0 0 0 .35.15.49.49 0 0 0 .35-.15l3.41-3.41a2.52 2.52 0 0 0 .73-1.83 2.58 2.58 0 0 0-2.06-2.57zm.65 3.7l-3.07 3.05-3.06-3.06a1.54 1.54 0 0 1-.44-1.12 1.57 1.57 0 0 1 1.24-1.59h.26a1.48 1.48 0 0 1 1 .36 1.5 1.5 0 0 1 .53 1.14.5.5 0 1 0 1 0 1.5 1.5 0 0 1 1.5-1.5h.26a1.6 1.6 0 0 1 1.24 1.65 1.51 1.51 0 0 1-.47 1zM13.31 6a2.5 2.5 0 1 0-2.5-2.5 2.5 2.5 0 0 0 2.5 2.5zm0-4a1.5 1.5 0 1 1-1.5 1.5 1.5 1.5 0 0 1 1.5-1.5z"/><path d="M19.13 4.17a1.46 1.46 0 0 0-2 0L14.5 6.79a1.71 1.71 0 0 0-.35 0h-2.28a.5.5 0 0 0 0 1h2.28a.74.74 0 0 1 .29.06.5.5 0 0 0 .56-.14l2.83-2.83a.44.44 0 0 1 .6 0 .43.43 0 0 1 0 .6L15 8.86a.5.5 0 0 0-.15.35V22h-3.07l-.36-5a.49.49 0 0 0-.52-.46.5.5 0 0 0-.46.53l.39 5.5a.5.5 0 0 0 .5.46h4a.5.5 0 0 0 .46-.31.49.49 0 0 0 .17-.37V9.42l3.23-3.23a1.43 1.43 0 0 0 0-2z"/></symbol><symbol id="banana" viewBox="0 0 30 30"><path d="M29.677 4.045a.506.506 0 0 0-.552.137c-.203.231-.404.347-.599.347h-.002c-.287-.001-.562-.246-.641-.337a.5.5 0 0 0-.872.425c.004.019.364 1.885-.925 4.112-.342.048-.656.18-.917.409l-.155.136c-1.574 1.385-6.364 5.599-9.739 7.293-1.639.823-4.412 1.385-7.095 1.928-3.142.637-5.856 1.186-6.986 2.123C.995 20.772 0 21.584 0 22.469c0 .869.978 1.755 1.174 1.924.023.02.052.03.078.045.023.014.043.03.069.04.006.002.01.007.016.009 3.025 1.047 5.925 1.5 8.645 1.5 9.607 0 16.949-5.657 19.467-10.752.241-.487.372-.964.449-1.432a.49.49 0 0 0 .102-.289v-9a.502.502 0 0 0-.323-.469zM1.691 23.506C1.366 23.192 1 22.728 1 22.47c0-.137.113-.33.266-.522a.482.482 0 0 0 .235.066c.229 0 1.375.036 1.375.75-.001.593-.787.717-1.185.742zm26.861-8.714c-2.95 5.968-12.898 12.727-25.314 9.238.328-.245.534-.577.605-.971l.225.03a28.01 28.01 0 0 0 3.83.271c7.77 0 14.155-3.541 19.014-10.561a.5.5 0 1 0-.822-.57c-5.403 7.806-12.762 11.13-21.885 9.869-.204-.029-.365-.05-.504-.065-.244-.467-.741-.79-1.41-.933 1.23-.639 3.693-1.139 6.088-1.624 2.746-.556 5.587-1.132 7.344-2.014 3.491-1.752 8.185-5.881 9.952-7.436l.155-.136c.379-.332 1.088-.206 1.764.314 1.164.893 1.911 2.658.958 4.588zM29 10.229a4.442 4.442 0 0 0-.798-.82 3.563 3.563 0 0 0-1.044-.562c.701-1.36.885-2.575.904-3.388.137.042.286.068.446.07.141.005.307-.015.492-.076v4.776z"/></symbol><symbol id="donate" viewBox="0 0 24 24"><path d="M6.916 19.364a2.321 2.321 0 0 1-1.938-1.039 2.311 2.311 0 0 1-.391-1.408.492.492 0 0 1-.172-.194l-2.009-4.018a2.486 2.486 0 0 1 .092-2.404l2.076-3.46A2.513 2.513 0 0 1 5.84 5.786l7.346-2.755a.503.503 0 0 1 .399.021l6 3a.5.5 0 0 1 .25.609c-.037.107-.917 2.655-3.048 6.101-2.025 3.276-4.698 4.076-5.236 4.207L8.115 19.03a2.326 2.326 0 0 1-1.199.334zM8.328 8.979a.57.57 0 0 1 .347.131c.011.009 1.131.89 2.686.89a.5.5 0 0 1 .354.854c-.893.893-1.804 2.357-1.855 2.67-.001.276-.223.476-.499.476.01.011-.475.199-3.162 1.91a1.327 1.327 0 0 0-.392 1.86 1.327 1.327 0 0 0 1.792.404l3.504-2.102a.537.537 0 0 1 .16-.062c.026-.005 2.7-.582 4.672-3.772 1.586-2.565 2.469-4.646 2.799-5.491l-5.403-2.701-7.14 2.677a1.509 1.509 0 0 0-.76.633l-2.076 3.46a1.489 1.489 0 0 0-.055 1.442l1.712 3.425c.172-.243.392-.452.651-.617.398-.253.751-.476 1.065-.671-.139-.208-.292-.375-.377-.396a.49.49 0 0 1-.489-.499c0-.845-.831-1.625-.839-1.632A.501.501 0 0 1 5.361 11c.413-.047 2.333-1.132 2.509-1.561 0-.192.106-.336.28-.419a.4.4 0 0 1 .178-.041zm-1.499 4.14c.323.167.579.479.753.751.711-.428 1.117-.646 1.363-.756.215-.597.811-1.491 1.395-2.214a5.853 5.853 0 0 1-1.812-.689c-.519.605-1.542 1.199-2.307 1.527.252.353.518.835.608 1.381z"/><path d="M6.361 22a.5.5 0 0 1-.5-.5V19a.5.5 0 0 1 1 0v2.5a.5.5 0 0 1-.5.5zM20.36 7.383c-.233 0-.458-.054-.67-.16l-7.553-3.776a.5.5 0 0 1-.167-.76l2-2.5a.502.502 0 0 1 .587-.147l7 3a.5.5 0 0 1 .304.46v2.382c0 .412-.162.794-.457 1.078a1.515 1.515 0 0 1-1.044.423zm-7.222-4.554l7 3.5a.504.504 0 0 0 .573-.089.488.488 0 0 0 .15-.358V3.829l-6.347-2.72-1.376 1.72z"/><path d="M6.361 24c-1.93 0-3.5-1.57-3.5-3.5a3.49 3.49 0 0 1 2.172-3.236.5.5 0 0 1 .652.271c.033.08.073.158.123.233a1.36 1.36 0 0 0 1.792.405l.52-.311a.496.496 0 0 1 .594.06A3.505 3.505 0 0 1 9.862 20.5 3.505 3.505 0 0 1 6.361 24zm-1.339-5.61a2.488 2.488 0 0 0-1.161 2.109c0 1.378 1.122 2.5 2.5 2.5s2.5-1.122 2.5-2.5c0-.582-.2-1.129-.57-1.575l-.177.106c-1.011.607-2.412.31-3.092-.64z"/></symbol><symbol id="down" viewBox="0 0 24 24"><path d="M12 20.508a.504.504 0 0 1-.354-.146l-7-7.008A.5.5 0 1 1 5 12.5h3.5V5.008a.5.5 0 0 1 .5-.5h6a.5.5 0 0 1 .5.5V12.5H19a.5.5 0 0 1 .354.854l-7 7.008a.5.5 0 0 1-.354.146zM6.206 13.5L12 19.301l5.794-5.801H15a.5.5 0 0 1-.5-.5V5.508h-5V13a.5.5 0 0 1-.5.5H6.206z"/><path d="M12 23.5C5.659 23.5.5 18.341.5 12S5.659.5 12 .5 23.5 5.659 23.5 12 18.341 23.5 12 23.5zm0-22C6.21 1.5 1.5 6.21 1.5 12S6.21 22.5 12 22.5 22.5 17.79 22.5 12 17.79 1.5 12 1.5z"/></symbol><symbol id="hand" viewBox="0 0 24 24"><path d="M16.313 23.134H3.384c-.827 0-1.5-.673-1.5-1.5a2.82 2.82 0 0 1 2.409-2.778l4.03-.576L.78 10.737c-.428-.428-.665-.998-.665-1.604S.352 7.958.781 7.53a2.255 2.255 0 0 1 1.173-.624 2.27 2.27 0 0 1 .077-3.126 2.27 2.27 0 0 1 3.127-.076 2.269 2.269 0 0 1 3.83-1.174l.171.171a2.269 2.269 0 0 1 3.829-1.171l8.982 8.982c1.234 1.234 1.914 2.875 1.914 4.621s-.68 3.387-1.914 4.621l-1.768 1.768a5.465 5.465 0 0 1-3.889 1.612zM2.384 7.866a1.27 1.27 0 0 0-.896 2.164l8.25 8.25a.5.5 0 0 1-.282.849l-5.02.717a1.815 1.815 0 0 0-1.551 1.788.5.5 0 0 0 .5.5h12.929a4.47 4.47 0 0 0 3.182-1.318l1.768-1.768a5.5 5.5 0 0 0 1.621-3.914 5.5 5.5 0 0 0-1.621-3.914l-8.982-8.982c-.494-.494-1.299-.494-1.793 0s-.494 1.299 0 1.793l4.75 4.75a.498.498 0 0 1 0 .708.5.5 0 0 1-.707 0l-6.25-6.25c-.479-.479-1.313-.479-1.793 0a1.27 1.27 0 0 0 0 1.793l6.25 6.25a.498.498 0 0 1 0 .708.5.5 0 0 1-.707 0l-7.5-7.5c-.494-.494-1.299-.494-1.793 0s-.494 1.299 0 1.793l7.5 7.5a.498.498 0 0 1 0 .708.5.5 0 0 1-.707 0l-6.25-6.25a1.258 1.258 0 0 0-.898-.375z"/></symbol><symbol id="hands-monkey" viewBox="0 0 24 24"><title>hands-monkey</title><path d="M23.28 9.76A2.49 2.49 0 0 0 22 9.13l.21-.13a2.19 2.19 0 0 0 0-3.24 2.48 2.48 0 0 0-1.27-.63 2.19 2.19 0 0 0-.08-3.16 2.57 2.57 0 0 0-3.37-.08 2.24 2.24 0 0 0-.67-1.22 2.56 2.56 0 0 0-3.46 0L11.9 2a.5.5 0 0 0-.15-.33 5.81 5.81 0 0 0-4-1.55 5.81 5.81 0 0 0-4 1.55l-.54.51a3.13 3.13 0 0 0-1.6-.44A1.57 1.57 0 0 0 0 3.3v13.06a5.35 5.35 0 0 0 1.74 3.93l1.91 1.79a7.24 7.24 0 0 0 5 1.93 7.24 7.24 0 0 0 5-1.93L23.28 13a2.19 2.19 0 0 0 0-3.24zm-1.84-3.32a1.25 1.25 0 0 1 0 1.81l-3.23 3a1.5 1.5 0 0 0-.46-1L16.56 9.2l2.95-2.76a1.43 1.43 0 0 1 1.93 0zm-3.28-3.79a1.43 1.43 0 0 1 1.93 0 1.23 1.23 0 0 1 0 1.81l-4.29 4-1.93-1.79zm-4-1.26a1.43 1.43 0 0 1 1.93 0 1.22 1.22 0 0 1 0 1.81L13.11 6l-1.93-1.85zM3.85 3.11l.7-.65a4.75 4.75 0 0 1 6.41 0 .57.57 0 0 0 .35.14l-.89.83-.25-.23a.58.58 0 0 0-.79 0 .5.5 0 0 0 0 .74L17 11a.5.5 0 0 1 0 .74.57.57 0 0 1-.39.15.58.58 0 0 1-.39-.15L8.58 4.68a.58.58 0 0 0-.79 0 .5.5 0 0 0 0 .74l7.59 7.11 1 .94a.5.5 0 0 1 0 .74.57.57 0 0 1-.39.15.57.57 0 0 1-.39-.15L7 6.16a.58.58 0 0 0-.79 0 .5.5 0 0 0 0 .74l7.6 7.1a.5.5 0 0 1 0 .74.57.57 0 0 1-.39.15.57.57 0 0 1-.39-.15l-7.6-7.1a.58.58 0 0 0-.79 0 .5.5 0 0 0 0 .74l7.18 6.73a.5.5 0 0 1 0 .74.58.58 0 0 1-.79 0L3.85 9.11a4.06 4.06 0 0 1 0-6zm18.67 9.18l-9.68 9.07A6.14 6.14 0 0 1 8.62 23a6.14 6.14 0 0 1-4.22-1.65l-1.9-1.78a4.37 4.37 0 0 1-1.42-3.21V3.3a.52.52 0 0 1 .54-.5 2 2 0 0 1 .88.2 5 5 0 0 0 .56 6.84l7.17 6.72a1.76 1.76 0 0 0 2.37 0 1.54 1.54 0 0 0 .4-.66 1.78 1.78 0 0 0 .39 0 1.72 1.72 0 0 0 1.18-.46 1.54 1.54 0 0 0 .32-.46 1.72 1.72 0 0 0 1.08.38 1.72 1.72 0 0 0 1.18-.46 1.51 1.51 0 0 0 .49-1.11 1.43 1.43 0 0 0-.1-.53l3-2.83a1.43 1.43 0 0 1 1.93 0 1.23 1.23 0 0 1 .05 1.86z"/></symbol><symbol id="hands" viewBox="0 0 30 30"><title>hands</title><path d="M12.28 12.85a.47.47 0 0 0 .61-.06l-.46-.45a.24.24 0 0 0-.35 0 .24.24 0 0 0-.05.13.48.48 0 0 0 .09.26z"/><path d="M28.19 12.29a3 3 0 0 0-1.7-.8l.4-.4a2.72 2.72 0 0 0 0-3.9 3 3 0 0 0-1.7-.8l.1-.1a2.72 2.72 0 1 0-3.8-3.9l-.1.1a3.15 3.15 0 0 0-.9-1.7 2.73 2.73 0 0 0-1.9-.8 2.34 2.34 0 0 0-1.8.8l-4.93 4.93c0 .5.21.61.61.5H18a.73.73 0 0 1-.61.6l-3.23.45a.69.69 0 0 0-.65.43.72.72 0 0 0 .14.83l5.25 5.25a.33.33 0 0 1 .1.22.51.51 0 0 1-.1.3.44.44 0 0 1-.25.1.46.46 0 0 1-.3-.11l-4-3.84a.75.75 0 1 0-1 1.07l4.84 4.64a.33.33 0 0 1 .1.25.33.33 0 0 1-.1.25.38.38 0 0 1-.55 0L12.8 12a.75.75 0 1 0-1.06 1l4 3.95a.33.33 0 0 1 .1.25c0 .16 0 .18-.1.25a.38.38 0 0 1-.27.12.38.38 0 0 1-.26-.11l-3.91-4.04a.76.76 0 0 0-1.06 0 .74.74 0 0 0 0 1l3 3.11a.38.38 0 0 1 .1.3.44.44 0 0 1-.1.25.38.38 0 0 1-.55 0L6.9 12.61c-.23-.23-.25-.38-.07-.84A3.78 3.78 0 0 0 7 10.59L6.19 5a3.45 3.45 0 0 0-3.4-3A1.79 1.79 0 0 0 1 3.79v16.7a6.57 6.57 0 0 0 2 4.8l2.2 2.3a9.8 9.8 0 0 0 6.3 2.4 8 8 0 0 0 5.8-2.4l10.9-11.4a2.72 2.72 0 0 0-.01-3.9zM13.66 5.22l3.73-3.73a1.66 1.66 0 0 1 1.2-.5 2.11 2.11 0 0 1 1.3.5 1.85 1.85 0 0 1 .5 1.2 1.9 1.9 0 0 1-.5 1.3L18.6 5.34a.93.93 0 0 0-.46-.13zm3.92 2.59A1.73 1.73 0 0 0 19 6.39l3.17-3.3a1.69 1.69 0 0 1 2.4 0 1.75 1.75 0 0 1 0 2.5l-6.14 6.27-3.65-3.67zm9.91 7.68L16.49 27a7.11 7.11 0 0 1-5.1 2.1 8.16 8.16 0 0 1-5.5-2.1l-2.2-2.3A6.07 6.07 0 0 1 2 20.49V3.79a.74.74 0 0 1 .8-.8 2.46 2.46 0 0 1 2.4 2.1l.8 5.85a3.5 3.5 0 0 1-.12.56 1.61 1.61 0 0 0 .33 1.83l5.74 5.49a1.37 1.37 0 0 0 2 0 1.43 1.43 0 0 0 .39-.86l.2.21a1.38 1.38 0 0 0 1 .41 1.31 1.31 0 0 0 .92-.36 1.12 1.12 0 0 0 .45-.89 1.37 1.37 0 0 0 2 0 1.34 1.34 0 0 0 0-1.91 1.47 1.47 0 0 0 .9-.45A1.56 1.56 0 0 0 20 14a1.32 1.32 0 0 0-.4-1l-.49-.49 4.63-4.69a1.66 1.66 0 0 1 1.2-.5 1.35 1.35 0 0 1 1.2.5 1.75 1.75 0 0 1 0 2.5l-8.1 7.8a.49.49 0 0 0 .7.7L25 13a1.79 1.79 0 0 1 1.3-.5 1.85 1.85 0 0 1 1.2.5 1.75 1.75 0 0 1-.01 2.49z"/><path d="M15.19 15.19a.48.48 0 0 0-.14.4l.45.45a.48.48 0 0 0 .39-.14l.1-.1-.71-.69zM16.47 13.88l.72.69.36-.37-.72-.69-.36.37zM13.64 10.82a.24.24 0 0 0 0 .35l.42.4.34-.36-.4-.39a.24.24 0 0 0-.36 0z"/></symbol><symbol id="heartflag"><path d="M26.137 1.019C25.991.977 22.519 0 19 0c-1.794 0-2.82.259-3.812.51-.998.251-1.94.49-3.688.49C8.014 1 4.162.026 4.124.016c-.019-.005-.037.001-.056-.002C4.045.011 4.024 0 4 0c-.02 0-.036.009-.055.012a.432.432 0 0 0-.204.071c-.015.01-.034.011-.048.022-.008.007-.011.016-.018.023a.48.48 0 0 0-.092.113c-.011.018-.026.033-.035.052A.499.499 0 0 0 3.5.5v29a.5.5 0 0 0 1 0V16.132c1.252.282 4.192.868 7 .868 1.872 0 2.92-.265 3.934-.521C16.409 16.232 17.33 16 19 16c3.311 0 6.719 1.915 6.753 1.935a.493.493 0 0 0 .498-.004.5.5 0 0 0 .249-.432v-16a.5.5 0 0 0-.363-.48zM25.5 16.68C24.256 16.081 21.645 15 19 15c-1.794 0-2.819.259-3.812.511-.998.252-1.94.49-3.688.49-2.851 0-5.945-.652-7-.895V1.133c1.257.282 4.198.867 7 .867 1.872 0 2.92-.265 3.934-.521C16.409 1.232 17.33 1 19 1c2.736 0 5.524.639 6.5.885V16.68zM15 4.646C14.463 3.969 13.519 3 12.5 3c-1.767 0-3 1.233-3 3 0 .564.161 1.687.609 2.312l3.984 4.979.058.088c.151.233.401.621.851.621.451 0 .698-.388.845-.62l4.043-5.068.017-.021c.432-.603.593-1.726.593-2.291 0-1.767-1.233-3-3-3-1.019 0-1.963.969-2.5 1.646zM19.5 6c0 .533-.171 1.367-.4 1.7l-4.006 5.009-.09.135-.004.006-.008-.013-4.085-5.128C10.674 7.385 10.5 6.539 10.5 6c0-1.233.767-2 2-2 .615 0 1.512.891 2.08 1.771.184.285.656.285.84 0C15.988 4.892 16.885 4 17.5 4c1.233 0 2 .768 2 2z"/></symbol><symbol id="menu" viewBox="0 0 30 30"><title>menu</title><path d="M19.64 6.47H4.36a1 1 0 0 1 0-2h15.28a1 1 0 0 1 0 2zM23.64 22.52H4.36a1 1 0 0 1 0-2h19.28a1 1 0 0 1 0 2zM25.64 14.49H4.36a1 1 0 0 1 0-2h21.28a1 1 0 0 1 0 2z"/></symbol><symbol id="search" viewBox="0 0 30 30"><title>search</title><path d="M25.75 24.82L19.91 19a9.54 9.54 0 1 0-1.41 1.41l5.85 5.84a1 1 0 0 0 1.41-1.41zM5 13a7.52 7.52 0 1 1 7.52 7.52A7.53 7.53 0 0 1 5 13z"/></symbol><symbol id="shoe" viewBox="0 0 30 30"><path d="M23.507 15.813c-2.78-.101-5.985-.672-6.999-1.248-.809-.46-1.47-1.328-1.995-2.331l.672-.269a.5.5 0 0 0 .278-.65.498.498 0 0 0-.649-.279l-.726.29c-.16-.381-.303-.768-.429-1.151l.526-.21a.5.5 0 0 0-.371-.929l-.441.177a16.575 16.575 0 0 1-.379-1.787.502.502 0 0 0-.605-.414c-5.628 1.268-9.814.99-9.854.989a.486.486 0 0 0-.37.128.496.496 0 0 0-.165.356c-.022.776-.436 2.436-.874 4.192C.572 14.896 0 17.191 0 18.5v4a.5.5 0 0 0 .5.5h29a.5.5 0 0 0 .5-.5c0-3.619-2.852-6.556-6.493-6.687zM1 18.5c0-1.187.582-3.521 1.096-5.581.391-1.572.739-2.965.86-3.898 1.236.038 4.673.031 9.142-.921.07.36.184.882.349 1.483l-1.133.453a.5.5 0 1 0 .371.929l1.053-.421c.124.375.266.762.428 1.151l-.851.341a.5.5 0 0 0 .37.929l.902-.361c.594 1.164 1.383 2.236 2.427 2.83 1.304.741 4.815 1.283 7.458 1.379A5.72 5.72 0 0 1 27.781 19H1v-.5zM1 22v-2h27.424c.3.613.493 1.287.555 2H1zM6 9c-1.654 0-3 1.346-3 3s1.346 3 3 3 3-1.346 3-3-1.346-3-3-3zm0 5c-1.103 0-2-.897-2-2s.897-2 2-2 2 .897 2 2-.897 2-2 2z"/></symbol><symbol id="shop" viewBox="-239 289 24 24"><path d="M-219.5 292h-3.5v-.5c0-1.4-1.1-2.5-2.5-2.5h-3c-1.4 0-2.5 1.1-2.5 2.5v.5h-3.5c-.3 0-.5.2-.5.5v19c0 .8.7 1.5 1.5 1.5h13c.8 0 1.5-.7 1.5-1.5v-19c0-.3-.2-.5-.5-.5zm-10.5-.5c0-.8.7-1.5 1.5-1.5h3c.8 0 1.5.7 1.5 1.5v.5h-6v-.5zm10 20c0 .3-.2.5-.5.5h-13c-.3 0-.5-.2-.5-.5V309h14v2.5zm0-3.5h-14v-15h3v3.5c0 .3.2.5.5.5s.5-.2.5-.5V293h6v3.5c0 .3.2.5.5.5s.5-.2.5-.5V293h3v15z"/></symbol><symbol id="signup" viewBox="0 0 24 24"><path d="M6.5 8h9a.5.5 0 0 0 0-1h-9a.5.5 0 0 0 0 1zM3.5 18c-.827 0-1.5.673-1.5 1.5S2.673 21 3.5 21 5 20.327 5 19.5 4.327 18 3.5 18zm0 2a.5.5 0 1 1 0-1 .5.5 0 0 1 0 1zM3.5 14c-.827 0-1.5.673-1.5 1.5S2.673 17 3.5 17 5 16.327 5 15.5 4.327 14 3.5 14zm0 2a.5.5 0 1 1 0-1 .5.5 0 0 1 0 1zM3.5 10c-.827 0-1.5.673-1.5 1.5S2.673 13 3.5 13 5 12.327 5 11.5 4.327 10 3.5 10zm0 2a.5.5 0 1 1 0-1 .5.5 0 0 1 0 1zM3.5 6C2.673 6 2 6.673 2 7.5S2.673 9 3.5 9 5 8.327 5 7.5 4.327 6 3.5 6zm0 2a.5.5 0 1 1 0-1 .5.5 0 0 1 0 1z"/><path d="M24 7.62a2.624 2.624 0 0 0-4.475-1.852l-1.379 1.379-.146.146V3.5c0-.827-.673-1.5-1.5-1.5h-2.592c-.207-.581-.757-1-1.408-1h-1.774C10.373.39 9.718 0 9 0S7.627.39 7.274 1H5.5c-.651 0-1.201.419-1.408 1H1.5C.673 2 0 2.673 0 3.5v19c0 .827.673 1.5 1.5 1.5h15c.827 0 1.5-.673 1.5-1.5v-7.794l3.85-3.85.003-.002.002-.003 1.377-1.377A2.6 2.6 0 0 0 24 7.62zm-10.235 9.907a4.021 4.021 0 0 0-.913-1.381 4.012 4.012 0 0 0-1.379-.911L18.5 8.208l2.292 2.292-7.027 7.027zm-2.893-1.45c.323.094.801.302 1.274.776.474.474.683.953.777 1.275l-2.736.685.685-2.736zM5.5 2h2.092c.211 0 .4-.134.471-.333A1 1 0 0 1 9 1a1 1 0 0 1 .937.667.5.5 0 0 0 .471.333H12.5a.5.5 0 0 1 .5.5V3H5v-.5a.5.5 0 0 1 .5-.5zM17 22.5a.5.5 0 0 1-.5.5h-15a.5.5 0 0 1-.5-.5v-19a.5.5 0 0 1 .5-.5H4v.5a.5.5 0 0 0 .5.5h9a.5.5 0 0 0 .5-.5V3h2.5a.5.5 0 0 1 .5.5v4.793l-2.77 2.77A.489.489 0 0 0 14 11H6.5a.5.5 0 0 0 0 1h6.793l-3 3H6.5a.5.5 0 0 0 0 1h3.36l-.75 3H6.5a.5.5 0 0 0 0 1h3a.452.452 0 0 0 .121-.016l4-1c.012-.003.02-.014.032-.018a.503.503 0 0 0 .169-.095c.009-.008.023-.009.032-.018L17 15.706V22.5zm5.525-13.733l-1.026 1.026-2.292-2.292 1.026-1.027a1.623 1.623 0 0 1 2.292 2.293z"/></symbol></svg>