<?xml version="1.0" encoding="UTF-8"?><!DOCTYPE svg PUBLIC "-//W3C//DTD SVG 1.1//EN" "http://www.w3.org/Graphics/SVG/1.1/DTD/svg11.dtd"><svg xmlns="http://www.w3.org/2000/svg"><symbol id="banana" viewBox="0 0 30 30"><path d="M29.677 4.045a.506.506 0 0 0-.552.137c-.203.231-.404.347-.599.347h-.002c-.287-.001-.562-.246-.641-.337a.5.5 0 0 0-.872.425c.004.019.364 1.885-.925 4.112-.342.048-.656.18-.917.409l-.155.136c-1.574 1.385-6.364 5.599-9.739 7.293-1.639.823-4.412 1.385-7.095 1.928-3.142.637-5.856 1.186-6.986 2.123C.995 20.772 0 21.584 0 22.469c0 .869.978 1.755 1.174 1.924.023.02.052.03.078.045.023.014.043.03.069.04.006.002.01.007.016.009 3.025 1.047 5.925 1.5 8.645 1.5 9.607 0 16.949-5.657 19.467-10.752.241-.487.372-.964.449-1.432a.49.49 0 0 0 .102-.289v-9a.502.502 0 0 0-.323-.469zM1.691 23.506C1.366 23.192 1 22.728 1 22.47c0-.137.113-.33.266-.522a.482.482 0 0 0 .235.066c.229 0 1.375.036 1.375.75-.001.593-.787.717-1.185.742zm26.861-8.714c-2.95 5.968-12.898 12.727-25.314 9.238.328-.245.534-.577.605-.971l.225.03a28.01 28.01 0 0 0 3.83.271c7.77 0 14.155-3.541 19.014-10.561a.5.5 0 1 0-.822-.57c-5.403 7.806-12.762 11.13-21.885 9.869-.204-.029-.365-.05-.504-.065-.244-.467-.741-.79-1.41-.933 1.23-.639 3.693-1.139 6.088-1.624 2.746-.556 5.587-1.132 7.344-2.014 3.491-1.752 8.185-5.881 9.952-7.436l.155-.136c.379-.332 1.088-.206 1.764.314 1.164.893 1.911 2.658.958 4.588zM29 10.229a4.442 4.442 0 0 0-.798-.82 3.563 3.563 0 0 0-1.044-.562c.701-1.36.885-2.575.904-3.388.137.042.286.068.446.07.141.005.307-.015.492-.076v4.776z"/></symbol><symbol id="donate" viewBox="0 0 24 24"><path d="M6.916 19.364a2.321 2.321 0 0 1-1.938-1.039 2.311 2.311 0 0 1-.391-1.408.492.492 0 0 1-.172-.194l-2.009-4.018a2.486 2.486 0 0 1 .092-2.404l2.076-3.46A2.513 2.513 0 0 1 5.84 5.786l7.346-2.755a.503.503 0 0 1 .399.021l6 3a.5.5 0 0 1 .25.609c-.037.107-.917 2.655-3.048 6.101-2.025 3.276-4.698 4.076-5.236 4.207L8.115 19.03a2.326 2.326 0 0 1-1.199.334zM8.328 8.979a.57.57 0 0 1 .347.131c.011.009 1.131.89 2.686.89a.5.5 0 0 1 .354.854c-.893.893-1.804 2.357-1.855 2.67-.001.276-.223.476-.499.476.01.011-.475.199-3.162 1.91a1.327 1.327 0 0 0-.392 1.86 1.327 1.327 0 0 0 1.792.404l3.504-2.102a.537.537 0 0 1 .16-.062c.026-.005 2.7-.582 4.672-3.772 1.586-2.565 2.469-4.646 2.799-5.491l-5.403-2.701-7.14 2.677a1.509 1.509 0 0 0-.76.633l-2.076 3.46a1.489 1.489 0 0 0-.055 1.442l1.712 3.425c.172-.243.392-.452.651-.617.398-.253.751-.476 1.065-.671-.139-.208-.292-.375-.377-.396a.49.49 0 0 1-.489-.499c0-.845-.831-1.625-.839-1.632A.501.501 0 0 1 5.361 11c.413-.047 2.333-1.132 2.509-1.561 0-.192.106-.336.28-.419a.4.4 0 0 1 .178-.041zm-1.499 4.14c.323.167.579.479.753.751.711-.428 1.117-.646 1.363-.756.215-.597.811-1.491 1.395-2.214a5.853 5.853 0 0 1-1.812-.689c-.519.605-1.542 1.199-2.307 1.527.252.353.518.835.608 1.381z"/><path d="M6.361 22a.5.5 0 0 1-.5-.5V19a.5.5 0 0 1 1 0v2.5a.5.5 0 0 1-.5.5zM20.36 7.383c-.233 0-.458-.054-.67-.16l-7.553-3.776a.5.5 0 0 1-.167-.76l2-2.5a.502.502 0 0 1 .587-.147l7 3a.5.5 0 0 1 .304.46v2.382c0 .412-.162.794-.457 1.078a1.515 1.515 0 0 1-1.044.423zm-7.222-4.554l7 3.5a.504.504 0 0 0 .573-.089.488.488 0 0 0 .15-.358V3.829l-6.347-2.72-1.376 1.72z"/><path d="M6.361 24c-1.93 0-3.5-1.57-3.5-3.5a3.49 3.49 0 0 1 2.172-3.236.5.5 0 0 1 .652.271c.033.08.073.158.123.233a1.36 1.36 0 0 0 1.792.405l.52-.311a.496.496 0 0 1 .594.06A3.505 3.505 0 0 1 9.862 20.5 3.505 3.505 0 0 1 6.361 24zm-1.339-5.61a2.488 2.488 0 0 0-1.161 2.109c0 1.378 1.122 2.5 2.5 2.5s2.5-1.122 2.5-2.5c0-.582-.2-1.129-.57-1.575l-.177.106c-1.011.607-2.412.31-3.092-.64z"/></symbol><symbol id="shop" viewBox="-239 289 24 24"><path d="M-219.5 292h-3.5v-.5c0-1.4-1.1-2.5-2.5-2.5h-3c-1.4 0-2.5 1.1-2.5 2.5v.5h-3.5c-.3 0-.5.2-.5.5v19c0 .8.7 1.5 1.5 1.5h13c.8 0 1.5-.7 1.5-1.5v-19c0-.3-.2-.5-.5-.5zm-10.5-.5c0-.8.7-1.5 1.5-1.5h3c.8 0 1.5.7 1.5 1.5v.5h-6v-.5zm10 20c0 .3-.2.5-.5.5h-13c-.3 0-.5-.2-.5-.5V309h14v2.5zm0-3.5h-14v-15h3v3.5c0 .3.2.5.5.5s.5-.2.5-.5V293h6v3.5c0 .3.2.5.5.5s.5-.2.5-.5V293h3v15z"/></symbol></svg>