<svg id="Layer_1" data-name="Layer 1" xmlns="http://www.w3.org/2000/svg" viewBox="0 0 1641.55 1638">
  <defs>
    <style>
      .cls-1 {
        fill: #e7d78f;
      }

      .cls-2 {
        fill: #a9d381;
      }

      .cls-3, .cls-9 {
        fill: #c7eafb;
      }

      .cls-10, .cls-3, .cls-6, .cls-7, .cls-8, .cls-9 {
        stroke: #1079ab;
      }

      .cls-10, .cls-11, .cls-12, .cls-3, .cls-6, .cls-8, .cls-9 {
        stroke-linejoin: round;
      }

      .cls-3 {
        stroke-width: 0.37px;
      }

      .cls-4, .cls-5 {
        fill: #f6d3aa;
        stroke: #a08171;
      }

      .cls-4, .cls-5, .cls-7 {
        stroke-linecap: square;
        stroke-linejoin: bevel;
      }

      .cls-4 {
        stroke-width: 8.1px;
      }

      .cls-10, .cls-5, .cls-6, .cls-7, .cls-9 {
        stroke-width: 0.99px;
      }

      .cls-6 {
        fill: #e0e1e0;
      }

      .cls-7, .cls-8 {
        fill: #fdfcea;
      }

      .cls-8 {
        stroke-width: 1.58px;
      }

      .cls-10, .cls-11, .cls-12 {
        fill: none;
      }

      .cls-11, .cls-12 {
        stroke: #656565;
      }

      .cls-11 {
        stroke-width: 3.12px;
      }

      .cls-12 {
        stroke-width: 1.13px;
      }

      .cls-13, .cls-14 {
        font-size: 28px;
        fill: #3a3436;
      }

      .cls-13 {
        font-family: SFUIDisplay-Regular, SF UI Display;
      }

      .cls-14 {
        font-family: SFUIDisplay-Bold, SF UI Display;
        font-weight: 700;
      }

      .cls-15 {
        letter-spacing: -0.01em;
      }

      .cls-16 {
        letter-spacing: -0.01em;
      }

      .cls-17 {
        letter-spacing: -0.02em;
      }

      .cls-18 {
        fill: #f8be1a;
        stroke: #000;
        stroke-miterlimit: 10;
      }

      .cls-19 {
        letter-spacing: -0.1em;
      }

      .cls-20 {
        letter-spacing: -0.02em;
      }

      .cls-21 {
        letter-spacing: -0.06em;
      }

      .cls-22 {
        letter-spacing: -0.24em;
      }

      .cls-23 {
        font-size: 40px;
        fill: #5f4f55;
        font-family: SFUIDisplay-Light, SF UI Display;
      }

      .cls-24 {
        letter-spacing: 0em;
      }

      .cls-25 {
        letter-spacing: 0.17em;
      }

      .cls-26 {
        letter-spacing: -0.1em;
      }

      .cls-27 {
        letter-spacing: -0.05em;
      }

      .cls-28 {
        letter-spacing: -0.04em;
      }

      .cls-29 {
        letter-spacing: -0.07em;
      }

      .cls-30 {
        fill: #56a145;
      }
    </style>
  </defs>
  <title>east_kalimantan</title>
  <g>
    <g>
      <path id="path514" class="cls-1" d="M403.59-1.52,404.72,9l-3.05.61-6.8,9.4-8.33,4.48L397.18,29l4.54-.82,3.63,4.3L401.09,37l-.55,9.18-11.1,7.87-1.56,5.64,6,2.44-1.77,2.62,3.66,8.6-2.68,1,.18,3.26L390,81l-3,.49L387,86.51l4.51,1.71,2.78,5.06,5.43-.55L404.53,86l7.72-.67,4.85,8.36,5.25,2.41,3.26,9.24,4.18,2.07,4-1.77-.12,5.19-2.38,1.31,1.53,3.75L420,126.14l-4.45-3.39-13.3,2-10.52,10.1L389,139.53l.4,6-13.82-.15.06,5.58-4.12-1.62-3.72,8-5,.52-3.23,4.09-7-5.19-3.93.61-3.81,14.24,5.46,8-3.87,2.78-4.94-.12-5.73,7.29L322.14,187l-12.84,5.46-3.05-5.49-5.09,4.42.82,3.72-3.6,3.81-.76,6.77-13.48,2.59-2,12.93,1.77,4.33,14.89-4,8.6,4.7-.27,6.56-5.7,5.37,3.45,7.87-5.43,1.22,4.61,9.88,14.67-5.7,8.63,6.07-4.27,2.84-.73,7.23-5.73,4.91-.37,3,.76,5.46,8.6,8.51-7.78,5.61-10.68.76-.34,3.78-7,9.12L293,308.3l-7-5.64-8.63,3.78,2.81,7.38-9.79,6.74,6.13,6.74-2.84,7.29,4.09,13.09-2.56,2.75-.46,20.13L270.2,372l-3.72,6.62-7.6,3.36-1,2.84-12.2,4.3-3.08,12.66,4.82,4.67-3.11,4.64.43,3.39L241,416.71,238.5,427l-5.92,5.7-2-2.87-6.22-.55-7.38-7.14-11.56-3.84-19.71-14-6.1,1.86.58,4.42L178,413.08l-13.63,2.56-7.47,3.6-2.38,4.3-17.81,2.62-4.51,9.3-16.53,6-5.92,5.12c226.9-39.1,154.06,214.76,486.13,11.16C750.3,363,977,118.81,1268.48,181.13l-.58-2.41-3.26.82,2.81-6.44-2.53-4.42-2.5,3.39-3.26-12.57L1253.2,153l-2,.67L1251,158l-5,.85-2.5-6.89,1.8-2.5-6.77-7.23,1-5.4-7.29-1.74-5.7-4.51L1206.43,106l-23.91-23.18-5.06-12L1178.8,59l-2.75-14.89-11.47.49-.3-3.75-6-4.06-31.08-6.34-8.82-10.16,2-1.1,6.19,4,6.71.34,7-8.11-3.26-2.23-4.82,2.38-11.26-2.84L1118,4l-7.93.95-3.66-1.56-.49-4.91h-2.38l-4.7.37-.55-.37H403.59Z"/>
      <path id="path48" class="cls-1" d="M333,618.28l-1,6.38-5.43,2.23-6.47,7.29L320,639l5,4.91-1.43,1.83-9.09-4.67-.73-4.27-5.86-6.44L295,636.52l-5-3.2L276,644.08,270.62,643l3.23-4.7-1.74-1-6.59,5.73-6.25,1.31-2.2,6.5-8.51,7.56-1.43,4.64-3.39-1.86-4.67,6.07-14.49-1.19-1.4,4.73,2,5.06-6.71,9.39-7.9-2.35-10,.95-1.43,3.23L191,692.19l1.89,10.68-6.56,2.81-9.46-3.39-7.23-7.14-10.74-3-26.69,3.39-8.88-3.32-2.75-9.09-11-4.55,7.14-9.94-5.89-14.28-12.32-8-13.48,1.8-5.28,5-9.21,2-2.9,4.58-7.9-4.48-3.51,3-16.87.34-5.58,4.39-2.62-5.64L20.4,655.7l-9.21,7.08L8.33,673.21,0,674c-.05,317.76-.47,749.13-.36,968l299.3-.06,1.28-30.73,11.65-9.7,8.57-12.72,1.16-4.15-2.1-7.35,3.14-4.21,8.6-2.56,6.71,4.94,13.18-3,4.3-6.31,9.15-5,5-16.9,59.73-44.23,16.75-3.9,3-2.78.24-7.47,6.59-9.15.76-13,7.41-8.05,1.59-14.92,5.49-5.28,9.09,3,8.33-7.47-1.8-3,1.71-4.79-4.61-4.21,2.23-3.72-3.72-3.72-.4-6.92,2.47-4.27-3.51-2.23-20.32-1.62-6.1-15,18.27-68.85,11-29.34,13.3-7.9,10.34-2.5,6.25-11.29,9.94-1.8,32.61-17.94L569.1,1243l11.77-6.31.37-10.31,4.79-14.92,7.35-8.6,13.85-9.64.52-3.6-13.51-12.38-9.67,6.74-3.29-.27L577.76,1171l-5.7-2.1-8.17-8.21-6.74.58-4.61-10.4.58-6.5-27.42-19.74L516.24,1110l-9.27-8.82-32.7-9.61-6.89-20.77.43-14.67-4.3-34.1-8.72-7.56L449.28,999,431.5,982.39l4.18-5.55L436,965.4l-6.41-3.23L426.4,939l7.29-1.92-.06-7.29-4.12-8.17,9-15-.79-10.77,12.54-10.43,3.05-5.67L448.52,868l-.37-7.08L431,867.52l-4.55,4.79-9.88,1.22-11.38,7.9-2,9.73-19.67,4.7-11.23,11.07-15-1.43-1.4-3.84-10.68,4.91-5-.21-.12-7.41-3.84-8.75,1.31-10.13-7.93-18.76.58-6.68-2.9-9.3,1.53-5.7-6.28-5.49-4.36.67-6.89-6.53-8.17,1.86-4.21-5.19-.18-10.07,5.55-10.46-3-5.06,7.47-6,1.65-8.08,8.51-2.65,3.48-10.71,3.93-2.14.49-6L331,759.6l12.2-5.67L346,755l.06,4.06,7-3.54,5.22,1.65,7.32-2.07,8.17,7.66,1.46-4.48,9.46-5.25,13.67-14.61,1-13.57-11.65-11.1-4.36-10.52-11.77-14.79L363,671.69l-9.21-39.14Z"/>
      <path id="path54" class="cls-2" d="M1336,223.05l1,3-2.2-2,1.23-1"/>
      <path id="path108" class="cls-1" d="M580.87,1236.67,569.1,1243l-16.38.43-29,16.38-9.94,1.8-6.25,11.29-10.31,2.5-13.33,7.9-11,29.34-18.27,68.85,6.1,15,20.32,1.62,3.51,2.23-2.47,4.27.4,6.92,3.72,3.72L484,1419l4.58,4.21-1.71,4.79,1.8,3-8.33,7.47-9.09-3-5.49,5.28-1.59,14.92-7.41,8.05-.76,13-6.59,9.15-.24,7.47-3,2.78-16.75,3.9-59.73,44.23-5,16.9-9.15,5-4.3,6.31-13.18,3-6.71-4.94-8.6,2.56-3.14,4.21,2.1,7.35-1.16,4.15-8.57,12.72-11.65,9.7L299,1641l460.74-.16a48,48,0,0,1,.26-7.29c3.08-6.12,3.6-8.24,4.94-11l9.91-15-6.8,2.1-4-5.43-5.61-1.22-.61-4.06-9.52,9.3-.7-8.45-3.26-5.28,7.6-.15,4.51-4.64,13.51,3,7.38-8.51,15.07,3.57,1.62,17.36,9.3-2.71,5.49-7.32-2.26-6,9-29-35-13.7-22.51-4-33.52,1.43L711.12,1536l-53.23-1.53-15.31-11.1-1.28,8-7.6,1.46-4.7,5.83-6.5-1.8-2.2,12L616,1548l-6.25,6-4.88-3-3.39-8.36,1.16-5.22-3.45-4.67,5.89-6.8-5.43-2.23-4.12-8.48,1.59-5.77-6.62-8-1.56-5.95,2.68-6.47.4-20.89,5.95-3.57,1.83-7.6-8.66-4.48-15.65,1.92L567,1448l6.8-8.24-3.66-4.61-5-1.56,7.2-15,2.17-14-.18-7.53-2.75-4.24,1.86-4.76-.49-13-7.6-11.16.09-5.34-4.21.24-5.7-7.32,2.71-14.12-2.38-5.7-5.25.67L544.24,1322l2.56-16.87-7.23-4-4.18,3.29-5-6.65-8.51,5.95-4.64-3.6,1.92-11.93,7.72-2,6-11.9,7.69-4.79,9.09-11.56,4.54-.76,3.45,2.71-6,8,5,6.44,10.77-8.45,4.15-10.37,6.44-4.91.27-7.72h0Z"/>
      <path id="path114" class="cls-2" d="M1371,440.51l1.59,2.8-2.46,2.88-1.88-4.15,2.74-1.53"/>
      <path id="path116" class="cls-2" d="M1377.5,421.09l3.85,7.34,2.62-2.28-1,2.34,3.39.1-3.63,1.61,3,1.89-.54,3.52,4.9,1.67,1,4.22,4.07,3-8,1.68-6.33-3.41-4.44-9.1,4.85-2.47-2.1-2.66-2.85.37,2.06-2.08-1.07-2.18-2.36.87-.85-3.35,3.34-1.08"/>
      <path id="path118" class="cls-2" d="M1395.3,216.76l2.29.42,7.29,12.93-7-6-10,.35,2.55-6.76,4.84-.92"/>
      <path id="path120" class="cls-2" d="M1187.2,207.91l12.5,10.31,23.85,6,3.62,4.29-14,6.73-2.44-8.51-9.87-5.85-10.72,8.72-5.42-1-3.29-18.13,5.74-2.54"/>
      <path id="path122" class="cls-2" d="M1262.43,166.4l-.25,2.13-1.5-3.63,1.75,1.49"/>
      <path id="path196" class="cls-2" d="M1245.27,587.92l2.26,4.18-3.49-2.74,1.23-1.44"/>
      <path id="path198" class="cls-2" d="M1209.55,529.32l7.88,7.72-5.72-.55-2.17-7.18"/>
      <path id="path200" class="cls-2" d="M1395.4,441.24l3.34,1.34-2.8,1.3-.54-2.65"/>
      <path id="path212" class="cls-3" d="M408.14,1575.64l-1.44,2.1-.37-2.89,1.81.8"/>
      <path id="path232" class="cls-4" d="M923,1193.92l-3.47-.66,1.16-1.38-2.1,1.07.46-3.47,3.94,4.44"/>
      <path id="path234" class="cls-4" d="M961.38,1158.09l-2.87.33,2.28-.68-1.72-2.18,2.31,2.52"/>
      <path id="path236" class="cls-4" d="M949,1148.43l-1.73.76-1-3.6,6.13-1.53.41,3.35-2.1-1.78-1.69,2.79"/>
      <path id="path274" class="cls-5" d="M873.17,802.22l-4.65-5.81,4,2,.61,3.85"/>
      <path id="path280" class="cls-5" d="M895.05,755.36l-3.91,2.54-.29-5.37-5.86-.63,7.91-4.32,3.22,2.92-3.1,5.23,2-.36"/>
      <path id="path320" class="cls-1" d="M94.92,420.71l-5.31.27-24,6.44-6.28-1.68-7.17,2.81L46,436.45l-4.79-.52L30.5,443.28l-8,.31L21.32,446l-6.83,2.1-2,2.14,4.42,3.11.18,5.37L9.21,469.54l-4.36.37L.58,474.64C-.13,498.24-4.24,685.42.3,685l1.16-7.14,6.86-4.67,3.26-11,8.88-6.13-2.2-5.31,2.29-6.8,9.12-2.1,5.89-7.56L33.8,620.08l10.16-11,.55-5.52L29.62,589.05l1.62-10.31,8.14-7.69,3.05-9.55-.82-6.19-6.8-4.42.58-8.48,3.39-2.71,10.49-.49,5.06-15.13,5.95-3.72,2-5,4.58-1.13L70,516.88l5.22-2.44L80,518.77,90,510.2,95.44,514l5.19-1.68,6.77-13.06L103.34,492l4.61-8.85,5.61-3.66L108,471.8l3.32-5.92-1.59-19.31,5.92-5.12,12.57-4.3-5.37-5.25-9.27-3.69-5-7.35-10.16,3.08Z"/>
      <path id="path398" class="cls-2" d="M1243.84,632.81l2.43,5.89-3.07,3.54-4.2-5.76,4.83-3.67"/>
      <path id="path400" class="cls-2" d="M1240.38,577.35l1.84,1.2.3,7.21-1.86,1.13-3.27-7.39,1.81-3.72,1.18,1.57"/>
      <path id="path402" class="cls-2" d="M1239.46,559.94l1.94.68.6,7.44-2.94-2,.4-6.09"/>
      <path id="path404" class="cls-2" d="M1223.33,546.77l-3.75-2.4,2.11-1,1.64,3.44"/>
      <path id="path406" class="cls-2" d="M1222.72,540.38l10.84,10.88-1.3,1.85,3,11.21-5.06-2.74-4.23-7.55-1.46-6.64-4-4.21,2.25-2.81"/>
      <path id="path408" class="cls-2" d="M1210.52,536.69l-3.75-5.73,3.91,2.53-.16,3.21"/>
      <path id="path410" class="cls-2" d="M1216.2,528l-.27,2.11-3.09-4.64,3.35,2.54"/>
      <path id="path412" class="cls-2" d="M1487.49,524.6l-2.27-2.17,2.55.32-.28,1.85"/>
      <path id="path414" class="cls-2" d="M1472,519.13l.84,1.43-2.51-1.48,1.67,0"/>
      <path id="path416" class="cls-2" d="M1426,403.43l1.48,1.38-3.19-.9,1.72-.48"/>
      <path id="path418" class="cls-2" d="M1482.72,263.82l3.15.66-1,2.26-8,5.5-1.52-1,7.35-7.47"/>
      <path id="path420" class="cls-2" d="M1182.85,231.69l6.23,1.29,4.36,6.2,19.53,9,.54,3-15.37,5.92-3.78-.46.18-4.12-1.65-.3-19,5.76-4.57-1.53-3.87-6.8-3.37-.77-5.83,6.14-2.8-5.81,4.76-3.52-2.87-4.54,17.31-6.28,4.71,2,2.43-4.74,3-.45"/>
      <path id="path422" class="cls-2" d="M1177.86,233.73l-.85,1.52-4.27-1.51-1.27-4.13,3.34-.37,3,4.49"/>
      <path id="path424" class="cls-2" d="M1210.9,240.84l-10.39-1.58-10.79-8.79,6.93-4.26,2.49-4.52,4.22.87,7,4.88-.39,6.43,5.1,4.33-4.15,2.64"/>
      <path id="path426" class="cls-2" d="M1177.26,211l4.59,2,0,15.67-3.76,2.35-4.1-2.85-3,.92,1.46,4.61L1161,238.52l-.73-14.12-4.48-7.92,7.46-2,7.87,1.41,6.16-4.94"/>
      <path id="path428" class="cls-2" d="M1167.58,210l6.57,1.11-.61,2.52-2.31,1.93-17.21-1,6.49-3.89,7.07-.71"/>
      <path id="path430" class="cls-2" d="M1204.47,208.51l3.25.52,1.89,6.18-7.84-6.32,2.7-.38"/>
      <path id="path432" class="cls-2" d="M1201.93,218.14l-7.65-3.58-5-6.47,15.76,4.54.67,4.29-3.82,1.22"/>
      <path id="path434" class="cls-2" d="M1218.16,214.35l-2.64,3.82L1212,215.6l-3.71-7,3.12-4.79,6.78,10.56"/>
      <path id="path438" class="cls-2" d="M1409.39,174.41l17.29,17-13-7.59-6.59-9.28-2,8,2.48,9,6.1,9.94,4.14,1.42,13.61,13.63L1416.77,206l1.59,2.95-3.29-1.71-9.66-13.42-.62-18,2.16-3.14,2.44,1.74"/>
      <path id="path440" class="cls-2" d="M1303,162.08l-6.32-8.18,1.19-2,6.31,6.72-1.18,3.41"/>
      <path id="path442" class="cls-6" d="M1131.37,29.68l-4.67-1.12-1.23-2.69,5.9,3.81"/>
      <path id="path444" class="cls-6" d="M1151.06,17.88l8.74,3.47,3,3.44-.85,2-17.48,3.28-5.34-.59-4.57-4.39,10.85-10.49,3.93-.47,1.74,3.76"/>
      <path id="path446" class="cls-6" d="M1111.42-2.14l27.08,4L1155.91,1l.8,7.57-3,3-6.58-.51-4.77,2.43L1136.37,12l-4.1,2.94-11-2.36-3.42-9-3.62,1.66-7.7-1.93-.17-5.2,5-.23"/>
      <path id="path450" class="cls-6" d="M1155.34-2,1136.2-.2"/>
      <path id="path556" class="cls-2" d="M1193.58,205.83l-7.55-.75-7.54,3.63-14.35-.88-16.22,3.49-.33,2.92,5.28,1.53,5.13,5.94,1.5,17.87-4.71,1.73,2.41,5.49-8,.57,5.78,9,9.1-4.7,1.33,4.29,5.3,4,20.74,1.67,8.43,12.79,3.8-2.09-1.87,19.58-3.56,3.44.27,2.84,9.26,3.44-.8,4.75,8.74,12.7,14.66,6.77,16.54,3.38,3.37-2.58,3.24.74,5.79,6.76-3.78,9.61,22.25,27,10.09,3.05,3.83,5.4L1312.08,394l14.56,5,1.18,3.19,3.78-.07,12.47,7,2.76-.82,3.6,4.34,3.17-.37-5.11,3.3,3.27,1.35,3.75-2.53,1.37,2.45,3.11-2-.81,2.54.74-1.39,1.3,3.19-1.9,4.67,2.77-1.45-.08,5.65-8.32,1.57-3.12,2.83,2.86-.93.32,2.26,11-3-3.48,1.69,4.13,0,.13,3.77-5.84,3.73,3,2.28,4.09-1.7.41,5.51.66-1.4,3.14,3.17,4.2-7.67,2.77,1.74-4.36,7.7,3.08,2.57.3-5.44,3.57-2,3,2.68-4,3.11,3.37,1.23.81-2.76,2.09,2.47,0-3,4.58-1.28,1.41,2.65-3.37,1.46h3l-.46,2.07,2.88-1.8.45,1.92,1.14-2.37.22,2.28,5.22-1.65.15,3.65-.33-4.73,4.07-.57,12.6,12.12,11.57,6.86,4.17,5.74,9.43,4L1465,500.58l-1.15,10.31-12.72,1.46,15.92,2.34-.15-2.69,4,6-2.43-1.49-.9,2.05,15.82,10.06.47,10.76,2.22,3.89,3.85.48,5.3-5.9,14.76.73,7,1.89,6.26,6.47,3.56-.64,2.13,2.53-20.75-5.17L1496,547.34l-5.1,5.35-8.53-.53-13.21-7.34L1466,527.16l-3.6-3.17L1446.7,521l-16.42,3.61-13.94.22-4-4.08-4.48-31.45L1393,476.21l-11.83-3.57-19.25,2-10.63,6.23-4.86-6L1342,474l-11.4,31.47L1305,502.82l-10.35,5-11.17-.35L1265,511l-16-1.23-11.38-10.64-.46-11.87-8.65-16.44-10.76-6.35-19.48-6.38-2.94-5.69,3.41-30.08-12.53-41.39-7-3.17-5.3-6.14-1-7.24L1159,353.75l-9.45,3.14-2.87,3.26-13.22,24L1113,374.6l-7.75,2.22-8.42,23.38-4,5.57-8-3.12-12.61-11.36-6.2-1.56-4.3-5.32-2.25,1.67-3.63,21.08L1043.74,415l-3.88,30.62L1020,445.3l-12.58,2.21-21.71-1.74L967.1,434.16l-6.47,3-11.77,1.16-8.15-3.78-2-16.42,1.51-19.73-12.48-8.18-6.54-14.6-13.44-17.14-9.43-2.34-30.21,1.46-9.44,5L834,364.28l-8.86-1.75-8.72-6.86-22.36-7.15-7.26-5.69,1.59-13.58-2.33-8.91-6.1-.87-4.51,5.26-20.32,3.66-3.93-3.94-2.77-15.33-4.78-3.5-18.64-.25-15.67-3.51-4.12-8.38-1.45-14.31,5.88-14.83L727,254.18l19.68-25.24,1.59-53.4,8-15.76,20.1-24.11,1.33-17.15,2.57-3.78,5-1.25,5.45,1.93,7.32,7.5,10.63,2.35,8.18,4.7,2.89,2.58,1.14,8.11,5.41,3.08,34.47-7.84,11.92-10.42,28.44-12.69,19.27-3.41,38.7-22.59,15.74-.7,34.73,3.59,21.63-7.16,10.79.1,9.69,5.28,6.72,13.83,3.56,2.89,34.19,19.25,22.46-6.66,11.57,13.53,9.59,6.67,7.48,10.69,28,11.26,24.45-18.29,15,1.2L1226,130l6.27,5.07,7.3,1.75-1,5.4,6.79,7.24-1.81,2.49,2.46,6.84,5-.79.16-4.36,2-.68,6,6.53,3.26,12.57,2.5-3.39,2.52,4.42-2.8,6.43,3.25-.81.58,2.41-7.6,7.35,1.81,2.1-3.83,1.2-14.23,14.91-7.25-1-16.22,5.66-9-8.94-3.41,4.57-15.21-1.14"/>
      <path id="path562" class="cls-2" d="M1395.4,441.24l3.34,1.34-2.8,1.3-.54-2.65"/>
      <path id="path570" class="cls-2" d="M1177.26,211l4.59,2,0,15.67-3.76,2.35-4.1-2.85-3,.92,1.46,4.61L1161,238.52l-.73-14.12-4.48-7.92,7.46-2,7.87,1.41,6.16-4.94"/>
      <path id="path574" class="cls-2" d="M1210.9,240.84l-10.39-1.58-10.79-8.79,6.93-4.26,2.49-4.52,4.22.87,7,4.88-.39,6.43,5.1,4.33-4.15,2.64"/>
      <path id="path578" class="cls-2" d="M1177.86,233.73l-.85,1.52-4.27-1.51-1.27-4.13,3.34-.37,3,4.49"/>
      <path id="path580" class="cls-2" d="M1182.85,231.69l6.23,1.29,4.36,6.2,19.53,9,.54,3-15.37,5.92-3.78-.46.18-4.12-1.65-.3-19,5.76-4.57-1.53-3.87-6.8-3.37-.77-5.83,6.14-2.8-5.81,4.76-3.52-2.87-4.54,17.31-6.28,4.71,2,2.43-4.74,3-.45"/>
      <path id="path582" class="cls-2" d="M1218.16,214.35l-2.64,3.82L1212,215.6l-3.71-7,3.12-4.79,6.78,10.56"/>
      <path id="path584" class="cls-2" d="M1187.2,207.91l12.5,10.31,23.85,6,3.62,4.29-14,6.73-2.44-8.51-9.87-5.85-10.72,8.72-5.42-1-3.29-18.13,5.74-2.54"/>
      <path id="path586" class="cls-2" d="M1201.93,218.14l-7.65-3.58-5-6.47,15.76,4.54.67,4.29-3.82,1.22"/>
      <path id="path588" class="cls-2" d="M1204.47,208.51l3.25.52,1.89,6.18-7.84-6.32,2.7-.38"/>
      <path id="path590" class="cls-2" d="M1167.58,210l6.57,1.11-.61,2.52-2.31,1.93-17.21-1,6.49-3.89,7.07-.71"/>
      <path id="path594" class="cls-2" d="M1262.43,166.4l-.25,2.13-1.5-3.63,1.75,1.49"/>
      <path id="path606" class="cls-6" d="M1155.34-2,1136.2-.2"/>
      <path id="path612" class="cls-6" d="M1111.42-2.14l27.08,4L1155.91,1l.8,7.57-3,3-6.58-.51-4.77,2.43L1136.37,12l-4.1,2.94-11-2.36-3.42-9-3.62,1.66-7.7-1.93-.17-5.2,5-.23"/>
      <path id="path614" class="cls-6" d="M1151.06,17.88l8.74,3.47,3,3.44-.85,2-17.48,3.28-5.34-.59-4.57-4.39,10.85-10.49,3.93-.47,1.74,3.76"/>
      <path id="path650" class="cls-2" d="M653.32,849.09,659,842l-.7-9.53-21.8-28.06-3.31-16.12-23.08,5.38-12,5.38-8.06-18.81-7.12-4.5-9-12.83L586,749.6l-1.42-15.24-35.29-27.85-2.65-5.19,3.07-7.7L548,686.13l-3.22-2.43-14.43-2.4L522,675.14,503.7,650.67l-6.73-2-4.32-4.86-2.11-7.9-4.33-4.81.88-11.47,3.55-9.89,4.65-4.71-1.31-5.4,7-24.25,1.46-17.35-.8-5L496.48,552l-15.89-12.5-.45-4.8,3.7-1.23.17-2.09-6.21-4.61,6.41-10.18-1.5-5.93-3.1-2.69,1.23-8.21-3.47-9.57,15.52-13.53,3.11-16.6,7.52-12.39,7.26-4.24,14.88-1.71,7.4,2.92,8.72.14,30.18-12L624.33,427l6.67-6.55,9.2,9.79,22.08,14.89,3.63,12.27,5.66,4.23,15.25,24.82,8.35,44.08-3.34,6.14L677,544.88l-8.95,16.65-3.26,19.71-10.55,22.33-.58,7.92,4.42,5L679,624.62l17.68,22.22,15.37,5.41,6.14,5.41,18.92,31,.33,3.68-7.33,16.58,0,5.65L736.34,727l17.29,11.4L769.57,755l17.31,5.15,5.76,5.79,6.91,26.28-2.05,45L869.14,836l-3.64-22.42,43.22-31.87,18.68-24.66,2.88-15.65-1-24.35,7.87-16.82L933,683.06l7.3-9.27,8.1-3.4,14.92,40.95,17.29,17.08,9.53,14,22.2,7.3-6.24,14.79-6.29,8.57,1.53,15.27-3.15,11.37.47,9-11.18,20.88L975.27,844.2l-1,7.19L986.78,859l9-.88,36.09-7.23,3.77-11,10-3.8,6.58,6.46c11.28-.53,22.56-4.26,33.83-1.36l4.59,1.9,3.48-2.91,4,.14.37,4.74-3,4.93,4,10L1087,874l-10,36.69-5.56,5.91,4.48-5.76-4.55,1.67-1.9,3.84,2.19,14.81,8.06,9.41-1.52,4.77,1.65,9.56,3.6,5-1.94,5.07-6.61-1.91.5,3.1-2.58,2.06,2.86,6.8-4,3.29,8.61,4.07.25,3.84-12.38,23.41c-10.86,13.42-38.73,3.32-39.19,17.53l3.23,3,3,9.12.66,12.48-4.06,11.5-2,20.66-8.38,5-1.34,28.88-21.28,10.88-16.32,21-15.93,25.76-13.11,11.21-11.6-6.84-4-5.44-12.4-1.88-4.77-3.23-1.8-5.29-18.12-6.48,1.08-5.73,8-3,1.44-6.58,12.54-7.92,9.81-11-23.32-24.42-27.36-12.63-6.29,1.75-4.67,5.6-7.4-5.33-11.47,1L836.43,1107l-9.16-1-17.35-8.57-.53-24.47,6.34-9.83,1.82-7.68,8.69-5.84,2-10.63-6.35-14-7.74-8.74-20.1-5.15-7.92-28.24-1.64-20.53L772.9,945.08l4.16-6.73-11.7,2.34L762,936l-1.52-9.59L756,921.86,753.44,923l-1.76,6.79L747.36,933l-12.6,4.72-8.95-1.35-58.93-43.54-24.1-13,.58-14.66L649,852.5l4.35-3.41"/>
      <path id="path616" class="cls-6" d="M1131.37,29.68l-4.67-1.12-1.23-2.69,5.9,3.81"/>
      <path id="path652" class="cls-7" d="M1075.23,1079.24l8,8.88-.5,3.69-6.43-4.89-3.69-6.89-5.41,1-1.86-9.11,9.86,7.29"/>
      <path id="path654" class="cls-2" d="M1045.9,1079.93l10.12,17.19-4.75,10.43-4.58-.63,4.78,1.41.3,5-6.61,4.89-5-6.79-2.58-9.41,10.49-6-.52-5.42-4.37-5.67,2.71-4.92"/>
      <path id="path656" class="cls-2" d="M1031.69,1086.5l1.91,1.15,1.48,12.08-5,8.31-2.73-6.78,3.49-8.12-2.25-3.7,1-4.51,2.12,1.56"/>
      <path id="path658" class="cls-2" d="M1085.81,1013.89l1,2.82,8.8,2.79-4.48,5.46-5.36-1.49-.9,3.14-2.39-2.34,2.58,4.95-.88,4.74-5.46,1.58-.6-2.48-3.4,3-1.72-2.49-2.48,2-5.1-3.08,4.85,3.45,2.65-2,1.44,2.64,6.61.54,5.15,9.65-2.27,4.15-9.8-7.8-3.12.54-.59-3.07-2.73.27.14-2.77-4.78-2.43-2.56.83,6.79,1.72L1067,1041l2.87-.36.68,3.11,2.76.09-1.89,6.76-2.21-.85-.92-4.83-3.44,2.21-3.3-1.91-.95,3.14-1-2.89-3.63-.53,1.52-3.65-1.79,3.07,5,4.35,8-2.87-.22,3.46-2.58.47,1.31,5.52-9.33-6.76L1049,1038l-7.69-2.36L1030,1022.09l7-1.82,12.61,3.59,15.55-6.5,11.69-.45,8-4.65.95,1.64"/>
      <path id="path660" class="cls-2" d="M1087.87,1025.78l2.42-1.36-1.51,5.48-4.32,2.74.83-3.55-2.85-3.32,3.32,1.28.52-3.15,1.59,1.88"/>
      <path id="path662" class="cls-2" d="M1079.43,1051.37l5.49,7.07-9.74-3.79,1.57,3.49,5.37-1.15,1.22,2.28,5,.13,9.29,7.27L1108,1064l12,2.69,5.58-2.51,1.83,10.55-1.45,3.72-3.63,3.54-2-1.61-11.77,1-9.36-3,.51-2.32-2.72.54-1.58,3.24.45-2.55,13.49,7.79-5.33,4.55-7.57-1.68-8.3-11.12-4.2-2-1.64-5-5.15-1.56-6.77-9.27-9.8-4.63-1.42-3.09,8.28,4.13-1.28-5.8,5.53,1.44,2.52-5.75,5.2,6.05"/>
      <path id="path664" class="cls-2" d="M1104,973.67l-5.25,5.59,3.1-6.62,3-.81-.82,1.83"/>
      <path id="path666" class="cls-2" d="M1102.47,1005.34l-1.76,1.31-7.35-2.27,3.05-3.09,8.69-2.27-2.63,6.32"/>
      <path id="path668" class="cls-2" d="M1108.95,999.94l5.43.44-2.49,5,3-4.83,4,2-2.06,16.57-7.72,7.09-12.57,1.1-.18-9.19-9.3-2-1.64-4.28-10.28,3.76-.6-5.15,11.85-4.81,7.59-.52,2.8,7.76-2.29-7.55,5.53.53,3.44,4.86,3.61-4.86-3.93,4.76-2-3.68,3.71-6.77,4.1-.28"/>
      <path id="path670" class="cls-2" d="M1093.63,1002.42l-3.48,1.57,5.8-3.55-2.32,2"/>
      <path id="path672" class="cls-2" d="M1128.41,973.36l2.2,2.5-1.43,9.43-5.73,5.81-2.12-1.07-5.86,3.9-19.47,5.3-21.57,11,.59,5.48,2.24,0-8.2-.13.22-8.66,16.83-10.77,6.32-7.06,29.46-18.48,6.51,2.7"/>
      <path id="path674" class="cls-2" d="M1114.49,998.75l-6.62-.08,4.53-2.52,2.09,2.61"/>
      <path id="path676" class="cls-2" d="M1088.64,947.35l2.16.31.45,5.1-12,26.83-8-1.58,3.93-2.73-2.27-3,1.38-9.34,7.34,1.74,1.72-3.74-2.5-7.09,4.15-5.8,3.57-.71"/>
      <path id="path678" class="cls-2" d="M1095.88,953.54l-3.25,8.17-3.84,2.79,3.65-10.48,3.44-.48"/>
      <path id="path680" class="cls-2" d="M1098.83,953.7l5.95,7.84-6.16,6.23-5.57.66.35,10.71-4.44,1.35-6.14,12.15-6.56,5.1-.56-5.19,5.18-6.25,3.17-12.68,14.79-19.91"/>
      <path id="path682" class="cls-2" d="M1102.82,968.89l-15.32,23.25-9.22,4.93,4.63-4.39,6.1-12,4.44-1.18,1.41-6.65-1.59-3.82,5.31-.51,3.63-4,1.82,1.83-1.21,2.56"/>
      <path id="path684" class="cls-2" d="M1093.56,1030.77l-2.39-1L1093,1025l.54,5.75"/>
      <path id="path686" class="cls-2" d="M1089.92,1027.45l2.16,3.47,4.09-1.79,9.08,2.24-2,6.24-4.3,1.95-5.44-1.15-.91-4.76-8,.25,5.33-6.44"/>
      <path id="path688" class="cls-2" d="M1106.49,1031.69l6.94,2.58-2.1,7-10.42,1.56-1.6-3.15,2.35-.14,4.83-7.87"/>
      <path id="path690" class="cls-2" d="M1090.79,1035l1.76-.25.06,4.1,4.88.63.66,3.1-4.51,2.73-4.13-5.06-3,5.82-5.52-10.55,9.78-.53"/>
      <path id="path692" class="cls-2" d="M1094.79,1046.09l5.29-1.46,2.56,3.68-.75,4.59-10.13,1.33-6.73-2.44,4.1-6.77,3.68,3.26-4.68-6.78,6.66,4.6"/>
      <path id="path694" class="cls-2" d="M1099.7,1057.59l-6.85-.54,5.46-1.61,1.38,2.16"/>
      <path id="path696" class="cls-2" d="M1067.69,1009.89l1.63,2.94-10.47,6.57-6,2.7-4.22-2.1,19-10.11"/>
      <path id="path698" class="cls-2" d="M1056,1111.73l-3.27-.13-.27-4.33,4.1-7.8,5.08,9-5.65,3.25"/>
      <path id="path700" class="cls-2" d="M1023.6,1110.78l-2.24-.9,1.26-9.57,1,10.47"/>
      <path id="path702" class="cls-2" d="M1089.81,1097.25l-6.29-3.05.58-5.33,6.62,6.42-.9,2"/>
      <path id="path704" class="cls-2" d="M1029.3,1092.1l-2.87,8,.83,11.18-2.44-1.54-1-18.79,3.87-2.84,1.57,4"/>
      <path id="path706" class="cls-2" d="M1041,1036.67l4.46,1.27,9.25,8.15,3.74,7.5-.28,3.92-.29-4.51-2,1.19,1.6.82-1.34,6.46,4.46,5.63-2.61.47-1.07,3.2-3.14-.56,3.67,5.43-2.16,3.57,5.36-.4,6.52,18.49,6.64,1.45,3.29,9.88-.78,4.46-4.07-.91-3.84-5.51,3-3.18-3.25,3,2.36,3-4.08,1-3.09-8.74-10.92-15.17-2.39-8.14-5.93-5.49-2.33-11.16.46-3.35,2.31.17-1-1.87-2,5-6.93-30.54,6.28,5.49"/>
      <path id="path708" class="cls-2" d="M1040,1059l2.86,16.58,2.69,2.81-3.8,7.63-1.22-17.12-2.34-3.65,1.35-3-2.65-.43.76-3.56-3-3.53,1.73-5.57L1040,1059"/>
      <path id="path710" class="cls-2" d="M1068.76,1059.23l5.19,7.7-3.5.63-.17-2.34-7-5.11,6.39,5.06.26,2.63,3.83-.14,7.29,13.18-10.72-7.16-12.66-13.41,2.24-5.58,8.9,4.53"/>
      <path id="path712" class="cls-2" d="M1037.42,1058.8l-.6,3.37,2.54,1-.95,1.84-2.7-3.92-.32,3.1,4.14,2.28-4.83,3.49,5.06-.67-1.11,5.16,1.71,2.42-4,.78-.54-2.17-.65,3.77,3.37-.58,2.64,3.07-5.51,5.88,5.37,3.05-4.95-3.18,2.62-3,8,9.31-1,2.77-6.29-1-2.33,1.79-2.39-10.12-2.55-2.29,1.73-8.1-2-12.85,2.67-8.82,2.93,3.6"/>
      <path id="path714" class="cls-2" d="M1061.14,1067.71l5.56,13.95,6.88.59-2.47,2.62,2.27-.68,2.08,6.13-6.93,5.93-7-17.42-5.57.33,2.52-5.9,1.08,4.09,2.41-.59.09-5.25-2.12,5.76,0-3.09-3.56-1.74,1.63-4.55,3.07-.18"/>
      <path id="path716" class="cls-2" d="M1080.46,1069.88l7.46,7.76,2.71,8.58-15.9-15.15,1.54-2.73,4.18,1.54"/>
      <path id="path724" class="cls-2" d="M1529,548.85l1,2.27-2.94,4.76,2.29,5.75-6.82,12.79-9.38,8.27-7.59,3.4-3.63,8-11.27-.18-8.77,10.5,1,4.7-3.64-.88.28,3.53-6.06,5.49-2.55-.81,2.94-1.68-1.54-1.71-2.69-.11.61,2.1-7.86-.53-9.94-5.12-5.28,2.83.42-4.85-2.51-3.53L1437,599.4l-6.34,3.55-6-1.4-12,10.8-13.28,1-17.6-5,.11-4.06-4.17,3.15L1369.4,603l-2.34,2.86-2.59-1.28-3.69,2.19.69,2.64-12.91,5.19-7.78-3-1-6.83-6-2.88-33.42-5.21L1258.43,586l-3.47-2.88,1.34-6.89-2.08-3-12-3.91-.75-9.06-4.42-2.93,1.44-6.39-4.59-12.84-8.31-3.65-1.13-3.64-5.73-4.36-10-4.39.09,6.82-2.73,2.91,3.46,5.94,7.31.45.37,2.48-2.81-.53,5.73,1.29-1.84,1.88,1.06,2.75,4,1.82,8.33,15.77-1.29,6,3,4.07-.65,4.65,11.77,16.87,3.22,11.42-2.63,4.92.65,3.85,2.62.76-.25,5.79-17,1.85-3.4-5.59-10.86-4-2.74-8.93-12.12,3.83-.29,3.94-4.68-.51-11.7,4L1168,628.17l-12.62,18.18-.45,20.67-11,3.39-4.1,14.88-5.83,9.18,2.08,1.39-2.18-1-3,6.71-7.06,6.28-1.18,6.13,2.87,11.14-8.45,7.4-3-.33,1.28-2.29-3.17-3.39-3.67.55,3.6,1.12-2.44,3.06,2.24.58-1.13,2.5,1.91,1.65-4.14,10.29-12,2.59-17.7,2.38-18.94,1.17-11.31.9-10.13-3.9-9.66-.59L1019,747.7l-14.91.07-10.05-3-5.31-3.3-9-13.53-17.29-17.08-14.92-40.95-8.1,3.4-7.3,9.27,4.22,17.2-7.87,16.82,1,24.35-2.88,15.65-18.68,24.66-43.22,31.87,3.64,22.42-71.63,1.15,2.05-45-6.91-26.28-5.76-5.79-17.31-5.15L752.8,737.9,735.5,726.5l-6.14-12.37,0-5.65,7.33-16.58-.33-3.68-18.92-31-6.14-5.41-15.37-5.41-17.68-22.22-24.39-10.43-.38-10.63L664,580.78l3.26-19.71,8.95-16.65,14.8-8.18,3.34-9.49-7.42-37.53-7.6-16L665.08,457l-5.67-14.6-20-12.55-9.2-9.79,12.47-20.62,40.68-52.25,24.13-38.52,1.93-6.8L725,305.33l18.64.25,4.78,3.5,2.77,15.33,3.93,3.94,20.32-3.66,4.51-5.26,6.1.87,2.33,8.91L786.25,340l3.34,5.69,26.87,9.93,13.8,8.32,28.42-1.41,9.44-5,30.21-1.46,9.43,2.34,13.44,17.14,6.54,14.6,12.48,8.18-1.51,19.73,2,16.42,8.15,3.78,11.77-1.16,6.47-3,18.61,11.61,21.71,1.74,12.58-2.21,19.86.31,3.89-30.62,12.13-7.83,3.63-21.08,2.25-1.67,4.3,5.32,6.2,1.56,12.61,11.36,8,3.12,4-5.57,8.42-23.38,7.75-2.22,20.44,9.49,13.22-24,2.87-3.26,9.45-3.14,13.88,10.61,1,7.24,5.3,6.14,7,3.17,12.53,41.39-3.41,30.08,2.94,5.69,19.48,6.38,10.76,6.35,8.65,16.44.46,11.87,11.38,10.64,16,1.23,18.55-3.52,11.17.35,10.35-5,25.55,2.67L1342,474l4.43.83,4.86,6,10.63-6.23,19.25-2,11.83,3.57,14.84,13.13,4.48,31.45,4,4.08,13.94-.22L1446.7,521l15.74,2.95,3.6,3.17,3.14,17.65,13.21,7.34,8.53.53,5.1-5.35,12.29-3.64,20.75,5.17"/>
      <path id="path758" class="cls-2" d="M735.32,1358.91l-.62,5.68-6.56,7.65-12.93,0,.5,3.87,14.5,5.8,24.24-10.21,6.67,2.35,1.54-6.11,22.51,2.06.58,12-8.21,14.61,5.12,4.84,4.72,13.19.69,38.35-2.26,3.88-16.09,4.5-11.06,8.35-3.82,0-1,4.22,1.31,1.48,12.7-3.72-2.19,20.87,5.91,7.22,31.69-13.56,10.7,1.12-2.08,10,3,1.54,6.17-4.58,2.79-5.31-.9-2.73,1.86.7,3,8.25-.74,9.87L815.54,1560l-21.08-9.69-28.29-7-41.63.41-13.43-7.76-53.25-1.52-15.31-11.1-1.28,8-7.57,1.48-4.71,5.81-6.48-1.79L621,1548.14l-5-.16-7.76,5.45-3.37-2.49-3.39-8.33,1.15-5.23-3.46-4.67,5.9-6.8-5.43-2.22-4.13-8.46,1.58-5.79-8.12-13.13,2.63-7.25.42-20.9,5.94-3.59,1.83-7.6-8.66-4.46-15.67,1.9L567,1448l6.79-8.23-3.65-4.6-5-1.57,7.22-15,2.17-14-.2-7.52-2.74-4.27,1.87-4.74-.5-13-7.6-11.18.09-5.31-4.2.22-5.69-7.32,2.7-14.11-2.37-5.69-5.25.65L544.24,1322l2.56-16.88-7.24-4-4.18,3.3-5-6.65-6.67,5.26-4.63.17-1.9-4.14,1.5-9.84,8.22-3.07,6-11.89,7.69-4.8,9.11-11.55,4.54-.76,3.44,2.7-6,8,5,6.46,11.77-9.81,3.14-9,7.08-6.54-.3-7.06,3.64-7.53-.69-8.07,4.81-14.93,7.35-8.58L608,1192l-1.08-3.4-12.06-10.73,4.58-3.4,38.41-3.37,27.09,11,51.73-8.29,9.21-9.44,4.33-10.58,7.65-9.55,20.78-5.45,16.23-8.55,10.1-10.16,1.56-8.73,5.06-6,12.54-7.15,6.33-1.19,15.93,8.6,9.16,1-.37,10.69-16,12.37-30.73,11.14-4.31,16-13.94,12.37-6.64,11.3-.76,18.19L754.57,1211l-.84,9.52-4.89,10.25,2.69,6.74,7.14,7.89,8,.92,4.15,2.91-5.45,9.36-2.2,9.16,6,4.63,1.76,4.55-9.73,8.5-1,8.62,7.14,19.7,14.26,6.49,14.21.9,20.63-4,.65,3-20.38,13.14-12,1.45-19.8,10.46L749,1350l-3.41-.84-2.13,7.49-8.16,2.19"/>
      <path id="path760" class="cls-2" d="M803.14,1472.38l3.38,10.93-34.23,14.51-5.57-5,1.45-17.91,20.1,1.45,12.15-6.87,2.71,2.92"/>
      <path id="path762" class="cls-8" d="M864.89,1177.31l2.91,1.56-1.44,4.71-3.1-2.81-.59-3.33,2.22-.13"/>
      <path id="path766" class="cls-2" d="M897.52,1093.05l11.89,5.34,23.32,24.42-9.81,11-12.54,7.92-1.44,6.58-13.85,7.27-14.24,8.71-2.46,8-4.65,1.87-.32,2.69-6.57-2.69,3.78-7.93-.84-6.34,5.58-7.12-2-2.25,1-3.11-2.32-.71-3.31,4.24.83,4.31-2.82.24-.66,11.08-2.93,3.45,1.19,2.72-3.65-.35,1.37,2.8-3.11-.83.18,5.37,2.4,4,3.11-.5,8.23,7.23.9,2.33-1.91,1.42L878,1199l-7.37,6.34.31,2.82,10.43,7.49-5.57,13,1.16,20.68-4.2,3.79-41.42,13.44-20,14.11L807.44,1295l3.77,1,2.89,5.12,2.33,16-20.63,4-14.21-.9-12.84-5.14-5-7.48L760.19,1294l1-8.62,9.73-8.5-1.76-4.55-6-4.63,2.2-9.16,5.45-9.36-4.15-2.91-8-.92-7.14-7.89-2.69-6.74,4.89-10.25.84-9.52,8.24-12.38-.07-14.91,6.37-13.23,15-13.72,5.52-17.5,26.2-8,17.82-11.8,1.9-12.8,16.61-17.78,11.47-1,7.4,5.33,4.67-5.6,6.29-1.75,15.47,7.3"/>
      <path id="path818" class="cls-2" d="M899.7,1225.86l-8.78,1.2-1.54-2.49,3-4-.3-5.8,1.66.4-3.63-5.67L892,1208l-.48-4.22-1.15-1.78-3.27,5.63-4.44-1.1,1.78-11.29-2.41-7.76-3.25-5.68-7.37-5.56,2.25.53.09-2.63,4.14-1.21,3-8.62,19.52-11.77.07,5.65,16.39,4.74,3,5.95,4.77,3.23,12.4,1.88,4,5.44,11.6,6.84-5.66,16.32-17,13.86-17.64,9-12.61.4"/>
      <path id="path824" class="cls-9" d="M1111.91,825.43l-2.29-.69,2.19-.89.1,1.58"/>
      <path id="path844" class="cls-9" d="M923,1193.92l-3.47-.66,1.16-1.38-2.1,1.07.46-3.47,3.94,4.44"/>
      <path id="path852" class="cls-9" d="M961.38,1158.09l-2.87.33,2.28-.68-1.72-2.18,2.31,2.52"/>
      <path id="path860" class="cls-9" d="M949,1148.43l-1.73.76-1-3.6,6.13-1.53.41,3.35-2.1-1.78-1.69,2.79"/>
      <path id="path764" class="cls-8" d="M872.09,1151.34l-3.18.18,3.32-2.78-.14,2.59"/>
      <path id="path9042" class="cls-2" d="M416.36,872.5,405,880.38l-2,9.7-19.61,4.71-11.18,11-15-1.43-1.4-3.82-10.66,4.9-5-.23-.13-7.38-3.84-8.74,1.3-10.09-7.9-18.69.56-6.69-2.89-9.27,1.54-5.69-6.27-5.46-4.37.67-6.88-6.52-8.14,1.86-4.2-5.17-.18-10,5.54-10.44-3-5,7.46-6,1.64-8.07,8.46-2.66,3.48-10.67,3.91-2.14.49-6,4.1-4.12,12.19-5.67,2.79,1.12,0,4,7-3.54,5.2,1.64,7.3-2.06,8.16,7.63,1.45-4.48,9.43-5.24,13.65-14.56,1-13.53L387.6,713.17l-4.35-10.5L371.5,687.9l-8.58-16.68-9.17-39-20.68-14.26-1,6.38-5.4,2.2-6.46,7.29-.14,4.85,4.94,4.91-1.4,1.83-9.09-4.66-.72-4.25L308,630.06l-12.82,6.06-5-3.17-14,10.73-5.32-1.08,3.23-4.68-1.74-1-6.58,5.74L259.51,644l-2.21,6.48L248.84,658l-1.44,4.64L244,660.78l-4.65,6-14.46-1.17-1.4,4.71,2,5.06-6.7,9.36-7.88-2.35-10,1-1.43,3.22-8,5,2.19,10.08L187.38,705l-10-3.27-7.21-7.12-10.73-3-3.63,1.71-9.22-1.18L143,694.95l-14.34-.79-5.1-3.13-3.35-9.44L110.64,679l.12-3.91,6.44-5.42-.05-4.16-6.68-12.93-11.22-6.61-13.46,1.79-5.25,5-9.2,2-2.9,4.56-7.88-4.5-3.48,3L40.25,658l-6.54,4.3-1.64-5.55-11.48-1.85-1.44-4.6,2.26-6.79,9.1-2.09,5.88-7.54-1.77-14.2L44,610.2l1.58-5.26L30.45,588.81l1.61-10.29,8.12-7.68,3.06-9.51-.84-6.19-6.78-4.41.57-8.45,3.4-2.7L50,539.08l5-15.1,6-3.71,2-5,4.56-1.13,3.06,2.69,5.21-2.44,4.81,4.32,9.91-8.53,5.46,3.8,5.19-1.67,6.73-13L104,492l4.59-8.82,5.59-3.66-5.58-7.68,3.34-5.91-1.15-20,5.46-4.37,16.51-5.95,4.48-9.28L155,423.72l2.36-4.3,7.46-3.59,13.59-2.57,2.15-2.51-.55-4.4,5.33-1.78,21,14.23,10.95,3.49,4.09,5.62,9.46,2.07,2,2.84,5.9-5.67,1.18-4.63,24.45,24.56,6.33,3.79,16.57,3.28,19,14.13,1.75,4.39-2.15,6.63,3.59,1.82,2.56,8.64,5.85.42,8.34-6.57,15.5,1.77,1.52,2.88,9.49,4.64-.07,7.46,4.45,5.86-2.62,6.48,6.37.24,4.44,4.29,9.88,1,8.62-2.67L387,509l8-6,16.11-2.8L422.17,506l5.74,1,4.3-2.34,3,3.25,7.83.51,9-10.13.68-5L469,497.75l4-1.89,3.13-6.13,3.46,9.55-1.23,8.19,3.09,2.68,1.49,5.92-6.39,10.15,6.2,4.6-.17,2.08L479,534.12l.45,4.79,15.84,12.47,5.13,1.08.79,5-1.46,17.3-7,24.19,1.31,5.39-4.63,4.7-3.54,9.86L485,630.33l4.32,4.8,2.1,7.88,4.31,4.84,6.71,1.95,18.21,24.4,8.36,6.14,14.39,2.39,3.21,2.43,1.75,7.47-3.06,7.68,2.64,5.17,35.19,27.78,1.41,15.2-12,13.24,6.16,8.82-9.32,16.18c-21.05,31.51-36.12,16.77-66.29,23-10,.24-11.64,23.29-11.59,28.36-2.17,1-3.92-2.21-5.46,2.37-3.48,4.67-9.15.42-10.11-.69-2.57,2.76-6.36,9.19-8.41,12.26-1.82,2.73-6.88,8.64-8.22,10.38-5.53,3.24-4.28,1.61-9.88,1.9a11,11,0,0,0-12.67,3.08c-2.28.46-4.91,7-8.87,3.59-.87-.76-.81,3.83-2,3.53l-5.22-2.84Z"/>
      <path id="path648" class="cls-2" d="M583.26,748.22l-12,13.27,6.16,8.82-9.33,16.17C547,818,532,803.25,501.79,809.5c-10,.24-11.63,23.27-11.59,28.34-2.17,1-3.91-2.21-5.46,2.38-3.48,4.67-9.16.41-10.13-.7-2.57,2.76-6.34,9.22-8.39,12.29-1.82,2.73-6.89,8.64-8.24,10.37-5.53,3.24-4.28,1.6-9.88,1.89l-.21-.09.21,4.36L452.89,880l-3.05,5.67-12.57,10.43.82,10.74-9,15.07,4.09,8.17.09,7.26-6.38.24-1,3.39,3.23,21.47,6.38,3.23-.27,11.44L431,982.7l17.78,16.65,5.52,15.37,8.72,7.56,4.27,34.1-.4,14.67,3.69,15.28,5.25,7,24.83,5.15,6.74,3.78,8.33,8,9.46,14.67,27.42,19.71-.55,6.53,4.58,10.4,6.77-.58,8.14,8.21,5.7,2.1,4.12,13.18,22-11.26,21.9-1.92,15.47.67,23.73,10.43,51.73-8.3,9.21-9.43,4.33-10.58,7.66-9.55,20.77-5.46,16.23-8.54,10.13-10.16,1.56-8.72,5-6,17.48-8.3-.55-24.46,6.34-9.85,1.83-7.69,8.69-5.83,2-10.65-6.34-14-7.75-8.72-19.67-4.45-8.36-28.95-1.62-20.53-11.62-17.27,4.18-6.74-11.71,2.35-3.39-4.7-1.53-9.58-4.45-4.55-2.56,1.16-1.77,6.77L733,937.43l-8.42-1.25-58.93-43.56-24.1-13L642.1,865l5.61-12.63,9.21-8.42,1.1-8.69-12.45-20-10.34-11-3.29-16.14-23.09,5.4-12,5.37-8.05-18.79-7.14-4.51-9-12.81,12.08-13.3-1.4-15.22L581.86,733l1.4,15.19Z"/>
      <path id="path5038" class="cls-9" d="M660.9,935.33l1.43,3.05-3-1.74ZM762.32,952l2.84,6-6.65,4.3Zm-14.4,19,2.35.49-2.84,1.4Zm4.88,2.47-1.43,4.33,1.77,1.19-4.51,1.4.64-2.53-3.81.82Zm3.94,8,1.25,6.53-2.41-3.14-3.54,2.9Zm3,4.58-.49,2.9-.24-1.56Z"/>
      <path id="path5074" class="cls-1" d="M.58-1.52V472.55l4.27-2.64,4.36-.37L17,458.68l-.18-5.37-4.42-3.08,2-2.17,6.83-2.1,1.22-2.38,8-.31,10.74-7.35,4.79.52,6.16-7.9,7.17-2.81,6.28,1.68,24-6.44,5.31-.27,3.51,3.23,10.16-3.08,5,7.35,9.27,3.69,5.61,5.28,3.75-1.71,4.48-9.3,17.84-2.62,2.35-4.3,7.5-3.6L178,413l2.17-2.5-.55-4.42,6.1-1.86,19.67,14,10.92,3.45,4.76,6,9.49,2.07,2,2.87,6.22-6.22,2.17-9.76,3.81-2.26-.46-3.39,3.11-4.64-4.79-4.67,3.08-12.66,12.2-4.3.95-2.84,7.6-3.36L270.2,372l4.54-1.43.46-20.13,2.56-2.75-4.12-13.09,2.87-7.29-6.16-6.74,9.82-6.74-2.84-7.38,8.66-3.78,7,5.64,6.83.43,7-9.12.34-3.78,10.65-.76,7.78-5.61L317,280.94l-.79-5.46.4-3,5.7-4.91.73-7.23,4.3-2.87-8.63-6-14.67,5.7-4.61-9.88,5.43-1.22-3.45-7.87,5.67-5.37.27-6.56-8.6-4.7-14.86,4-1.77-4.36,2-12.9,13.45-2.59.79-6.77,3.57-3.81-.82-3.72,5.09-4.42,3.05,5.49L322.17,187l13.6,2.59,5.73-7.26,4.91.12,3.9-2.81-5.46-8,3.81-14.24,3.9-.61,7,5.19,3.26-4.09,5-.52,3.72-8,4.12,1.65-.09-5.61,13.82.15-.4-6,2.78-4.64,10.52-10.1,13.3-2.07,4.48,3.42,13.15-11.23-2-2.81,2.38-1.31.15-5.19-4,1.77-4.18-2.07-3.26-9.24-5.25-2.41-4.88-8.39-7.72.7-4.85,6.77-5.43.55-2.75-5.06L387,86.51l0-5.06,3-.49,3.2-3.36-.18-3.26,2.71-1-3.66-8.6,1.74-2.62-6-2.44,1.56-5.64,11.13-7.87.55-9.18,4.27-4.48-3.63-4.3-4.58.82-10.4-6.25L394.86,19l6.8-9.4L404.72,9,403.59-1.52H.58Z"/>
      <path id="path5069" class="cls-9" d="M790.38,902.51,788.67,901,786.89,904l1.79-3.07,1.71,1.53m-2.39,3-2,1-5.2-5.29,5.2,5.29,2-1m-5.88-1.79-7.41,3.24L773,915l1.69-8,7.41-3.24m-36.82-43,4.33,2.2,3.85-2-3.85,2-4.33-2.2m18.93,19.06,1.5-.5-.58,3.29,4.56,4-3.07-11.84-2.42,5.06m8.25,13.86,1.14-1.64-2.36-2.86,1.22,4.5m1.31,3.11-2.21,2,3.44,1.56-1.22-3.6M770.52,930l13.73,4.52,4-5.63,22.68-3.49-22.68,3.49-4,5.63L770.52,930m58.19,6,2.66,3.79,4.22-4.42-2.87-3.17-4,3.79m-6.67.2-2.29.53,1.93,2.22.37-2.75m-25.18,10.24-2.22.1L794,949.3l6.18,5.26,2.22-5-5.57-3.14m22.92-29.17-3,.41,2.4,1.16.61-1.58m108.29-122,3.12-1.16-4.32-.09,1.2,1.26m8-.51-1,2.54,2.18-1.34-1.15-1.2m-58.75,23,3.57,1.57.08-5.64-3.47-4.33-.18,8.4m-1.8.47-3.34,5.67,1.9,6.28.23-6.89,2.81-3.84-1.6-1.22M818.67,868.7l5.9-1-2.79,3.05,1,5.15,5.66.54-.24-7.62L820,864.89c-2.47-7.63-.22-13.87-4.68-3.07l3.38,6.87"/>
      <path id="path822" class="cls-2" d="M1108.51,746.28l-2.55,11.1-6.5-.66,3.37,10.2-5.2,3.19,2,3.39-1.35,1.18,3.64.63-4,4,3,2.31.45,4.33-2.2,2.73-5.79.95,4.9,3.11-3,2-2.08-2.09-1.6.84,1.74,2.65-3.19-.71,4.29,4-4.58-1.19L1090,802l-6.35.95,3.25.58-1.18,2.67,6.09-1.41-.33,2.27,3.92-2.8-.2,3.39,3.22,1.58,1,3.94-4,6.2-6.79-2.25,1.43,2.1-3.4-.53,1.22,2.31,5.38.35-6.85-.78-.32,3.1,4.14,1.76-4.82.89,1.26,3.44-2.66-.2-1,2.54,3.25.51-2.58,4.71,2.66-.33,2.87-4.58.4,1.79,6.12-1.93,1.9,3.61-7.93,2.64,1.07,3.87c-8.45-3-17.68-1.15-26.49-.8l-13,.52-4.37-2.42-1.23-4.16-10.22,4.63-3.41,10.78-17.53,4.27-27.69,3.87-13.53-8.14,1-7.19,12.18-14.57,11.18-20.88-.47-9,3.15-11.37L999,772.65l12.22-22.17-2.81-3.57"/>
      <path id="path5060" class="cls-9" d="M892.64,747.64,885,751.89l5.86.63.29,5.37,3.71-1.69-1.83-.62,3-4-3.42-4m-23.51,50.23,4.59,4.29-1.16-3.79L869,796.28l.13,1.59"/>
      <path id="path6818" class="cls-10" d="M1098.84-1.16c7.23-.5,6.88-2.39,7.57,4.55l3.65,1.55L1118,4l2.84,8.73,11.26,2.85,4.82-2.38,3.26,2.22-7,8.13-6.7-.35-6.2-4-1.94,1.09,8.81,10.16,31.08,6.34,6,4.09.3,3.73,11.46-.48L1178.8,59l-1.35,11.75,5.07,12.07L1206.44,106l20.14,24.56"/>
      <path id="path4166" class="cls-10" d="M759.47,1641.76l1.53-8.33,3.86-10.66,9.94-15.34-6.8,2.1-4-5.43-5.61-1.22-.61-4.06-9.52,9.3-.7-8.45-3.26-5.28,7.6-.15,4.51-4.64,13.51,3,7.38-8.51,15.07,3.57,1.62,17.36,9.3-2.71,5.49-7.32-2.26-6,9-29"/>
      <path id="path5064" class="cls-11" d="M630.18,420l12.47-20.62,40.68-52.25,24.13-38.52,1.93-6.8"/>
      <path id="path5073" class="cls-11" d="M477.38,490.19l15.52-13.53,3.11-16.6,7.52-12.39,7.26-4.24,14.88-1.71,7.4,2.92,8.72.14,30.18-12L624.33,427l6.67-6.55"/>
      <path id="path5063" class="cls-11" d="M449.42,864.3a11,11,0,0,0-12.67,3.08c-2.28.46-4.91,7-8.87,3.59-.87-.76-.81,3.83-2,3.53l-5.22-2.84-4.35.85L405,880.38l-2,9.7-19.61,4.71-11.18,11-15-1.43-1.4-3.82-10.66,4.9-5-.23-.13-7.38-3.84-8.74,1.3-10.09-7.9-18.69.56-6.69-2.89-9.27,1.54-5.69-6.27-5.46-4.37.67-6.88-6.52-8.14,1.86-4.2-5.17-.18-10,5.54-10.44-3-5,7.46-6,1.64-8.07,8.46-2.66,3.48-10.67,3.91-2.14.49-6,4.1-4.12,12.19-5.67,2.79,1.12,0,4,7-3.54,5.2,1.64,7.3-2.06,8.16,7.63,1.45-4.48,9.43-5.24,13.65-14.56,1-13.53L387.6,713.17l-4.35-10.5L371.5,687.9l-8.58-16.68-9.17-39-20.68-14.26-1,6.38-5.4,2.2-6.46,7.29-.14,4.85,4.94,4.91-1.4,1.83-9.09-4.66-.72-4.25L308,630.06l-12.82,6.06-5-3.17-14,10.73-5.32-1.08,3.23-4.68-1.74-1-6.58,5.74L259.51,644l-2.21,6.48L248.84,658l-1.44,4.64L244,660.78l-4.65,6-14.46-1.17-1.4,4.71,2,5.06-6.7,9.36-7.88-2.35-10,1-1.43,3.22-8,5,2.19,10.08L187.38,705l-10-3.27-7.21-7.12-10.73-3-3.63,1.71-9.22-1.18L143,694.95l-14.34-.79-5.1-3.13-3.35-9.44L110.64,679l.12-3.91,6.44-5.42-.05-4.16-6.68-12.93-11.22-6.61-13.46,1.79-5.25,5-9.2,2-2.9,4.56-7.88-4.5-3.48,3L40.25,658l-6.54,4.3-1.64-5.55-11.48-1.85-1.44-4.6,2.26-6.79,9.1-2.09,5.88-7.54-1.77-14.2L44,610.2l1.58-5.26L30.45,588.81l1.61-10.29,8.12-7.68,3.06-9.51-.84-6.19-6.78-4.41.57-8.45,3.4-2.7L50,539.08l5-15.1,6-3.71,2-5,4.56-1.13,3.06,2.69,5.21-2.44,4.81,4.32,9.91-8.53,5.46,3.8,5.19-1.67,6.73-13L104,492l4.59-8.82,5.59-3.66-5.58-7.68,3.34-5.91-1.15-20,5.46-4.37,16.51-5.95,4.48-9.28L155,423.72l2.36-4.3,7.46-3.59,13.59-2.57,2.15-2.51-.55-4.4,5.33-1.78,21,14.23,10.95,3.49,4.09,5.62,9.46,2.07,2,2.84,5.9-5.67,1.18-4.63,24.45,24.56,6.33,3.79,16.57,3.28,19,14.13,1.75,4.39-2.15,6.63,3.59,1.82,2.56,8.64,5.85.42,8.34-6.57,15.5,1.77,1.52,2.88,9.49,4.64-.07,7.46,4.45,5.86-2.62,6.48,6.37.24,4.44,4.29,9.88,1,8.62-2.67L387,509l8-6,16.11-2.8L422.17,506l5.74,1,4.3-2.34,3,3.25,7.83.51,9-10.13.68-5L469,497.75l4-1.89,3.13-6.13"/>
      <path id="path4141" class="cls-11" d="M2.27,472.34l2.56-2.43,4.36-.37L17,458.68l-.18-5.37-4.42-3.08,2-2.17,6.83-2.1,1.22-2.38,8-.3,10.74-7.35,4.79.52,6.16-7.9,7.17-2.81,6.28,1.68,24-6.44,5.31-.27,3.51,3.23,10.16-3.08,5,7.35,9.27,3.69,5.61,5.28"/>
      <path id="path6820" class="cls-11" d="M239.26,423.79l1.7-7.08,3.8-2.26-.44-3.38,3.11-4.62-4.81-4.69,3.08-12.65,12.21-4.31,1-2.83,7.6-3.34,3.71-6.64,4.54-1.44.45-20.12,2.56-2.75-4.09-13.1,2.85-7.27-6.16-6.76,9.82-6.74-2.84-7.38,8.66-3.78,7,5.65,6.84.42,7.06-9.13.33-3.77,10.66-.76,7.77-5.6L317,280.94l-.78-5.46.38-3,5.72-4.91.74-7.23,4.28-2.85-8.63-6.06-14.66,5.71-4.61-9.89,5.43-1.2-3.45-7.89,5.69-5.36.28-6.57-8.6-4.69-14.88,4-1.76-4.35,2-12.91,13.46-2.59.77-6.77,3.6-3.8-.83-3.73,5.1-4.42,3.05,5.47L322.15,187l13.6,2.59,5.74-7.26,4.92.12,3.88-2.8-5.46-8,3.83-14.26,3.91-.61,7,5.21,3.25-4.09,5-.53,3.72-8,4.13,1.64-.08-5.6,13.82.15-.4-6,2.78-4.64,10.52-10.09,13.29-2.07,4.47,3.41,12.74-10.28-1.53-3.76,2.39-1.3.14-5.2-4,1.76-4.17-2.08-3.27-9.23-5.25-2.41-4.86-8.38-7.71.69-4.85,6.78-5.43.54-2.77-5.08L387,86.5l0-5,3-.5,3.23-3.34-.18-3.27,2.7-1-3.65-8.6,1.75-2.61-6-2.46,1.56-5.65,11.12-7.85.54-9.18,4.27-4.5-3.62-4.3-4.56.84-10.64-5.6L394.86,19l6.8-9.4,3-.6L403.51.06"/>
      <path id="path5059" class="cls-11" d="M447.56,864.29l-.21-.09.21,4.36,4.79,11.68-3.05,5.67-12.57,10.43.82,10.74-9,15.07,4.09,8.17.09,7.26-6.38.24-1,3.39,3.23,21.47,6.38,3.23-.27,11.44-4.18,5.55,17.78,16.65,5.52,15.37,8.72,7.56,4.27,34.1-.4,14.67,3.69,15.28,5.25,7,24.83,5.15,6.74,3.78,8.33,8,9.46,14.67,27.42,19.71-.55,6.53,4.58,10.4,6.77-.58,8.14,8.21,5.7,2.1,4.12,13.18,14.24-7.28"/>
      <path id="path9019" class="cls-11" d="M815.54,1560l-21.08-9.69-28.29-7-41.63.41L711.11,1536l-53.25-1.52-15.31-11.1-1.28,8-7.57,1.48-4.71,5.81-6.48-1.79L621,1548.16l-5-.16-7.76,5.45-3.37-2.49-3.39-8.33,1.15-5.23-3.46-4.67,5.9-6.8-5.43-2.22-4.13-8.46,1.58-5.79-8.12-13.13,2.63-7.25.42-20.9,5.94-3.59,1.83-7.6-8.66-4.46-15.67,1.9L567,1448l6.79-8.23-3.65-4.6-5-1.57,7.22-15,2.17-14-.2-7.52-2.74-4.27,1.87-4.74-.5-13-7.6-11.18.09-5.31-4.2.22-5.69-7.32,2.7-14.11-2.37-5.69-5.25.65L544.24,1322l2.56-16.88-7.24-4-4.18,3.3-5-6.65-6.67,5.26-4.63.17-1.9-4.14,1.5-9.84,8.22-3.07,6-11.89,7.69-4.8,9.11-11.55,4.54-.76,3.44,2.7-6,8,5,6.46,11.77-9.81,3.14-9,7.08-6.54-.3-7.06,3.64-7.53-.69-8.07,4.81-14.93,7.35-8.58L608,1192l-1.08-3.4-12.06-10.73"/>
      <path id="path9015" class="cls-12" d="M897.52,1093.05l11.89,5.34,23.32,24.42-9.81,11-12.54,7.92-1.44,6.58-9.56,4.95m-82.94,163.91-20.63,4-14.21-.9-12.84-5.14-5-7.48L760.19,1294l1-8.62,9.73-8.5-1.76-4.55-6-4.63,2.2-9.16,5.45-9.36-4.15-2.91-8-.92-7.14-7.89-2.69-6.74,4.89-10.25.84-9.52,8.24-12.38-.07-14.91,6.37-13.23,15-13.72,5.52-17.5,26.2-8,17.82-11.8,1.9-12.8,16.61-17.78,11.47-1,7.4,5.33,4.67-5.6,6.29-1.75,15.47,7.3"/>
      <path id="path5057" class="cls-12" d="M594.9,1177.86l4.58-3.4,38.41-3.37,27.09,11,51.73-8.29,9.21-9.44,4.33-10.58,7.65-9.55,20.78-5.45,16.23-8.55,10.1-10.16,1.56-8.73,5.06-6,12.54-7.15,6.33-1.19,15.93,8.6,9.16,1"/>
      <path id="path9007" class="cls-12" d="M871.4,1176.21c2.58.82,2.25.36,2.34-2.1l4.14-1.21,3-8.62,19.52-11.77.07,5.65,16.39,4.74,3,5.95,4.77,3.23,12.4,1.88,4,5.44,11.6,6.84"/>
      <path id="path5061" class="cls-12" d="M809.76,1097.9l-.55-24.46,6.34-9.85,1.83-7.69,8.69-5.83,2-10.65-6.34-14-7.75-8.72-19.67-4.45L786,983.27l-1.62-20.53-11.62-17.26,4.18-6.74-11.71,2.35-3.39-4.7-1.53-9.58-4.45-4.55-2.56,1.16-1.77,6.77L734.06,938l-8.42-1.25L666.7,893.16l-24.1-13,.58-14.64,5.61-12.63,9.21-8.42,1.1-8.69-12.45-20-10.34-11L633,788.63,609.94,794l-12,5.37L589.9,780.6l-7.14-4.51-9-12.81L585.87,750l-1.4-15.22-1.53-1.19,1.4,15.19-12,13.27,6.16,8.82L569.15,787C548.1,818.52,533,803.8,502.87,810c-10,.24-11.63,23.27-11.59,28.34-2.17,1-3.91-2.21-5.46,2.38-3.48,4.67-9.16.41-10.13-.7-2.57,2.75-6.34,9.22-8.39,12.29-1.82,2.73-6.89,8.64-8.24,10.37-5.53,3.24-4.28,1.6-9.88,1.89"/>
      <path id="path5067" class="cls-12" d="M476.21,489.74l3.46,9.55-1.23,8.19,3.09,2.68,1.49,5.92-6.39,10.15,6.2,4.6-.17,2.08L479,534.12l.45,4.79,15.84,12.47,5.13,1.08.79,5-1.46,17.3-7,24.19,1.31,5.39-4.63,4.7-3.54,9.86L485,630.33l4.32,4.8,2.1,7.88,4.31,4.84,6.71,1.95,18.21,24.4,8.36,6.14,14.39,2.39,3.21,2.43,1.75,7.47-3.06,7.68,2.64,5.17,35.19,27.78"/>
      <path id="path820" class="cls-2" d="M991.49,1001.54l-7.3-2.11-4,8.29-7.45,1.63-3.39,14.31-3.71.67-5.52-21.11,4.38-20.39,1.59-2.94,16.45-7.62L988.81,954l7.85-2.87,4.92-5.87,5.15-2.28,10.65,8.82.8,7.27,13.43-.06,3.12,12.22-6.82,2.39-3.88,8-11,6.47-3.25,30.35L997,1012.44l-5.14-5.6-.36-5.29"/>
      <path id="path7291" class="cls-12" d="M1090.84,842.38c-8.45-3-17.68-1.15-26.49-.8l-13,.52-4.37-2.42-1.23-4.16-10.22,4.63-3.41,10.78-17.53,4.27-27.69,3.87-13.53-8.14,1-7.19,12.18-14.57,11.18-20.88-.47-9,3.15-11.37L999,772.65l12.22-22.17-2.81-3.57"/>
      <path id="path5047" class="cls-12" d="M1064.63,841c-1.59-12.56.28-16.32,8.92-21.57,1.66-6.15,1.67-13.35,8.83-16,.36-3.71,1-5.79,4.45-6.18.26,0,4.58,0,4.87-.06"/>
      <path id="path5075" class="cls-12" d="M631,420.48l9.2,9.79,22.08,14.89,3.63,12.27,5.66,4.23,15.25,24.82,8.35,44.08-3.34,6.14L677,544.88l-8.95,16.65-3.26,19.71-10.55,22.33-.58,7.92,4.42,5L679,624.62l17.68,22.22,15.37,5.41,6.14,5.41,18.92,31,.33,3.68-7.33,16.58,0,5.65L736.34,727l17.29,11.4L769.57,755l17.31,5.15,5.76,5.79,6.91,26.28-2.05,45L869.14,836l-3.64-22.42,43.22-31.87,18.68-24.66,2.88-15.65-1-24.35,7.87-16.82L933,683.06l7.3-9.27,8.1-3.4,14.92,40.95,17.29,17.08,9.53,14,18.22,5.33"/>
      <path id="path9017" class="cls-10" d="M735.32,1358.91l-.62,5.68-6.56,7.65-12.93,0,.5,3.87,14.5,5.8,24.24-10.21,6.67,2.35,1.54-6.11,22.51,2.06.58,12-8.21,14.61,5.12,4.84,4.72,13.19.69,38.35-2.26,3.88-16.09,4.5-11.06,8.35-3.82,0-1,4.22,1.31,1.48,12.7-3.72-2.19,20.87,5.91,7.22,31.69-13.56,10.7,1.12-2.08,10,3,1.54,6.17-4.58,2.79-5.31-.9-2.73,1.86.7,3,8.25-.74,9.87L815.54,1560m.89-242.83.65,3-20.38,13.14-12,1.45-19.8,10.46L749,1350l-3.41-.84-2.13,7.49-8.16,2.19"/>
      <path id="path9013" class="cls-10" d="M873.41,1176.8l-6.57-2.69,3.78-7.93-.84-6.34,5.58-7.12-2-2.25,1-3.11-2.32-.71-3.31,4.24.83,4.31-2.82.24-.66,11.08-2.93,3.45,1.19,2.72-3.65-.35,1.37,2.8-3.11-.83.18,5.37,2.4,4,3.11-.5,8.23,7.23.9,2.33-1.91,1.42L878,1199l-7.37,6.34.31,2.82,10.43,7.49-5.57,13,1.16,20.68-4.2,3.79-41.42,13.44-20,14.11L807.44,1295l3.77,1,2.89,5.12,2.33,16"/>
      <path id="path9011" class="cls-10" d="M899.7,1225.86l-8.78,1.2-1.54-2.49,3-4-.3-5.8,1.66.4-3.63-5.67L892,1208l-.48-4.22-1.15-1.78-3.27,5.63-4.44-1.1,1.78-11.29-2.41-7.76-3.25-5.68c-1.09-1.7-10.86-6.38-5.12-5m78.94,9.49-5.66,16.32-17,13.86-17.64,9-12.61.4"/>
      <path id="path5071" class="cls-10" d="M1090.64,843.1l3.48-2.91,4,.14.37,4.74-3,4.93,4,10L1087,874l-10,36.69-5.56,5.91,4.48-5.76-4.55,1.67-1.9,3.84,2.19,14.81,8.06,9.41-1.52,4.77,1.65,9.56,3.6,5-1.94,5.07-6.61-1.91.5,3.1-2.58,2.06,2.86,6.8-4,3.29,8.61,4.07.25,3.84-12.38,23.41c-10.86,13.42-38.73,3.32-39.19,17.53l3.23,3,3,9.12.66,12.48-4.06,11.5-2,20.66-8.38,5-1.34,28.88-21.28,10.88-16.32,21-15.93,25.76-13.11,11.21"/>
      <path id="path5049" class="cls-10" d="M1108.51,746.28l-2.55,11.1-6.5-.66,3.37,10.2-5.2,3.19,2,3.39-1.35,1.18,3.64.63-4,4,3,2.31.45,4.33-2.2,2.73-5.79.95,4.9,3.11-3,2-2.08-2.09-1.6.84,1.74,2.65-3.19-.71,4.29,4-4.58-1.19L1090,802l-6.35.95,3.25.58-1.18,2.67,6.09-1.41-.33,2.27,3.92-2.8-.2,3.39,3.22,1.58,1,3.94-4,6.2-6.79-2.25,1.43,2.1-3.4-.53,1.22,2.31,5.38.35-6.85-.78-.32,3.1,4.14,1.76-4.82.89,1.26,3.44-2.66-.2-1,2.54,3.25.51-2.58,4.71,2.66-.33,2.87-4.58.4,1.79,6.12-1.93,1.9,3.61-7.93,2.64,1.07,3.87"/>
      <path id="path5066" class="cls-10" d="M1529,548.85l1,2.27-2.94,4.76,2.29,5.75-6.82,12.79-9.38,8.27-7.59,3.4-3.63,8-11.27-.18-8.77,10.5,1,4.7-3.64-.88.28,3.53-6.06,5.49-2.55-.81,2.94-1.68-1.54-1.71-2.69-.11.61,2.1-7.86-.53-9.94-5.12-5.28,2.83.42-4.85-2.51-3.53L1437,599.4l-6.34,3.55-6-1.4-12,10.8-13.28,1-17.6-5,.11-4.06-4.17,3.15L1369.4,603l-2.34,2.86-2.59-1.28-3.69,2.19.69,2.64-12.91,5.19-7.78-3-1-6.83-6-2.88-33.42-5.21L1258.43,586l-3.47-2.88,1.34-6.89-2.08-3-12-3.91-.75-9.06-4.42-2.93,1.44-6.39-4.59-12.84-8.31-3.65-1.13-3.64-5.73-4.36-10-4.39.09,6.82-2.73,2.91,3.46,5.94,7.31.45.37,2.48-2.81-.53,5.73,1.29-1.84,1.88,1.06,2.75,4,1.82,8.33,15.77-1.29,6,3,4.07-.65,4.65,11.77,16.87,3.22,11.42-2.63,4.92.65,3.85,2.62.76-.25,5.79-17,1.85-3.4-5.59-10.86-4-2.74-8.93-12.12,3.83-.29,3.94-4.68-.51-11.7,4L1168,628.17l-12.62,18.18-.45,20.67-11,3.39-4.1,14.88-5.83,9.18,2.08,1.39-2.18-1-3,6.71-7.06,6.28-1.18,6.13,2.87,11.14-8.45,7.4-3-.33,1.28-2.29-3.17-3.39-3.67.55,3.6,1.12-2.44,3.06,2.24.58-1.13,2.5,1.91,1.65-4.14,10.29"/>
      <path id="path5068" class="cls-11" d="M709.38,301.83l-4.12-8.38-1.45-14.31,5.88-14.83L727,254.17l19.68-25.24,1.59-53.4,8-15.76,20.1-24.11,1.33-17.15,2.57-3.78,5-1.25,5.45,1.93,7.32,7.5,10.63,2.35,8.18,4.7,2.89,2.58,1.14,8.11,5.41,3.08,34.47-7.84,11.92-10.42,28.44-12.69,19.27-3.41,38.7-22.59,15.74-.7,34.73,3.59,21.63-7.16,10.79.1,9.69,5.28,6.72,13.83,3.56,2.89,34.19,19.25,22.46-6.66,11.57,13.53,9.59,6.67,7.48,10.69,28,11.26,24.45-18.29,15,1.2L1226,130"/>
      <path id="path5062" class="cls-12" d="M709.38,301.83l15.67,3.51,18.64.25,4.78,3.5,2.77,15.33,3.93,3.94,20.32-3.66,4.51-5.26,6.1.87,2.33,8.91L786.25,340l3.34,5.69,26.87,9.93,13.8,8.32,28.42-1.41,9.44-5,30.21-1.46,9.43,2.34,13.44,17.14,6.54,14.6,12.48,8.18-1.51,19.73,2,16.42,8.15,3.78,11.77-1.16,6.47-3,18.61,11.61,21.71,1.74,12.58-2.21,19.86.31,3.89-30.62,12.13-7.83,3.63-21.08,2.25-1.67,4.3,5.32,6.2,1.56,12.61,11.36,8,3.12,4-5.57,8.42-23.38,7.75-2.22,20.44,9.49,13.22-24,2.87-3.26,9.45-3.14,13.88,10.61,1,7.24,5.3,6.14,7,3.17,12.53,41.39-3.41,30.08,2.94,5.69,19.48,6.38,10.76,6.35,8.65,16.44.46,11.87,11.38,10.64,16,1.23,18.55-3.52,11.17.35,10.35-5,25.55,2.67L1342,474l4.43.83,4.86,6,10.63-6.23,19.25-2,11.83,3.57,14.84,13.13,4.48,31.45,4,4.08,13.94-.22L1446.7,521l15.74,2.95,3.6,3.17,3.14,17.65,13.21,7.34,8.53.53,5.1-5.35,12.29-3.64,20.75,5.17"/>
      <path id="path5070" class="cls-10" d="M1193.58,205.83l-7.55-.75-7.54,3.63-14.35-.88-16.22,3.49-.33,2.92,5.28,1.53,5.13,5.94,1.5,17.87-4.71,1.73,2.41,5.49-8,.57,5.78,9,9.1-4.7,1.33,4.29,5.3,4,20.74,1.67,8.43,12.79,3.8-2.09-1.87,19.58-3.56,3.44.27,2.84,9.26,3.44-.8,4.75,8.74,12.7,14.66,6.77,16.54,3.38,3.37-2.58,3.24.74,5.79,6.76-3.78,9.61,22.25,27,10.09,3.05,3.83,5.4L1312.08,394l14.56,5,1.18,3.19,3.78-.07,12.47,7,2.76-.82,3.6,4.34,3.17-.37-5.11,3.3,3.27,1.35,3.75-2.53,1.37,2.45,3.11-2-.81,2.54.74-1.39,1.3,3.19-1.9,4.67,2.77-1.45-.08,5.65-8.32,1.57-3.12,2.83,2.86-.93.32,2.26,11-3-3.48,1.69,4.13,0,.13,3.77-5.84,3.73,3,2.28,4.09-1.7.41,5.51.66-1.4,3.14,3.17,4.2-7.67,2.77,1.74-4.36,7.7,3.08,2.57.3-5.44,3.57-2,3,2.68-4,3.11,3.37,1.23.81-2.76,2.09,2.47,0-3,4.58-1.28,1.41,2.65-3.37,1.46h3l-.46,2.07,2.88-1.8.45,1.92,1.14-2.37.22,2.28,5.22-1.65.15,3.65-.33-4.73,4.07-.57,12.6,12.12,11.57,6.86,4.17,5.74,9.43,4L1465,500.58l-1.15,10.31-12.72,1.46,15.92,2.34-.15-2.69,4,6-2.43-1.49-.9,2.05,15.82,10.06.47,10.76,2.22,3.89,3.85.48,5.3-5.9,14.76.73,7,1.89,6.26,6.47,3.56-.64,2.13,2.53M1226,130l6.27,5.07,7.3,1.75-1,5.4,6.79,7.24-1.81,2.49,2.46,6.84,5-.79.16-4.36,2-.68,6,6.53,3.26,12.57,2.5-3.39,2.52,4.42-2.8,6.43,3.25-.81.58,2.41-7.6,7.35,1.81,2.1-3.83,1.2-14.23,14.91-7.25-1-16.22,5.66-9-8.94-3.41,4.57-15.21-1.14"/>
    </g>
    <text class="cls-13" transform="translate(1272.61 1084.95)">MAKASSAR STRAIT</text>
    <text class="cls-14" transform="translate(1165.26 1556.36)"><tspan class="cls-15">K</tspan><tspan x="18.29" y="0">J7 </tspan><tspan class="cls-16" x="55.96" y="0">F</tspan><tspan x="71.04" y="0">o</tspan><tspan class="cls-17" x="87.46" y="0">r</tspan><tspan x="97.36" y="0">est</tspan></text>
    <circle class="cls-18" cx="1039" cy="244.55" r="8.86"/>
    <circle class="cls-18" cx="1124.9" cy="676.17" r="8.86"/>
    <text class="cls-13" transform="translate(984.46 224.22)">BERAU</text>
    <text class="cls-13" transform="translate(1006.67 646.88)">SANG<tspan class="cls-19" x="73.65" y="0">A</tspan><tspan x="88.58" y="0">T</tspan><tspan class="cls-19" x="105.12" y="0">T</tspan><tspan x="118.93" y="0">A</tspan></text>
    <circle class="cls-18" cx="1078.9" cy="792.38" r="8.86"/>
    <text class="cls-13" transform="translate(975.67 783.09)">BON<tspan class="cls-19" x="57.23" y="0">T</tspan><tspan x="71.04" y="0">ANG</tspan></text>
    <circle class="cls-18" cx="937.78" cy="957.71" r="8.86"/>
    <circle class="cls-18" cx="853.08" cy="1240.31" r="8.86"/>
    <circle class="cls-18" cx="687.74" cy="1461.65" r="8.86"/>
    <circle class="cls-18" cx="906.23" cy="1213.92" r="8.86"/>
    <circle class="cls-18" cx="545.78" cy="883.23" r="8.86"/>
    <text class="cls-13" transform="translate(863.72 1050.6)">SAMARIN<tspan class="cls-20" x="118" y="0">D</tspan><tspan x="136.58" y="0">A</tspan></text>
    <text class="cls-13" transform="translate(505.55 924.07)">SEN<tspan class="cls-20" x="51.67" y="0">D</tspan><tspan class="cls-21" x="70.25" y="0">AW</tspan><tspan x="110.22" y="0">AR</tspan></text>
    <text class="cls-13" transform="translate(790.27 942.43)">TENGGARANG</text>
    <circle class="cls-18" cx="470.18" cy="738.45" r="8.86"/>
    <text class="cls-13" transform="translate(389.88 716.9)">UJOH<tspan class="cls-22" x="73.42" y="0"> </tspan><tspan x="73.42" y="0">_</tspan><tspan class="cls-22" x="84.74" y="0" xml:space="preserve">             </tspan><tspan x="84.74" y="0">BILANG</tspan></text>
    <text class="cls-23" transform="translate(623.97 712.06)">EA<tspan class="cls-24" x="46.21" y="0">S</tspan><tspan x="69.12" y="0">T </tspan><tspan class="cls-25" x="101.02" y="0">	</tspan><tspan x="116.87" y="0">KALIMAN</tspan><tspan class="cls-26" x="277.88" y="0">T</tspan><tspan x="296.95" y="0">AN</tspan></text>
    <text class="cls-13" transform="translate(773.55 1200.73)">BALIK<tspan class="cls-27" x="73.04" y="0">P</tspan><tspan x="88.12" y="0">A</tspan><tspan class="cls-27" x="105.78" y="0">P</tspan><tspan x="120.86" y="0">AN</tspan></text>
    <text class="cls-13" transform="translate(853.84 1286.73)">PENAJAM</text>
    <text class="cls-13" transform="translate(607.18 1439.4)"><tspan class="cls-19">T</tspan><tspan x="13.81" y="0">ANAH</tspan><tspan class="cls-22" x="88.29" y="0" xml:space="preserve">           </tspan><tspan x="88.29" y="0">GROG</tspan><tspan class="cls-28" x="165.25" y="0">O</tspan><tspan x="184.5" y="0">T</tspan></text>
    <circle class="cls-18" cx="899.35" cy="544.53" r="6.26"/>
    <text class="cls-13" transform="translate(884.47 526.83)">MUARA<tspan class="cls-22" x="95.01" y="0" xml:space="preserve">         </tspan><tspan x="95.01" y="0">_</tspan><tspan class="cls-22" x="106.33" y="0" xml:space="preserve">    </tspan><tspan class="cls-21" x="106.33" y="0">W</tspan><tspan x="130.42" y="0">AHAU</tspan></text>
    <text class="cls-13" transform="translate(741.44 432.22)">P<tspan class="cls-29" x="16.58" y="0">T</tspan><tspan x="31.21" y="0">.</tspan><tspan class="cls-22" x="38.32" y="0"> </tspan><tspan x="38.32" y="0">RHOI</tspan></text>
    <rect class="cls-18" x="979.61" y="986.19" width="14.54" height="14.54"/>
  </g>
  <path d="M1636.55,5.06V1633H3.2V5.06H1636.55m5-5H-1.8V1638H1641.55V.06Z"/>
  <path class="cls-30" d="M695,414c-.4-1.87-.71-3.77-1.22-5.61-1.5-5.44-6-2.07-9-2.81-1.52-.37-3.41,1-4.91-.61l-1-7.21.79-.81c5-1.34,2.54-6.16,4.21-9.05l0,.07c5.06.62,10.11,1.26,15.18,1.84,3.16.36,6.27.37,8.87-1.93.83-1.78,3.19-.24,4.08-1.89l2-.07v0c-.14,1.49.58,2.14,2,2.06l-.09-.06c-.78,4.13,4.53,2.79,5.05,5.55.82,4.3,4.19,2.79,6.69,3.06A18.36,18.36,0,0,0,732,396l-.06-.05c-.74,4.36,1.54,8.52.86,12.88-3.59,1.22-4,3.74-2.24,6.56.9,1.42.88,2.19,0,3.45-1.34,1.9-.85,12.89.86,14,3.37,2.14,6.87,5.13,11.22,2.93,3.9-2,7.27,2.9,11,.4,2.28,3.34,6,3.4,9.41,4.4,6.17,1.8,11.71,4.36,16.14,9.8,2.78,3.4,3.4,8.73,8.51,10.33,2.39.75,5.37-.32,7.18,2.24-2.31,0-4.32,1.17-6.68,1.3-9.59.54-18.85,3.21-28.23,5.08-.86.17-3.24,0-2.45,2.94,3.74,14.24,7.1,28.57,10.6,42.87-.52,1.18.59,1.89.84,2.85-2.94-.06-5.88-.08-8.82-.18-1.66-.06-3.47-.34-3.92-2.19-1.14-4.73-4.34-6.24-8.77-6.11-.4-3.34-4.82-4.74-4.16-8.59l-.21,0c.1-3.79,3.41-5.76,4.94-8.74,1.16-.4,2.15-1.08,1.86-2.43-1-4.43-1-9.39-6-11.7-.5-5.58,3.23-9.36,5.81-13.62,2.29-3.77,2-9.37-.87-12.25-3.16-3.18-6-.49-8.66.94-4,2.13-7.7,4.9-11.83,6.71-2.95,1.29-4.13,3-3.54,5.9,1,4.77,2.25,9.44,2.29,14.4,0,1.6,1.71,3.14,3.55,4.31,3.17,2,6.84,3.77,8.36,7.68l-1,6.85q0,3.07,0,6.14L734.87,509c-2.14.09-3.31,2-5,2.83-2.56,1.31-4.4,3.73-8.06,1.51-2.11-1.28-5.28.62-8.06.81-11.34.76-21.77,4-30.95,11.38-4.14,3.31-9.7,3.45-14.76.66,0-.94-.22-1.77-1.24-2.12-1.47-4.58-5.44-9.2,1.44-13.21,2.28-1.33,2.33-5.07,2.44-7.62.13-3.22,1.81-4.25,4.13-5.24,2.82-.89,4.68-1,5.39,3,.8,4.48,4.09,4.68,7.7.88,2-4.53,6-6.91,10.4-8.13,2.93-.82,4.75-3.3,7.74-3.85,1.79-.33.92-2.08.78-3.28-.24-2.18-3-3-2.9-5.4l-1.05-10.29,0,.07H708l0-.06a1.72,1.72,0,0,0,1.68,2.18c1,1.23,2.65,1.59,3.06.13.62-2.22,1.49-5-.93-6.81-5.17-3.85-7.19-9.9-10.7-14.89-.4-.56-.14-1.59-.18-2.4-.79-5.39-2.54-10.65-2-16.2l-.06.11c1.52-.95,2-2.61,2.55-4.1,1.78-4.78.49-10.39-2.56-11.86l.1.07-1.14-1.1C695.79,416.82,696.14,414.41,695,414Zm17.92-4.95c-.45.14-2.54-.9-2.69.62s-2,2.83-.27,4.92c6.81,8.18,4.21,17.27,1.57,26.06a17.3,17.3,0,0,0-.62,6.75c.27,3,1.69,4.17,5,3.4,4.71-1.09,7.51-5.08,11.59-6.9,4.33-1.93,4-4.41,1.94-7.67-4.44-7.14-8.63-14.38-10.62-22.7C718.27,411,717.34,408.27,712.94,409.06Z"/>
  <rect class="cls-30" x="1108.51" y="1519.46" width="38.91" height="38.91"/>
</svg>
