<svg id="Layer_1" data-name="Layer 1" xmlns="http://www.w3.org/2000/svg" viewBox="0 0 936 612">
  <defs>
    <style>
      .cls-1 {
        fill: #939598;
      }

      .cls-1, .cls-13, .cls-14, .cls-2, .cls-3 {
        fill-rule: evenodd;
      }

      .cls-2 {
        fill: #bcbec0;
      }

      .cls-3 {
        fill: #e7d78f;
      }

      .cls-13, .cls-14, .cls-16, .cls-4 {
        fill: none;
      }

      .cls-4 {
        stroke: #fff;
      }

      .cls-13, .cls-14, .cls-4 {
        stroke-miterlimit: 2.61;
        stroke-width: 1px;
      }

      .cls-5 {
        font-size: 10px;
        fill: #77696e;
        font-family: -apple-system, BlinkMacSystemFont, "Segoe UI", "Roboto", "Oxygen", "Ubuntu", "Cantarell", "Fira Sans", "Droid Sans", "Helvetica Neue", sans-serif;
      }

      .cls-6 {
        letter-spacing: -0.01em;
      }

      .cls-7 {
        letter-spacing: -0.04em;
      }

      .cls-8 {
        letter-spacing: -0.01em;
      }

      .cls-9 {
        letter-spacing: 0em;
      }

      .cls-10 {
        letter-spacing: -0.09em;
      }

      .cls-11 {
        letter-spacing: -0.1em;
      }

      .cls-12 {
        letter-spacing: -0.02em;
      }

      .cls-13 {
        stroke: #231f20;
      }

      .cls-13, .cls-14 {
        stroke-dasharray: 1 3;
      }

      .cls-14 {
        stroke: #6d6e71;
      }

      .cls-15 {
        letter-spacing: 1.65em;
      }

      .cls-16 {
        stroke: #000;
        stroke-miterlimit: 10;
        stroke-width: 2px;
      }
    </style>
  </defs>
  <title>indonesia</title>
  <g>
    <g>
      <path class="cls-1" d="M561.89,421.73l2.47,2.86,3.47-1.78,3-.47.24-4.23-2.1.61-4.43.48-2.64,2.53Zm13.41-5.12,3.42,3.84,4,3.68.52-.22,3.06-3,2.7-.83,3.06.24,6.85-1.25,4.68-2.85,4.8-1.36,1.26-2,1.86-.3,3.3-2.14.06-1.36-1.56-1.54L607,409.14l-3.95-.24-3.71.83H596l-4.55.71-6.94-.36-5.27,4.62Z"/>
      <polygon class="cls-2" points="327.9 229.78 331.27 235.78 336.61 239.52 337.15 240.89 340.93 244.4 342.31 247.13 344.76 247.43 349.56 246.12 350.1 244.22 354.24 244.51 356.58 243.33 365.69 243.8 374.92 240.12 377.38 237.98 385.44 237.73 389.63 239.75 390.95 241.76 394.9 241.64 401.72 237.97 409.62 236.79 409.14 234.3 415.72 224.47 418.35 217.49 423.38 210.02 426.97 197.35 426.97 194.87 428.64 192.02 428.4 189.89 431.88 185.75 434.63 186.93 439.89 186.46 447.19 186.58 448.99 187.88 453.66 187.76 457.25 188.83 457.55 187.36 461.5 189.96 464.25 190.67 467.72 188.9 472.03 188.07 472.03 186.17 467.6 182.5 467.6 178.24 469.63 176.82 476.33 177.41 481.84 176.11 485.31 173.5 484.59 170.9 481.96 170.9 478.13 170.19 475.26 167.58 472.38 167.82 468.32 163.91 466.04 163.91 463.41 166.4 461.85 164.98 465.44 161.9 463.65 159.77 462.21 160.24 459.94 163.32 458.5 161.54 457.19 160.95 457.31 156.1 460.18 155.03 460.06 152.9 456.11 150.29 454.68 151.24 451.56 148.4 451.44 143.9 448.09 141.77 446.54 142.72 447.49 145.68 443.9 149.11 442.47 148.87 443.55 145.91 442.95 143.19 440.79 143.07 438.52 150.41 436.13 151 432.66 158.94 432.06 163.2 426.07 169.48 423.2 169.48 418.42 171.25 416.74 173.38 418.54 173.26 417.34 175.04 418.89 175.63 422.72 174.57 421.17 176.94 418.54 178.24 418.07 178.86 418.39 180.16 420.43 185.87 418.99 188.66 416.77 187.41 416.47 183.31 415.77 180.35 415.19 180.49 415.23 179.8 413.77 179.99 411.97 182.66 413.11 189.97 411.37 190.8 408.14 188.3 405.26 183.49 403.52 183.31 401.01 182.22 398.79 185.03 398.67 188.9 394.36 192.57 392.81 195.88 388.14 200.26 387.06 203.22 382.99 208.2 378.57 211.99 365.04 215.18 363.56 215.89 364.47 220.16 366.06 221.92 363.99 221.14 361.66 222.36 357.74 222.83 355.91 225.03 354.81 228.45 354.75 233.18 351.88 237.09 352 238.39 345.42 237.56 338.6 235.07 333.81 235.19 332.02 232.59 329.14 229.39 327.9 229.78"/>
    </g>
    <g>
      <polygon class="cls-3" points="85.89 166.34 88.28 165.15 95.11 166.1 102.76 171.31 105.16 172.85 110.06 171.55 114.25 171.67 116.05 172.85 118.32 172.02 121.79 172.02 125.62 173.44 128.01 177.7 129.45 178.18 131.36 182.2 134.71 183.98 135.55 189.19 136.63 191.68 140.58 192.27 144.53 196.65 147.76 197.01 157.33 203.28 158.65 205.53 162.24 206.24 165.23 210.03 165.47 214.89 167.14 217.25 169.42 215 170.38 219.39 172.29 220.69 173.13 219.15 177.07 219.39 183.3 222.82 188.09 227.56 188.86 233.63 191.56 235.71 193.72 235.06 195.99 235.53 202.95 242.31 203.49 246.58 203.49 248.78 207.62 252.17 213.44 251.99 217.22 253.77 218 255.85 216.38 258.11 214.82 258.52 213.26 259.95 210.86 260.43 215.06 260.19 218.47 258.11 222.31 255.56 225.25 255.91 230.34 261.5 231.31 264.88 226.39 265.65 222.43 268.57 219.85 270.88 223.45 269.58 225.43 270.35 229.03 269.81 231.54 271.12 227.69 273.26 224.34 274.8 224.22 277.52 229.85 281.31 236.31 281.43 237.99 282.97 241.93 281.43 242.41 289.49 243.73 293.04 242.17 296.24 244.33 294.93 246.72 298.13 247.2 302.98 250.43 303.46 255.46 302.87 258.57 304.17 259.53 306.77 261.56 307.84 262.88 311.63 265.87 314 268.38 315.18 268.86 318.26 267.54 320.63 264.55 321.93 264.31 327.14 265.75 329.63 263 336.14 264.79 342.18 263.12 351.18 263.47 358.52 261.2 360.77 259.29 359.94 256.3 355.32 253.54 354.73 252.23 356.98 252.11 361.24 250.79 362.31 244.33 356.39 241.34 355.8 241.34 357.57 242.29 359.23 242.29 362.43 241.1 363.85 238.82 360.06 236.67 359.11 235.83 355.68 226.02 347.15 221.23 345.85 219.56 342.3 212.14 337.68 207.83 332.94 204.24 330.69 203.64 325.96 199.57 323.35 197.9 321.46 193.23 320.51 191.56 316.48 185.45 309.02 179.47 304.52 177.91 300.38 178.27 295.76 172.05 284.39 171.33 276.34 167.5 273.5 163.44 266.39 163.44 263.55 158.53 260.24 154.22 258.94 152.66 254.2 149.31 245.44 149.47 244.38 147.85 240.22 145.75 237.91 147.07 235.59 146.47 233.87 144.49 234.16 142.22 232.86 137.78 227.33 134.31 227.39 132.21 225.49 131.6 221.28 130.05 219.98 130.05 215.72 128.37 215.72 122.51 210.15 116.64 200.91 111.26 196.41 109.11 197.24 106.59 196.3 102.16 190.85 100.01 190.85 92.83 183.03 90.2 181.85 86.04 172.91 85.2 168.1 85.89 166.34"/>
      <polygon class="cls-3" points="95.39 212.54 94.08 213.9 93.12 215.93 96.3 217.89 100.19 217.35 97.91 214.32 95.39 212.54"/>
      <polygon class="cls-3" points="118 226.98 121.89 228.22 120.45 226.15 118 226.98"/>
      <polygon class="cls-3" points="118.18 239.45 121.41 239.34 123.03 237.61 125.19 238.38 127.65 243.02 131.49 245.99 130.47 248.31 129.78 252.59 128.31 253.28 125.16 247.51 122.82 246.92 121.98 243.27 118.18 239.45"/>
      <polygon class="cls-3" points="141.92 261.62 145.81 261.68 147.25 262.69 147.61 260.55 143.72 259.18 141.92 261.62"/>
      <polygon class="cls-3" points="139.7 270.53 138.02 274.09 140 276.35 142.34 274.04 142.28 271.66 139.7 270.53"/>
      <polygon class="cls-3" points="141.9 282.74 141.9 285.34 145.49 286.64 149.79 293.04 153.98 294.34 153.98 288.18 149.07 281.2 145.37 280.01 141.9 282.74"/>
      <polygon class="cls-3" points="159.96 297.65 158.29 299.55 160.2 302.04 163.91 303.22 159.96 297.65"/>
      <polygon class="cls-3" points="166.07 308.07 166.54 311.63 169.06 309.38 166.07 308.07"/>
      <polygon class="cls-3" points="170.97 311.27 168.82 314.23 174.92 319.8 174.2 316.6 174.44 313.88 170.97 311.27"/>
      <polygon class="cls-3" points="201.69 352.64 205.88 355.67 205.82 353.35 203.73 351.81 201.69 352.64"/>
      <polygon class="cls-3" points="190.18 229.53 191.98 234.46 194.97 233.99 197.97 230.6 195.03 227.27 192.99 229 190.18 229.53"/>
      <polygon class="cls-3" points="201.63 237.55 205.76 243.61 207.38 245.04 209.48 241.47 207.68 238.98 203.37 237.43 201.63 237.55"/>
      <polygon class="cls-3" points="211.04 242.6 208.58 246.7 209.18 249.79 214.88 250.45 218.78 252.35 220.03 251.28 218.95 246.53 215.3 243.44 211.04 242.6"/>
      <polygon class="cls-3" points="252.77 373.85 253.13 375.51 254.32 375.4 254.44 373.85 252.77 373.85"/>
      <polygon class="cls-3" points="255.22 376.17 256.54 377.54 259.06 376.64 259.36 373.32 262.84 372.84 264.4 369.46 264.16 366.01 267.51 362.15 269.01 363.63 272.91 363.57 278.25 364.4 280.76 366.42 282.14 365.24 283.64 363.57 288.74 363.87 291.98 366.42 297.91 367.85 305.16 368.62 307.08 372.07 306.48 375.28 307.8 376.64 313.5 379.2 323.51 379.02 332.38 380.45 339.94 379.2 341.97 376.52 342.93 370.05 346.05 369.87 350.13 374.15 352.76 374.09 355.76 373.55 358.04 374.92 361.52 377.95 364.39 377.77 366.73 380.33 368.89 379.26 373.33 379.32 373.51 383.71 376.68 387.88 376.92 390.31 379.2 392.86 382.92 394.59 386.51 393.28 389.1 394.82 391.79 394.71 393.95 393.34 396.65 393.28 397.43 394.35 400.31 394.82 402.17 396.85 401.14 404.04 399.47 406.11 401.32 407.36 402.28 412.29 400.31 412.89 397.85 410.39 394.13 410.81 389.87 407.3 386.46 406.41 383.28 403.09 380.76 403.02 376.03 405.46 371.06 405.65 366.87 403.28 362.2 402.33 358.37 405.53 354.18 402.57 348.44 402.21 344.97 404.11 336.23 400.79 328.21 395.82 322.95 395.94 319 393.21 316.61 393.33 314.57 395.7 311.46 395.11 308.95 392.5 306.66 392.69 303.67 396.13 296.29 394.05 291.13 390.19 286.1 389.84 283.82 388.65 280.76 390.43 276.87 389.06 272.49 388.35 270.99 386.92 273.27 382.82 274.71 381.46 272.37 381.34 270.39 382.41 268.17 381.04 266.68 378.19 263.08 379.62 256.37 379.5 254.21 378.25 254.09 376.35 255.22 376.17"/>
      <polygon class="cls-3" points="298.33 191.39 301.63 194.54 303.48 194.54 302.76 197.09 305.22 197.09 306.6 192.46 302.82 187.41 300.01 189.07 298.33 191.39"/>
      <polygon class="cls-3" points="270.69 211.47 270.63 214.14 272.43 213.19 270.69 211.47"/>
      <polygon class="cls-3" points="270.63 204.58 272.43 202.68 270.39 201.72 270.63 204.58"/>
      <polygon class="cls-3" points="271.05 206.06 270.03 208.02 272.25 208.32 271.05 206.06"/>
      <polygon class="cls-3" points="260.65 209.16 260.29 212.01 262.09 213.11 265.32 209.7 262.63 208.66 260.65 209.16"/>
      <polygon class="cls-3" points="240.3 242.25 238.8 245.57 242.33 246.53 243.35 250.62 245.51 249.85 246.53 244.86 244.91 243.14 246.23 240.58 244.43 241 242.87 242.42 240.3 242.25"/>
      <polygon class="cls-3" points="292.15 306.75 293.35 309.61 293.17 311.21 289.79 312.01 288.68 313.68 291.31 313.8 291.22 312.73 293.41 311.63 293.32 316.29 295.84 318.82 298.66 314.51 300.4 317.09 302.94 317.6 303.94 315.28 306.48 314.09 304.95 310.82 299.41 307.29 293.83 306.25 292.15 306.75"/>
      <polygon class="cls-3" points="281.42 312.95 280.94 315.74 282.92 314.02 281.42 312.95"/>
      <polygon class="cls-3" points="257.56 291.92 257.5 294.59 254.38 296.97 256.42 299.64 262.48 300.06 264.1 301.66 264.22 304.93 266.08 306.12 267.09 310.51 270.81 312.89 274.11 312.48 275.19 315.74 276.75 317.05 278.43 314.62 277.29 311.29 279.03 307.25 273.57 306 270.03 302.14 268.71 294.71 267.39 293.52 266.97 290.73 264.57 289.6 262.48 289.6 262.78 292.51 263.98 294.65 260.8 293.58 258.64 291.32 257.56 291.92"/>
      <polygon class="cls-3" points="241.56 271.72 239.88 273.92 242.57 276.47 245.45 274.81 244.38 271.72 241.56 271.72"/>
      <polygon class="cls-3" points="244.19 264.59 242.4 267.8 244.07 269.81 246.77 268.92 250.61 270.94 251.93 269.88 246.89 265.24 244.19 264.59"/>
      <polygon class="cls-3" points="232.14 245.34 235.68 246.46 237.3 243.26 236.64 240.94 232.14 245.34"/>
      <polygon class="cls-3" points="166.08 165.91 166.68 169.29 168.48 171.73 169.8 170.84 169.2 168.58 167.46 166.26 166.08 165.91"/>
      <polygon class="cls-1" points="415.77 180.35 416.47 183.31 416.77 187.41 418.99 188.66 420.43 185.87 418.39 180.16 418.07 178.86 417.22 180.01 415.77 180.35"/>
      <polygon class="cls-1" points="401.01 182.22 403.52 183.31 405.26 183.49 408.14 188.3 411.37 190.8 413.11 189.97 411.97 182.66 413.77 179.99 415.23 179.8 415.31 178.59 415.06 175.28 411.83 176.46 407.88 179.42 401.8 181.23 401.01 182.22"/>
      <polygon class="cls-3" points="850.47 307.15 848.38 368.83 847.42 373.5 847.37 376.14 848.09 377.51 846.74 417.46 845.75 417.44 841.68 416.02 837.04 411.06 835.97 408.68 836.09 407.61 832.73 404.64 831.17 403.69 830.57 401.14 832.07 398.76 831.95 395.08 831.17 398.7 829.01 400.07 824.03 399.71 821.22 401.2 818.88 401.14 817.44 399.71 813.54 401.79 811.5 399.48 813.01 398.52 814.02 395.97 814.02 394.07 814.8 393 815.4 388.78 813.3 387.95 811.45 385.57 813.24 385.16 814.74 385.63 818.04 384.32 820.14 384.09 817.74 383.43 814.09 383.97 811.15 382.6 808.39 380.52 809.23 378.38 810.79 378.2 813.36 378.5 811.99 376.84 807.67 373.75 804.79 371.79 803.86 369.71 804.7 366.28 800.99 362.49 800.99 361.07 804.34 358.34 801.23 358.58 799.31 357.27 800.03 356.09 798.72 354.55 801.11 352.66 797.28 353.37 796.2 352.07 794.41 352.78 793.09 351.83 795.84 348.63 793.45 350.05 790.46 350.17 786.03 348.4 784.83 345.32 780.28 343.78 777.41 344.25 767.6 341.17 757.43 338.09 752.46 337.78 748.5 335.94 747.72 334.52 747.29 333.21 743.75 332.44 743.93 330.07 746.33 329.71 747.65 330.07 747.48 329.3 745.01 328.88 742.19 330.01 739.97 329.18 738.89 327.81 737.93 327.52 736.49 329.18 735.88 325.92 734.57 325.03 733.3 325.62 732.46 326.98 730.6 324.97 729.58 320.93 728.11 317.49 730.15 314.88 730.15 310.98 728.47 314.18 727.15 317.73 726.68 320.21 725.24 320.93 722.73 325.42 723.09 328.15 719.74 332.29 716.38 333 713.39 332.05 710.88 326.49 711 324.48 712.43 323.88 712.79 321.64 712.32 319.39 710.28 320.09 709.08 318.91 707.41 314.88 704.42 313.35 700.59 312.75 699.39 311.1 701.42 308.61 705.38 308.25 706.69 309.56 710.16 309.91 712.67 311.22 715.9 309.32 716.98 305.41 719.5 304.58 724.64 306.95 726.68 309.91 728.11 306.72 729.91 304.35 731.58 304.94 732.06 301.39 731.1 299.26 722.73 298.31 723.92 299.96 721.89 300.44 720.21 299.96 715.07 301.03 713.03 300.32 711.12 301.27 709.08 300.08 706.09 300.79 702.98 300.32 699.51 297.48 698.55 293.69 699.27 292.74 697.48 289.66 692.81 287.06 691.01 285.16 690.06 286.47 687.43 287.89 683.6 287.3 684.19 285.28 688.14 282.8 688.5 280.43 687.31 278.3 689.82 276.17 694.37 276.05 696.64 273.92 699.27 273.2 703.58 269.89 704.89 268.7 710.16 267.64 718.66 270.84 723.92 274.39 729.31 274.15 734.81 274.62 736.13 276.05 735.05 277.82 735.05 281.85 737.92 284.22 739 287.18 736.97 290.14 735.17 293.22 736.37 297.6 736.61 305.18 738.76 308.85 740.68 311.22 741.99 311.33 741.63 307.19 743.19 305.53 745.1 306.72 744.98 310.03 746.06 313.23 747.14 312.52 748.22 315.48 751.92 318.44 753.84 320.45 756.59 320.45 759.82 319.03 760.66 316.07 762.46 314.65 764.32 313.98 764.32 309.88 766.42 306.49 769.66 306.19 772.84 304.35 773.2 301.32 774.4 299.6 775.89 300.31 777.93 300.13 780.99 299 785.79 298.41 786.45 296.03 784.89 293.12 785.49 291.52 793.76 286.7 797.66 287.06 800.36 289.56 805.39 291.75 811.33 293.06 814.44 295.68 817.8 295.97 822 297.16 831.59 301.5 834.05 301.02 836.33 301.38 840.46 302.39 843.46 302.27 845.92 303.99 845.44 305.42 845.56 307.2 847.66 307.92 850.41 307.14 850.47 307.15"/>
      <polygon class="cls-3" points="652.72 261.49 659.03 264.64 659.51 266.3 655 263.86 652.72 261.49"/>
      <polygon class="cls-3" points="685.87 268.13 681.06 265.47 679.92 266.12 680.34 266.83 683.05 267.9 683.11 269.26 680.34 269.68 677.28 268.31 672.48 267.6 674.76 266.95 673.68 265.82 674.7 265.23 678 265.17 680.52 263.27 686.11 263.27 690.13 265.7 690.73 267.96 687.97 268.91 685.87 268.13"/>
      <polygon class="cls-3" points="680.46 277.93 677.04 276.68 673.92 277.33 676.5 278.7 680.46 277.93"/>
      <polygon class="cls-3" points="682.87 275.55 680.16 275.97 681.6 277.51 682.87 275.55"/>
      <polygon class="cls-3" points="682.33 277.98 678.9 280.42 678.96 284.87 682.51 285.64 684.07 284.51 684.91 278.93 682.33 277.98"/>
      <polygon class="cls-3" points="589.66 197.78 593.01 201.57 594.08 205 592.65 206.66 589.66 204.05 589.06 199.91 589.66 197.78"/>
      <polygon class="cls-3" points="609.91 185.92 611.11 189.89 611.47 192.98 613.15 192.26 614.48 189.36 613.7 186.27 611.47 184.85 609.91 185.92"/>
      <path class="cls-3" d="M609.91,193.92l1.8.48,1,3.08h-1.26S609.91,194,609.91,193.92Z"/>
      <polygon class="cls-3" points="636.57 224.36 637.59 229.58 639.45 227.97 641.91 228.15 644.32 225.84 643.36 223.29 641.19 221.93 639.09 223.47 636.57 224.36"/>
      <polygon class="cls-3" points="633.46 268.35 630.7 263.02 630.7 256.86 633.1 256.04 636.93 257.22 641.23 257.34 643.51 259.12 646.74 258.88 645.18 257.57 644.58 255.21 640.4 252.25 638.24 252.01 636.93 249.76 639.08 247.27 645.06 245.26 647.58 239.46 647.34 237.09 645.42 235.07 640.16 236.97 635.13 239.46 634.77 241.71 636.45 241.83 635.01 243.48 632.14 244.78 631.06 247.39 629.15 247.75 627.71 245.02 630.1 242.65 632.74 242.53 634.05 238.39 634.05 233.42 631.18 232.23 630.59 230.46 633.1 227.62 633.46 225.01 631.78 225.49 626.75 230.34 625.68 235.07 626.03 239.22 624 240.76 622.93 244.9 624.6 247.04 626.52 250.47 625.2 252.6 624.6 255.92 627.83 258.52 627.35 260.54 627.95 262.43 626.63 265.86 628.79 269.53 632.26 271.67 634.89 276.99 637.76 278.18 638.48 280.78 638.72 278.77 640.04 278.3 639.08 276.76 634.77 272.97 633.46 268.35"/>
      <polygon class="cls-3" points="620.12 275.73 621.32 278.16 617.9 277.15 619.1 274.96 620.12 275.73"/>
      <polygon class="cls-3" points="620 269.14 618.14 269.09 617.12 272.29 619.16 273.06 620.06 270.87 620 269.14"/>
      <polygon class="cls-3" points="622.76 270.98 625.04 270.57 626.9 271.88 626.72 274.31 629.06 275.31 629.9 276.68 628.4 278.22 626.61 276.56 623.78 276.62 621.98 273.89 621.74 271.93 622.76 270.98"/>
      <polygon class="cls-3" points="622.22 290.08 626.85 286.64 630.87 286.82 634.95 290.92 633.99 292.81 631.95 292.81 629.18 292.81 626.96 293.23 624.08 292.04 622.22 290.08"/>
      <polygon class="cls-3" points="670.14 291.57 664.01 293.05 661.85 294.48 663.29 295.84 668.57 297.56 673.14 296.2 671.82 295.48 671.58 292.99 670.14 291.57"/>
      <polygon class="cls-3" points="641.55 323.66 643.42 323.37 643.54 324.61 642.28 324.97 641.55 323.66"/>
      <polygon class="cls-3" points="638.43 323.9 640.11 323.9 640.41 325.38 638.79 325.38 638.43 323.9"/>
      <polygon class="cls-3" points="629.9 325.56 633.81 324.37 635.43 323.19 637.17 324.02 635.19 327.52 634.59 325.98 632.13 327.46 629.9 325.56"/>
      <polygon class="cls-3" points="628.7 315.54 626.78 317.26 628.64 317.55 628.7 315.54"/>
      <polygon class="cls-3" points="632.25 312.15 629.37 312.33 630.03 313.76 631.71 313.64 632.25 312.15"/>
      <polygon class="cls-3" points="633.1 321.4 636.09 316.66 638.6 319.39 640.04 321.52 643.03 321.28 646.14 318.2 648.17 318.2 649.97 321.28 657.15 322.11 658.71 319.98 662.05 319.98 668.64 323.88 671.63 324.48 675.22 328.27 678.69 328.27 680 325.31 678.45 319.15 670.19 314.53 663.37 313.23 660.02 310.5 656.43 310.15 653.44 312.75 649.97 312.4 647.58 311.45 642.67 311.81 635.85 311.69 634.41 313.58 634.17 315.48 631.42 316.43 630.34 319.27 631.18 321.4 633.1 321.4"/>
      <polygon class="cls-3" points="600.31 316.19 603.42 317.49 606.05 315.24 612.39 315.6 617.06 317.49 617.3 319.39 620.17 322.7 619.93 325.19 617.18 325.07 613.83 328.03 610 327.67 606.05 328.03 604.62 326.73 599.71 325.78 597.08 322.23 597.55 318.08 600.31 316.19"/>
      <polygon class="cls-3" points="508.53 383.9 506.25 382.71 504.96 383.9 506.79 385.41 508.53 383.9"/>
      <polygon class="cls-3" points="505.07 361.09 507.71 366.31 506.39 368.75 505.13 372.19 504.41 369.75 502.97 367.44 504.11 365.36 504.35 362.75 505.07 361.09"/>
      <polygon class="cls-3" points="597.24 297.68 597.24 300.29 599.52 303.97 599.4 305.51 598.08 304.92 596.64 301.06 596.04 298.33 597.24 297.68"/>
      <polygon class="cls-3" points="588.05 293.7 589.86 292.87 592.38 293.82 594.72 292.75 600.9 293.58 604.27 294.18 600.36 295.13 593.1 296.79 589.5 295.78 589.38 294.53 588.05 293.7"/>
      <polygon class="cls-3" points="571.6 294 573.76 291.86 575.38 292.28 577.43 291.45 580.73 292.28 582.83 293.41 584.93 291.86 587.09 292.64 587.15 295.42 584.57 295.13 581.63 296.49 579.29 295.9 575.69 298.04 572.56 297.38 571.36 295.6 571.6 294"/>
      <polygon class="cls-3" points="542.36 354.69 545.18 349.88 546.68 344.78 546.98 339.62 548.37 338.37 550.71 338.73 550.77 340.87 551.79 343.06 551.67 344.6 550.83 343.3 550.28 344.73 548.3 346.26 547.34 347.51 548.06 350 550.71 350.6 551.25 352.08 550.11 353.44 548.13 354.09 546.26 357.24 544.16 358.31 541.94 357.12 542.36 354.69"/>
      <path class="cls-3" d="M534.73,351.36l2.94-3.32-1-2,2.22-2.25,2.82-1.42,1.5,2.79-.06,1.72-2.1,2.14-.36,2.73-1.26.35-.42,1.31-2.88.36-1.32-1.07S534.85,351.31,534.73,351.36Z"/>
      <path class="cls-3" d="M527.47,349l-.18,2.08-1,1,1.2,3.56,1.44.59,2.46-1.66-.78-3.32-2-2.85S527.53,349,527.47,349Z"/>
      <path class="cls-3" d="M551.72,295.11l-2.51,1.07,1.8.83S551.72,295.23,551.72,295.11Z"/>
      <polygon class="cls-3" points="555.2 293.1 553.76 294.4 556.15 294.75 555.2 293.1"/>
      <polygon class="cls-3" points="559.5 289.78 557.59 291.2 560.1 292.03 559.5 289.78"/>
      <polygon class="cls-3" points="545.6 285.93 549.32 283.74 553.88 284.1 554.24 285.52 553.16 287.41 555.67 286.82 556.87 284.81 559.26 286.59 558.67 289.07 555.67 289.78 554.72 288.6 553.16 290.85 550.41 288.84 548.25 290.73 545.74 288.95 545.6 285.93"/>
      <path class="cls-3" d="M528.13,269.74l2.64,1.07.12-1.78S528.19,269.68,528.13,269.74Z"/>
      <polygon class="cls-3" points="525.79 270.57 527.29 270.51 529.57 271.88 527.23 272.41 525.79 270.57"/>
      <polygon class="cls-3" points="504.93 256.15 508.76 254.85 513.31 256.98 518.7 257.1 524.68 254.14 528.63 254.61 530.07 256.51 533.53 256.51 535.57 255.56 542.63 256.27 546.34 256.04 547.06 255.09 551.01 255.21 553.64 256.63 554.48 258.29 557.83 259.35 570.39 256.51 575.66 252.96 577.09 250.23 579.25 250 581.04 247.87 583.32 246.33 584.39 243.48 585.83 241.12 587.38 239.93 585.83 238.27 585.47 236.38 580.8 235.31 577.57 236.38 576.97 239.58 574.46 241.47 574.22 243.13 570.75 245.62 568.12 245.97 566.44 248.46 562.49 249.4 554.6 247.87 547.89 247.27 546.7 249.05 545.14 249.29 541.91 246.44 539.4 246.21 536.53 246.33 533.41 245.62 529.11 244.9 526.83 246.33 524.32 244.9 521.09 241.83 516.18 240.88 513.19 241 513.19 244.55 510.68 246.21 509.24 249.29 507.09 251.18 502.78 249.76 498.83 250.71 497.27 252.48 497.63 253.67 493.45 257.57 493.45 262.31 494.29 265.03 494.05 270.48 493.21 272.38 494.88 276.28 495.36 279.36 494.05 277.7 493.09 275.22 490.93 275.81 488.78 278.42 486.15 279.83 485.55 283.03 486.03 286.82 484.83 289.31 485.67 296.18 484.83 297.71 484.35 300.44 482.2 301.39 482.32 305.53 478.49 308.49 477.29 312.75 477.89 314.06 476.45 315.95 478.37 321.64 480.16 324.24 481.36 323.53 483.87 323.53 485.67 322.23 487.34 323.06 488.42 327.2 491.29 334.78 490.1 336.67 489.14 340.94 486.75 344.37 486.39 351.48 486.86 357.04 488.66 357.04 490.93 358.46 494.4 358.34 495.96 356.57 499.07 357.27 501.82 356.8 503.86 358.34 504.45 355.74 504.1 352.42 501.82 350.88 501.34 346.62 503.14 343.66 503.86 338.21 503.26 333.12 501.94 331.7 505.17 326.96 506.25 322.7 505.29 317.61 503.14 315.71 503.14 314.18 506.73 311.93 508.17 309.67 511.52 308.97 514.87 310.15 514.51 311.81 516.06 314.53 516.06 317.85 513.43 320.81 512.71 323.77 514.51 327.08 516.78 327.44 518.82 329.92 522.65 332.17 523.24 335.25 521.93 335.01 521.09 341.06 522.28 344.37 524.68 345.2 526.47 344.61 530.18 346.15 532.94 345.67 532.7 344.49 531.74 342.12 534.61 339.51 537.48 338.81 541.43 336.56 546.34 336.91 548.13 335.01 549.45 335.73 551.84 335.73 553.28 333.36 552.8 331.94 548.49 331.58 547.18 332.17 545.74 331.7 542.63 332.05 542.39 329.69 540.83 329.45 540.95 327.91 539.52 327.56 538.08 328.38 537.96 326.61 535.09 325.78 534.13 323.77 536.05 321.87 536.76 320.33 537.96 320.81 537 318.79 538.44 318.56 539.16 316.9 537.6 315.36 535.33 314.65 536.29 313.11 535.93 311.33 533.06 309.44 531.14 309.32 530.3 306.24 525.76 301.15 523 299.26 521.33 296.3 521.69 294.99 523 295.11 523.72 296.77 526.72 296.89 529.35 294.87 530.07 292.86 536.76 290.49 541.55 286.82 543.83 283.03 546.82 281.5 546.94 279.24 550.53 278.42 553.76 280.07 555.79 280.31 558.67 276.28 558.67 273.68 555.2 272.38 547.77 273.09 544.54 275.33 539.64 275.33 537.24 276.05 534.37 279.01 531.26 278.77 528.87 279.36 525.76 277.47 522.76 276.64 519.53 280.78 517.26 286.23 514.03 287.89 510.56 287.41 509.72 285.88 505.41 281.14 501.11 277.47 498.83 271.67 499.31 265.27 501.94 259.12 504.93 256.15"/>
      <polygon class="cls-3" points="458.75 192.25 459.71 193.91 458.06 193.18 458.75 192.25"/>
      <polygon class="cls-3" points="458.87 190.42 462.38 191.72 462.44 192.82 459.71 192.7 458.75 191.1 458.87 190.42"/>
      <polygon class="cls-3" points="460.73 199.58 457.34 200.41 459.83 201.09 460.73 199.58"/>
      <polygon class="cls-3" points="457.19 202.93 458.78 203.85 458.75 206.76 457.67 206.43 457.19 202.93"/>
      <polygon class="cls-3" points="436.38 321.52 437.25 322.32 436.86 326.68 435.96 326.95 435.78 322.82 436.38 321.52"/>
      <polygon class="cls-3" points="434.97 321.7 435.15 327.42 434.28 330.71 431.73 332.46 430.41 330.86 430.92 326.12 432.63 321.37 434.16 320.42 434.97 321.7"/>
      <polygon class="cls-3" points="319.98 269.73 324.04 270.92 324.64 271.81 322.93 272.76 319.95 271.72 319.35 270.18 319.98 269.73"/>
      <polygon class="cls-3" points="321.57 276.88 325.84 277.62 327.67 279.37 328.99 279.76 329.08 280.94 325.18 280.76 323.56 280.85 321.21 278.16 321.57 276.88"/>
      <path class="cls-3" d="M325,282.07l4.12.18,2.4,1.69-3.21,3.32-2.07.59-1.38-1.75.48-2.11S325,282.1,325,282.07Z"/>
      <polygon class="cls-3" points="317.06 242.77 319.69 238.27 323.64 233.06 325.32 230.58 327.9 229.78 331.27 235.78 336.61 239.52 337.15 240.89 340.93 244.4 342.31 247.13 344.76 247.43 349.56 246.12 350.1 244.22 354.24 244.51 356.58 243.33 365.69 243.8 374.92 240.12 377.38 237.98 385.44 237.73 389.63 239.75 390.95 241.76 394.9 241.64 401.72 237.97 409.62 236.79 409.14 234.3 415.72 224.47 418.35 217.49 423.38 210.02 426.97 197.35 426.97 194.87 428.64 192.02 428.4 189.89 431.88 185.75 434.63 186.93 439.89 186.46 447.19 186.58 448.99 187.88 453.66 187.76 457.25 188.83 457.07 189.72 455.39 190.08 455.63 191.62 454.56 193.28 458.02 194.58 461.25 198.37 457.55 199.32 453.84 198.72 452.28 199.67 454.91 202.75 456.32 203.52 456.7 205.32 455.27 205.71 454.08 208.2 456.83 210.56 457.9 214 463.41 219.68 465.92 221.93 464.25 225.01 459.94 225.96 459.34 227.97 460.78 229.16 461.5 232 464.01 233.42 471.07 239.93 473.46 239.93 476.21 243.01 477.17 245.02 479.8 245.62 478.97 248.57 476.93 249.4 474.78 248.57 472.26 250.35 468.44 249.88 463.05 244.67 464.13 249.05 463.17 250.71 461.62 248.69 458.15 252.13 458.15 254.5 456.59 256.27 455.99 262.55 454.56 264.8 453.36 270.48 448.93 273.92 450.61 278.18 448.57 281.14 445.7 284.1 444.31 281.01 442.62 280.18 443.53 282.37 443.29 285.87 440.46 289.08 439.92 291.98 437.16 293.11 434.7 292.75 435.3 294.24 433.98 296.13 438 295.9 438.66 296.55 438.18 299.46 436.26 300.82 437.34 301.54 439.26 301.36 439.68 303.61 438.66 306.16 436.02 305.39 435.54 304.74 435.36 306.04 436.86 307.47 437.88 308.42 435.36 313.7 433.61 313.7 432.89 312.4 431.94 316.54 431.94 318.79 428.47 325.07 422.84 328.86 418.06 329.69 411.24 332.88 408 333.36 407.05 328.86 407.65 326.37 405.97 323.88 405.37 322.7 403.81 323.41 402.02 321.04 400.46 321.87 397.83 321.16 396.4 318.56 395.23 321.16 396.38 323.35 393.3 322.49 391.97 320.81 391.97 318.2 390.18 316.66 388.26 317.85 385.27 316.07 383.48 316.31 380.96 319.03 376.89 319.62 376.21 321.23 373.75 321.58 372.01 320.04 370.09 320.58 366.25 325.26 363.85 325.26 364.2 322.59 363.72 317.08 362.34 313.04 363 310.2 361.98 308 362.29 309.78 360.78 312.92 358.68 314.29 356.64 312.87 353.82 314.88 349.62 315.24 347.09 314.35 343.61 314.11 342.59 311.98 340.01 314.17 338.14 314.17 336.23 309.6 336.16 305.69 335.26 298.33 332.38 296.49 331.6 294.48 333.4 292.28 335.68 289.02 335.26 286.11 333.64 283.2 328.91 278.53 324.84 276.17 320.91 275.25 320.79 273.95 323.8 273.59 326.38 271.34 332.2 269.98 336.1 266.95 339.29 267.19 336.28 266.3 331.84 269.03 326.68 269.8 324.51 270.27 321.15 269.26 319.05 265.47 320.07 264.46 321.99 265.41 320.49 262.92 315.57 256.81 315.09 250.58 317.37 249.21 317.73 247.25 316.89 245.06 317.06 242.77"/>
      <polygon class="cls-3" points="747.26 278.18 749.29 280.31 747.14 280.78 745.22 278.77 747.26 278.18"/>
      <polygon class="cls-3" points="754.56 288.6 750.25 288.6 752.64 289.43 754.56 288.6"/>
      <path class="cls-3" d="M757.07,289.66l6.1,2.13,3.35-1.66,5,1.42,2.75-.71,5.62,1.18L778,293.1l-6.94,1.07-7.66-1.07L758.15,291A12.58,12.58,0,0,0,757.07,289.66Z"/>
      <polygon class="cls-3" points="757.07 273.92 759.82 276.64 759.7 274.74 761.38 274.86 764.25 278.65 763.77 280.78 766.29 281.26 767.24 281.26 768.68 281.97 772.51 281.26 771.07 279.83 768.68 278.65 766.52 275.22 763.77 273.44 761.14 273.44 756.47 272.61 757.07 273.92"/>
      <polygon class="cls-3" points="708.87 356.17 711.21 359.38 711.09 363.17 709.89 361.93 709.77 359.31 708.87 356.17"/>
      <polygon class="cls-3" points="717.81 352.91 714.51 354.63 713.07 361.51 711.87 363.47 714.09 362.64 716.31 355.87 717.81 352.91"/>
      <polygon class="cls-3" points="743.85 374.97 742.59 376.39 743.43 377.1 744.21 376.27 743.85 374.97"/>
      <polygon class="cls-3" points="734.15 369.13 737.15 371.65 738.21 373.87 739.71 374.82 739.11 376.3 736.04 379.03 734.39 379.27 732.83 377.76 733.1 374.73 734.21 374.82 735.38 375.95 734.6 374.11 733.31 372.89 733.22 369.51 732.86 368.12 734.15 369.13"/>
      <path class="cls-3" d="M740.13,370.28l1.65,1.33.57,1.63-1.68.33-1.35-1-.15-1.57S740.13,370.19,740.13,370.28Z"/>
      <polygon class="cls-3" points="735.56 365.3 736.07 367.08 738.84 369.69 737.88 370.31 735.86 369.27 733.37 366.49 733.64 364.85 735.56 365.3"/>
      <polygon class="cls-3" points="741.75 362.9 738.93 363.93 736.58 365.98 737.15 366.87 740.64 368.74 741.99 369.72 743.7 367.67 744.03 365.86 743.34 365.45 743.64 364.56 742.62 363.07 741.75 362.9"/>
      <polygon class="cls-3" points="735.29 359.25 734.39 359.28 733.97 360.41 735.29 360.38 735.29 359.25"/>
      <polygon class="cls-3" points="740.51 354.57 741.95 354.45 743.33 356.41 742.07 356.35 740.51 354.57"/>
      <polygon class="cls-3" points="739.91 355.64 741.89 357.12 743.21 357.3 743.33 360.14 742.55 361.69 740.63 361.63 738.35 363.23 737.15 363.35 736.67 361.39 738.95 359.79 737.39 360.09 737.15 358.78 735.41 358.31 736.91 357.89 738.35 355.4 739.91 355.64"/>
      <polygon class="cls-3" points="696.32 381.5 699.02 380.14 698.12 379.6 696.32 381.5"/>
      <polygon class="cls-3" points="693.49 382.87 696.5 383.34 697.63 385 693.49 382.87"/>
      <path class="cls-3" d="M679.26,389.81l-1.92.71,1.38.3S679.26,389.63,679.26,389.81Z"/>
      <polygon class="cls-3" points="683.41 387.97 679.08 388.26 681.18 389.15 682.93 388.74 683.41 387.97"/>
      <polygon class="cls-3" points="683.71 399.89 681.84 399.71 678.84 401.73 678.36 403.04 680.76 402.56 682.93 400.9 683.71 399.89"/>
      <polygon class="cls-3" points="688.99 386.37 684.49 390.34 684.31 391.88 684.91 393.01 683.11 394.49 683.05 396.92 685.45 398.94 687.55 398.35 691.33 393.66 692.59 389.63 691.93 387.31 692.83 385.59 692.53 384.41 690.61 383.93 689.05 385.12 688.99 386.37"/>
      <polygon class="cls-3" points="663.89 370.29 666.17 368.92 664.49 368.09 663.89 370.29"/>
      <polygon class="cls-3" points="656.26 375.27 654.59 376.52 656.87 376.64 656.26 375.27"/>
      <polygon class="cls-3" points="662.33 400.01 658.91 401.79 660.89 401.79 662.33 400.01"/>
      <polygon class="cls-3" points="656.81 395.2 658.73 394.25 660.89 395.5 661.55 398.11 659.03 398.64 656.93 396.92 656.81 395.2"/>
      <polygon class="cls-3" points="638.85 383.99 640.35 382.81 642.04 383.99 641.19 385.3 639.39 385.24 638.85 383.99"/>
      <polygon class="cls-3" points="642.64 403.21 645.7 402.97 647.08 403.81 644.32 404.04 642.64 403.21"/>
      <polygon class="cls-3" points="617.12 391.88 620.24 389.69 618.26 388.74 616.94 389.93 617.12 391.88"/>
      <polygon class="cls-3" points="625.88 401.19 630.81 401.55 633.51 401.02 633.51 402.74 629.61 404.1 626.36 402.56 625.88 401.19"/>
      <polygon class="cls-3" points="621.26 402.56 623.54 401.91 623.42 403.69 621.26 402.56"/>
      <polygon class="cls-3" points="613.7 401.49 615.8 400.42 617.48 401.79 615.44 402.86 613.7 401.49"/>
      <polygon class="cls-3" points="551.67 436.14 550.65 439.52 552.33 440.82 557.73 440.53 562.47 437.44 565.42 436.55 568.12 436.79 571.24 434.53 573.28 431.45 579.53 426.82 581.03 424.86 582.73 424.14 578.72 420.45 575.3 416.62 573.86 417.31 571.05 418.12 570.82 422.35 567.83 422.82 564.35 424.6 561.89 421.73 560.94 422.64 557.71 424.53 556.51 427.97 553.4 433.06 552.9 434.44 554.25 435.69 554.79 437.05 553.02 437.05 551.67 436.14"/>
      <polygon class="cls-3" points="548.37 439.75 549.63 436.43 548.37 436.37 546.62 439.1 548.37 439.75"/>
      <polygon class="cls-3" points="548.73 442.06 545.62 443.48 546.22 444.07 541.07 446.56 538.56 448.81 540.95 449.64 548.49 446.56 549.57 443.95 548.73 442.06"/>
      <polygon class="cls-3" points="524.05 441.36 525.85 442.54 526.27 444.14 524.11 445.21 521.1 445.04 522.72 442.37 524.05 441.36"/>
      <polygon class="cls-3" points="475.98 423.82 483.16 420.15 487.58 423.59 490.57 423.59 493.57 421.93 497.51 423.82 498.59 426.78 501.82 426.78 504.58 430.93 507.33 433.53 507.45 435.67 503.26 437.8 498.59 438.27 494.76 436.61 492.01 432.7 489.26 432.11 486.63 428.92 482.92 429.51 478.37 428.56 475.74 426.19 475.98 423.82"/>
      <polygon class="cls-3" points="424.58 386.12 427.01 386.21 427.8 386.03 427.56 386.98 425.18 386.92 424.58 386.12"/>
      <polygon class="cls-3" points="414.98 381.17 417.23 383.31 419.36 380.96 420.95 381.23 422.03 381.23 421.43 380.31 419.33 379.42 416.24 379.03 414.92 380.22 414.98 381.17"/>
      <polygon class="cls-3" points="593.58 397.75 597.18 395.68 602.41 396.81 604.21 398.23 604.99 396.75 607.39 394.91 609.91 393.6 609.25 391.82 606.55 390.69 603.97 392.6 598.38 393.07 596.64 391.64 594.06 392.89 592.86 396.33 593.58 397.75"/>
      <polygon class="cls-3" points="588.05 402.26 587.09 403.63 587.69 404.34 588.95 403.39 588.05 402.26"/>
      <polygon class="cls-3" points="573.04 401.91 569.74 403.33 571.06 404.28 569.98 405.47 570.28 406.71 573.22 407.42 578.87 405.47 580.73 403.33 579.05 402.2 574.48 402.68 573.04 401.91"/>
      <polygon class="cls-3" points="560.97 408.31 563.26 408.25 564.88 409.8 567.46 406.36 567.16 404.93 565.54 406.42 562.47 406.77 560.97 408.31"/>
      <polygon class="cls-3" points="550.71 408.85 554.01 406.53 553.29 405.05 554.73 404.52 557.07 404.87 559.35 403.57 560.61 404.4 557.19 407.54 555.63 409.38 552.21 410.09 550.71 408.85"/>
      <polygon class="cls-3" points="547.94 407.96 544.52 408.61 543.38 411.22 545.24 409.26 547.94 407.96"/>
      <polygon class="cls-3" points="549.68 403.09 547.52 404.93 549.2 405.88 550.23 404.46 549.68 403.09"/>
      <path class="cls-3" d="M490.72,410l1,2.79,2.76.65,2.22-.24,2.52.65,2.34-.42,2.58.35,1.92,1.6,3-1.25,1.86,1,2.4.06.72-.89,3.66-1.54,5.32,1,4.67-2.13,5,.12,2.39.83,1.44-1.54,3.59-.47,2.39-3.2,2.16-.95,1.55-2.72-.36-3-3.47-1.42-2.87,1.9,1.31.71-1.91,2.84-3,.95L534,408l-3.71.36-2.15-1.66-4.79-.24-3.47,1.42L515.34,405,511,403.93l-2.27.59-4.07-2-8.14,1.78-5,2.72A15.36,15.36,0,0,0,490.72,410Z"/>
      <polygon class="cls-3" points="488.5 409.74 487.36 413 489.58 412.58 489.94 410.63 488.5 409.74"/>
      <polygon class="cls-3" points="486.94 407.96 484.12 407.07 482.92 410.81 484.66 413.18 485.68 409.26 486.94 407.96"/>
      <path class="cls-3" d="M439.48,410.21l-.48,2,1.2,1.18-1,1.42,1.44,1.78,3,1.3L448,417l2.39.95,3.59-1.18,1.44-1.89,3,1.07,3.59-1.54,3.35.59,3.59-3.08,1.08,2.25,3.11-.47,4.67.59-2.15-1.78h4.31l.36-3.55-1.2,1.42-1-3,.36-2.48-3.47-.95.48,2.61-1.67.71-.36-2.84-3.35-2-3.35,1.18-3.11-1.9-2.75-1.18L456.83,403l.12,1.78,6.7,2.48,2.63,2.61-4.43.59-2.63,1.18-3.95-2.49-.84-2.84-2.27-.47-2.75.71-3-.71-4.79,1.78A20.58,20.58,0,0,0,439.48,410.21Z"/>
      <polygon class="cls-3" points="429.77 406.18 433.26 403.69 438.48 405.35 437.76 409.2 436.26 411.34 436.56 414.07 434.28 413.24 431.1 414.48 425.75 412.88 424.67 411.4 426.11 410.45 429 410.57 429.77 406.18"/>
      <polygon class="cls-3" points="419.03 411.34 420.65 409.74 421.73 411.52 419.99 412.41 419.03 411.34"/>
      <polygon class="cls-3" points="403.22 401.21 406.93 400.14 410.64 401.09 415.19 399.55 419.61 400.5 423.2 404.76 422.37 406.65 419.37 407.25 418.3 408.43 415.66 409.73 414.23 411.75 413.39 409.85 409.32 406.77 404.77 405.82 403.22 403.69 403.22 401.21"/>
      <polygon class="cls-3" points="806.65 403.57 808.03 401.02 809.77 399.95 810.91 400.25 812.11 403.99 811.15 404.94 808.03 403.87 806.65 403.57"/>
      <path class="cls-3" d="M790.22,404.17l6.77-6.65,1.74-3.33,1.74-4.69,3.66-1.72,5.94.24,1.08,1,2.46,1.9-.6,1.19-.66,2.73-.78.83v1.72l-1.26,1.66-2.58.65-2.58,3-2.7,1.31-4.26-.66-2.28.48S790.1,404.29,790.22,404.17Z"/>
      <polygon class="cls-3" points="377.88 379.26 375.49 382.64 378.84 386.03 381.3 386.39 383.4 385.14 389.1 385.44 392.09 384.13 395.75 383.66 397.19 381.7 395.51 380.92 391.07 381.58 388.56 380.75 379.62 380.45 377.88 379.26"/>
      <polygon class="cls-3" points="313.86 291.44 314.1 293.13 316.58 294.24 317.68 292.83 316.31 291.38 313.86 291.44"/>
      <polygon class="cls-2" points="362.74 216.1 360.52 216.65 360.31 216.69 359.34 216.93 359.34 218.56 361.75 220.91 363.82 219.9 362.74 216.1"/>
      <polygon class="cls-2" points="360.9 221.23 359.04 219.78 358.41 220.58 359.07 222 360.9 221.23"/>
      <polygon class="cls-2" points="358.44 222.12 357.63 220.52 355.74 223.25 358.44 222.12"/>
      <line class="cls-4" x1="159.86" y1="326.16" x2="160.45" y2="325.96"/>
    </g>
    <text class="cls-5" transform="translate(97.34 166.23)"><tspan class="cls-6">A</tspan><tspan x="6.21" y="0">ceh</tspan></text>
    <text class="cls-5"><tspan x="256.18" y="241.1">Riau Islands</tspan></text>
    <text class="cls-5" transform="translate(324.2 259.81)"><tspan class="cls-7">W</tspan><tspan x="8.8" y="0">est</tspan><tspan class="cls-8" x="0" y="10">K</tspan><tspan x="6.01" y="10">aliman</tspan><tspan class="cls-9" x="34.33" y="10">t</tspan><tspan x="37.37" y="10">an </tspan></text>
    <text class="cls-5" transform="translate(362.34 292.44)">Cent<tspan class="cls-6" x="20.69" y="0">r</tspan><tspan x="23.76" y="0">al </tspan><tspan class="cls-8" x="0" y="10">K</tspan><tspan x="6.01" y="10">aliman</tspan><tspan class="cls-9" x="34.33" y="10">t</tspan><tspan x="37.37" y="10">an </tspan></text>
    <text class="cls-5" transform="translate(422.1 237.79)">East <tspan class="cls-8" x="0" y="10">K</tspan><tspan x="6.01" y="10">aliman</tspan><tspan class="cls-9" x="34.33" y="10">t</tspan><tspan x="37.37" y="10">an </tspan></text>
    <text class="cls-5" transform="translate(411.09 316.04)">South<tspan class="cls-8" x="0" y="10">K</tspan><tspan x="6.01" y="10">aliman</tspan><tspan class="cls-9" x="34.33" y="10">t</tspan><tspan x="37.37" y="10">an </tspan></text>
    <text class="cls-5" transform="translate(139.67 206.16)">North <tspan x="0" y="10">Suma</tspan><tspan class="cls-8" x="24.87" y="10">t</tspan><tspan x="27.82" y="10">e</tspan><tspan class="cls-6" x="33.12" y="10">r</tspan><tspan x="36.19" y="10">a </tspan></text>
    <text class="cls-5" transform="translate(171.65 339.62)">Bengkulu</text>
    <text class="cls-5" transform="translate(181.36 251.76)">Riau</text>
    <text class="cls-5" transform="translate(129.06 291.47)"><tspan class="cls-7">W</tspan><tspan x="8.8" y="0">est </tspan><tspan x="0" y="10">Suma</tspan><tspan class="cls-8" x="24.87" y="10">t</tspan><tspan x="27.82" y="10">e</tspan><tspan class="cls-6" x="33.12" y="10">r</tspan><tspan x="36.19" y="10">a</tspan></text>
    <text class="cls-5" transform="translate(219.48 313.09)">South <tspan x="0" y="10">Suma</tspan><tspan class="cls-8" x="24.87" y="10">t</tspan><tspan x="27.82" y="10">e</tspan><tspan class="cls-6" x="33.12" y="10">r</tspan><tspan x="36.19" y="10">a</tspan></text>
    <text class="cls-5"><tspan x="278.07" y="292.03">Bangka </tspan><tspan x="278.07" y="302.03">Belitung</tspan><tspan x="278.07" y="312.03">Islands</tspan></text>
    <text class="cls-5" transform="translate(197.21 290.47)">Jambi</text>
    <text class="cls-5" transform="translate(245.69 347.48)">Lampung</text>
    <text class="cls-5" transform="translate(236.89 386)">Ban<tspan class="cls-8" x="16.76" y="0">t</tspan><tspan x="19.71" y="0">en</tspan></text>
    <text class="cls-5" transform="translate(276.81 360.25)">Jakar<tspan class="cls-9" x="23.5" y="0">t</tspan><tspan x="26.55" y="0">a</tspan></text>
    <text class="cls-5" transform="translate(408.23 399.97)">Bali</text>
    <text class="cls-5" transform="translate(278.77 384.24)"><tspan class="cls-7">W</tspan><tspan x="8.8" y="0">est </tspan><tspan x="0" y="10">Ja</tspan><tspan class="cls-6" x="10.14" y="10">w</tspan><tspan x="17.42" y="10">a</tspan></text>
    <text class="cls-5" transform="translate(316.88 366.17)">Cent<tspan class="cls-6" x="20.69" y="0">r</tspan><tspan x="23.76" y="0">al </tspan><tspan x="0" y="10">Ja</tspan><tspan class="cls-6" x="10.14" y="10">v</tspan><tspan x="15.03" y="10">a</tspan></text>
    <text class="cls-5" transform="translate(371.49 365.38)">East <tspan x="0" y="10">Ja</tspan><tspan class="cls-6" x="10.14" y="10">v</tspan><tspan x="15.03" y="10">a</tspan></text>
    <text class="cls-5" transform="translate(291.15 408.77)"><tspan class="cls-10">Y</tspan><tspan x="5.2" y="0">og</tspan><tspan class="cls-6" x="16.36" y="0">y</tspan><tspan x="21.27" y="0">akar</tspan><tspan class="cls-9" x="39.82" y="0">t</tspan><tspan x="42.87" y="0">a</tspan></text>
    <text class="cls-5" transform="translate(428.72 416.06)"><tspan class="cls-7">W</tspan><tspan x="8.8" y="0">est </tspan><tspan x="0" y="10">Nusa </tspan><tspan class="cls-11" x="0" y="20">T</tspan><tspan x="4.88" y="20">engga</tspan><tspan class="cls-6" x="32.16" y="20">r</tspan><tspan x="35.23" y="20">a</tspan></text>
    <text class="cls-5" transform="translate(510.89 405.44)">East <tspan x="0" y="10">Nusa </tspan><tspan class="cls-11" x="0" y="20">T</tspan><tspan x="4.88" y="20">engga</tspan><tspan class="cls-6" x="32.16" y="20">r</tspan><tspan x="35.23" y="20">a</tspan></text>
    <text class="cls-5" transform="translate(450.01 296.76)"><tspan class="cls-7">W</tspan><tspan x="8.8" y="0">est </tspan><tspan x="0" y="10">Sulawesi </tspan></text>
    <text class="cls-5" transform="translate(514.1 278.28)">Cent<tspan class="cls-6" x="20.69" y="0">r</tspan><tspan x="23.76" y="0">al </tspan><tspan x="0" y="10">Sulawesi</tspan></text>
    <text class="cls-5" transform="translate(506.63 240.15)">Go<tspan class="cls-12" x="12.55" y="0">r</tspan><tspan x="15.48" y="0">on</tspan><tspan class="cls-9" x="26.41" y="0">t</tspan><tspan x="29.46" y="0">alo</tspan></text>
    <text class="cls-5" transform="translate(573.08 221.28)">North<tspan x="0" y="10">Sulawesi</tspan></text>
    <text class="cls-5" transform="translate(596.27 258.24)">North <tspan x="0" y="10">Maluku</tspan></text>
    <text class="cls-5" transform="translate(636.77 344.34)">Maluku</text>
    <text class="cls-5" transform="translate(537.69 325.86)">Southeast<tspan x="0" y="10">Sulawesi</tspan></text>
    <text class="cls-5" transform="translate(457.09 339.23)">South<tspan x="0" y="10">Sulawesi</tspan></text>
    <text class="cls-5" transform="translate(703.21 283.4)"><tspan class="cls-7">W</tspan><tspan x="8.8" y="0">est </tspan><tspan class="cls-7" x="0" y="10">P</tspan><tspan x="5.48" y="10">apua </tspan></text>
    <text class="cls-5" transform="translate(783.4 320.74)"><tspan class="cls-7">P</tspan><tspan x="5.48" y="0">apua </tspan></text>
    <g>
      <g>
        <path class="cls-13" d="M273.45,363.42c.28,1.22,0,3,.78,3.83.51.51,1.12,1.86,2.16,1.86s2.25.69,3.14.69c1,0,1.27.26,1.37-.78s.07-2,.2-3"/>
        <path class="cls-13" d="M277.18,369.43c-1.57.44-3.28-.13-4.9-.13-2.58,0-1.14,4.51-.88,6.85s1.32,1.5.29,3.88a13.18,13.18,0,0,1-1.28,2.2"/>
        <path class="cls-13" d="M311,378.13c.06,1,.41,4.44-.29,4.88a10,10,0,0,1-3,1.11c-1.11.26-1.66,3.27-1.08,4.43.8,1.61,3.33,2.06,3.33,4.88"/>
        <path class="cls-13" d="M329,395.79c.69-.64,5-4.07,5-5.1,0-3.74,6.28-2.6,7.06.39.11.44,3,2.54,3.43,2.94,1.1,1.1,3.67,7.62,5.3,7.94"/>
        <path class="cls-13" d="M359.86,376.56c-.82,2.06-1.33,5.52-2.84,6.38s-5,.43-5.88,1.67c-1.1,1.61.8,5.72,1,8,.12,1.62.22,2.14-.78,3.14-1.34,1.34-.78,6.77-.78,6.57"/>
      </g>
      <path class="cls-13" d="M402,421.68c2.9-5,2.94-6,2.94-12.75,0-4.64-4.49-14.67.1-18.34,6-4.78,18.93-1.32,18.93-12"/>
    </g>
    <g>
      <path class="cls-13" d="M431.26,388.43c-1.24,5.36-2.12,11.57-3.83,16.48a64.35,64.35,0,0,1-4.41,9.81l-3.92,7.06"/>
      <path class="cls-13" d="M489.49,391.18c-3,3.92-1.12,9-3.34,12.57-3.59,5.74-8,10.6-12.18,17.09-1.6,2.5-2.75,4-2.75,7.86S473,435,473,438.52"/>
    </g>
    <g>
      <path class="cls-13" d="M225.91,251.85c4.25-18.44,14.76-5.81,19.27-20.84,1.48-4.93,12.65-18.6,16.51-22,1.31-1.16,3.78-10.23,6.29-13.37,7.31-9.14,31.12-30.64,42.85-13.76,7.49,10.77,9,16.32,9,33,0,3.33-8.37,6-11,8.65-7.47,7.47-7.25,15.18-19.27,22-8.81,5-10.88,13.63-17.69,20.44-1.69,1.69-29.57,5.5-34.21,5.5C230.2,271.51,227.37,256.93,225.91,251.85Z"/>
      <path class="cls-13" d="M256.18,300.61c-4.12-2.22-15.84-13.86-4.32-16.51,6.07-1.4,10.14-4.89,18.87-5.9,14.24-1.64,26.17-9.55,41.68-.79,9.51,5.37,8.87,20,2.75,27.52-4,4.87.81,13.47-7.47,14.55-14.39,1.88-21.82,1.94-31.85-4.32-4.09-2.56-8.12-3.79-11.79-7.47C262.74,306.38,257.06,299.82,256.18,300.61Z"/>
      <path class="cls-13" d="M135.27,189.18c-2.87.66-4.13,3-4.13,6.29,0,2-3.14,1.35-3.14,5.7,0,5.55,2.55,8.31,2.55,13.75,0,7,.44,5.61-5.11,7.27-1.49.45,1.9,3.81-3.54,4.52-2.57.33.94,2.85-3.14,3.93-5.75,1.53-10.75,7.66-16.5,7.66"/>
      <path class="cls-13" d="M169.49,219.49c0,3.81-2.22,7.87-.39,11.2.9,1.63,3.13,3.93.39,3.93-8.2,0-2.94,7.06-3.73,13.16-.17,1.32-3-1.57-4.91-1.57-3.36,0-.09,4.43,1,5.5,2.55,2.55-5.05.42-8.25.79-1.22.14-6.88,8.41-6.88,11.39,0,5.58-8.42,10.8-13.75,10.8"/>
      <path class="cls-13" d="M165.36,247.78c2.16,9.35,11.2,4.12,11.2,11.79,0,8.11,1.6,6.91,6.09,11.39a27.84,27.84,0,0,0,4.71,3.73c5.58,3.45,5.12,4,9.23,2.36,4.77-1.88,10.41,3.7,10.41-.39,0-4.39,13.51-.25,14.34-2.75"/>
      <path class="cls-13" d="M165.36,325.57a24.36,24.36,0,0,0,10.41-9.43c.9-1.6,1.18-4.52,1.18-6.48,0-4.83,2.81-5.56,5.11-7.86,3.29-3.29,7-1.33,4.13-4.91-3.53-4.34,8.05-14.71,8.05-19.25"/>
      <path class="cls-13" d="M187.56,299c4.33,7.36,9.4,8.92,15.52,5.7,1.4-.74,5.25-1.13,5.89-2.16.76-1.21.2-3.34,1.38-3.34,2.44,0,2.45-.44,4.32-1.18.11,0,5.11,4,5.11.59,0-5.46,4.92-5.13,8.64-7.46.66-.41,6,0,6.88,0,3.72,0,1-2.16,4.91-2.16"/>
      <path class="cls-13" d="M198.56,306.91c.77,4.12,2.42,5.22,5.5,6.29,2.71.94-.34,3.81,4.91,4.91,2,.42,5.89-1.23,5.89,1.57,0,.75-4.11.6-4.71,1.57-4.38,7-1.52,7,4.91,11,8,5,11.2,2.92,11.2,14.34,2.45-2.45,4.48-2.14,7.66-2.55,2.45-.32-.54-8.22,3.34-9.23a37.85,37.85,0,0,0,6.88-3.14,20.52,20.52,0,0,0,4.52-3.14c7.88-7.88,5.71,2.16,13.16,2.16"/>
      <path class="cls-13" d="M226.28,346.16c-1.07,2.43-3.12,3.2-5.49,4-1.1.38-3,3-4.61,3.82-1.42.73-10,3.63-10,4.61,0,.53-4.16,4.22-5,4.22"/>
      <path class="cls-13" d="M268.65,348.32c-2.6,3.2-3.84,4-5.1,8-.5,1.61-.06,5.62-1.77,6.38-4.71,2.08-8.48,2.32-12.46,5.88-1.41,1.26-9.95,4.34-9.61,3.33"/>
    </g>
    <g>
      <path class="cls-13" d="M345.89,310.05c6.35-3.71-1.34-19.31.59-22.39s4.77,1.08,7.27-3.93c8-16,36.54-5.33,36.54-24.36,0-11.15,22.88-12.16,24.75-8.84,1.36,2.41-.9,11.48.39,12.77,2.16,2.16,4.91-4.23,4.91,5.3,0,8.6,7.44,8.08,6.68,14.73-.11,1-3.33,2-4.32,3.54-.83,1.33-2.78,10.21-3.14,10.21-11.93,0-4.08,6-9.82,8.05-6.46,2.33-6.09,6.55-6.09,14.14"/>
      <path class="cls-13" d="M442,299.44c-4.95,0-8.33.43-10.21-3.34-1.32-2.64.39-6.21.39-9,0-1.42-.67-2.86-1.77-3.14-.94-.24-1.28-1.23-2.16-1.57-.45-.17-1.31.39-1.77.39"/>
      <path class="cls-13" d="M398.7,250.73a12.41,12.41,0,0,1-2.45-4.12c-.91-2,2.14-4.53,3.24-5.3s1.57-.61,1.57-2c0-.93.1-1.8.1-2.75"/>
    </g>
    <g>
      <path class="cls-13" d="M752.36,251.85c0,12.91-.15,31.85-4.32,42.46-2.46,6.24-3.93,10.35-3.93,18.48v16.51"/>
      <path class="cls-13" d="M641.49,292.84c9.36,2.16,21.42,10.91,29.88,10.91,8.16,0,14,11.36,17.69,17.3,11.74,19.07,64.09,11.5,64.09,40.5"/>
    </g>
    <g>
      <path class="cls-14" d="M526.5,245.82c0,2.45-.48,3.21-3,3.53a52.83,52.83,0,0,1-6.47.1c-3.26,0-1.47,2.24.39,3.33,1.22.72,3.53,1.85,3.53,3.24"/>
      <g>
        <path class="cls-14" d="M615.53,214.9c14.54,1.12,20.45-2.75,33-2.75,7.5,0,15.15,49.89,13.76,60.55-.86,6.58-31.09,27.91-35,27.91-18.25,0-33.74,1.18-52.29,1.18-12.14,0-5.1-17-7.47-25.56-.95-3.41,7.64-6.26,10.22-7.86,2.36-1.46,2.52-14.36,2.75-17.69.39-5.61,17.76-17.6,22.41-20.84C607.25,226.85,611.27,215.53,615.53,214.9Z"/>
        <path class="cls-14" d="M615.93,212.93c7.29-4.86,4.72-14.28,4.72-23.59,0-14.33-23.81-15.06-27.91-5.9-1.1,2.44-2.27,5-4.32,6.68-2.71,2.17-.91,9.21-5.11,11.79-3.75,2.3-12.24,12.65-15.33,16.51-4.05,5.06-16.12,24.28-16.12,30.27,0,13.34,17.82,9.48,28.31,13"/>
        <path class="cls-14" d="M472.2,379c5.69,4.47,26.46,12.08,34,12.38,14,.56,19.45-18.6,36.54-20.43,17.3-1.85,34.29-1,52.84-1"/>
        <path class="cls-14" d="M580.05,410.82c-4.37-4.37.4-7.07,4.32-7.86,2.44-.49,4.36-14.78,4.71-17.48.72-5.53,6-16.84,8.45-23.18,3.14-8.16,4.69-19.75,2.75-27.5-.7-1.8-2.52-6.78-3.73-7.86-2.89-2.56-3.68-8.79-4.91-12-1.14-3-.2-10.19-.2-13.75"/>
        <path class="cls-14" d="M490.08,275.67c1.31,5.81,0,11.23,2.95,16.2.72,1.21.39,3.84.39,5.33,0,5.22,7.22,12.31-3.34,12.31-.65,0-.3,2.78-.79,3.28a51.2,51.2,0,0,0-1,5.54c0,1.14-2.51,5.18-2.16,4.1"/>
        <path class="cls-14" d="M493.54,293.49c3.08.15,4.27.86,7.16-.1,1.56-.52,2.21-1.4,4.22-.2,4,2.38,4.51,4.27,7.55,6.28,4.23,2.79,14.71,3.21,14.71,8.63,0,4.1-1.65,2.35-5,2.35-1.52,0-7.24-.05-7.06-.1"/>
        <path class="cls-14" d="M525.91,310.95c1.21.34,2.4.82,3.63,1.18.81.23,1.89-.27,2.35.29a8.61,8.61,0,0,0,2.55,1.57,12.06,12.06,0,0,0,1.18.59c.62.17,1-.26,1.27.49"/>
      </g>
    </g>
    <text class="cls-5" transform="translate(307.54 501.43)"><tspan class="cls-15">INDONESI</tspan><tspan x="175.9" y="0">A</tspan></text>
  </g>
  <polyline class="cls-16" points="486.12 242.6 486.12 307.97 389.59 307.97 389.59 211.98 486.12 211.98 486.12 242.6"/>
</svg>
