<svg id="Layer_1" data-name="Layer 1" xmlns="http://www.w3.org/2000/svg" viewBox="0 0 24 24">
  <title>aktiv</title>
  <path d="M13.31,6a2.5,2.5,0,1,0-2.5-2.5A2.5,2.5,0,0,0,13.31,6Zm0-4a1.5,1.5,0,1,1-1.5,1.5A1.5,1.5,0,0,1,13.31,2Zm1.95,20H11.78l-.36-5a.49.49,0,0,0-.53-.46.5.5,0,0,0-.46.53l.39,5.5a.5.5,0,0,0,.5.46h3.95a.5.5,0,1,0,0-1ZM16,9.31l.64,5.12a.5.5,0,0,1-.5.56h-.37a.5.5,0,0,0-.5.46l-.52,7a.5.5,0,0,0,.46.53h0a.5.5,0,0,0,.5-.46L16.28,16a1.5,1.5,0,0,0,1.39-1.68L17,9.19A2.5,2.5,0,0,0,14.55,7H12.08a2.48,2.48,0,0,0-.83.15.5.5,0,0,0,.33.94,1.51,1.51,0,0,1,.5-.09h2.47A1.5,1.5,0,0,1,16,9.31Z"/>
  <path d="M11.25,9.07a2.5,2.5,0,0,0-2.42,1,2.5,2.5,0,0,0-2.42-1A2.6,2.6,0,0,0,4.33,11.7a2.48,2.48,0,0,0,.73,1.77l3.41,3.41a.5.5,0,0,0,.35.15.49.49,0,0,0,.35-.15l3.41-3.41a2.52,2.52,0,0,0,.73-1.83A2.58,2.58,0,0,0,11.25,9.07Zm.65,3.7L8.83,15.82,5.77,12.76a1.54,1.54,0,0,1-.44-1.12,1.57,1.57,0,0,1,1.24-1.59l.26,0a1.48,1.48,0,0,1,1,.36,1.5,1.5,0,0,1,.53,1.14.5.5,0,0,0,1,0,1.5,1.5,0,0,1,1.76-1.48,1.6,1.6,0,0,1,1.24,1.65A1.51,1.51,0,0,1,11.89,12.76Z"/>
</svg>
