<?xml version="1.0" encoding="utf-8"?>
<!-- Generator: Adobe Illustrator 21.0.0, SVG Export Plug-In . SVG Version: 6.00 Build 0)  -->
<!DOCTYPE svg PUBLIC "-//W3C//DTD SVG 1.1//EN" "http://www.w3.org/Graphics/SVG/1.1/DTD/svg11.dtd">
<svg version="1.1" id="Layer_1" xmlns="http://www.w3.org/2000/svg" xmlns:xlink="http://www.w3.org/1999/xlink" x="0px" y="0px"
	 viewBox="0 0 30 30" style="enable-background:new 0 0 30 30;" xml:space="preserve">
<g>
	<g>
		<path d="M28.9,7.3H1c-0.4,0-0.6-0.3-0.6-0.6C0.4,6.3,0.7,6,1,6h27.8c0.4,0,0.6,0.3,0.6,0.6C29.5,7.1,29.2,7.3,28.9,7.3z"/>
	</g>
</g>
<g>
	<g>
		<path d="M28.9,15H1c-0.4,0-0.6-0.3-0.6-0.6s0.3-0.6,0.6-0.6h27.8c0.4,0,0.6,0.3,0.6,0.6S29.2,15,28.9,15z"/>
	</g>
</g>
<g>
	<g>
		<path d="M28.9,22.7H1c-0.4,0-0.6-0.3-0.6-0.6s0.3-0.6,0.6-0.6h27.8c0.4,0,0.6,0.3,0.6,0.6S29.2,22.7,28.9,22.7z"/>
	</g>
</g>
</svg>
